%TF.GenerationSoftware,KiCad,Pcbnew,7.0.10*%
%TF.CreationDate,2024-11-13T12:28:53-05:00*%
%TF.ProjectId,pmodThingy,706d6f64-5468-4696-9e67-792e6b696361,rev?*%
%TF.SameCoordinates,Original*%
%TF.FileFunction,Copper,L2,Bot*%
%TF.FilePolarity,Positive*%
%FSLAX46Y46*%
G04 Gerber Fmt 4.6, Leading zero omitted, Abs format (unit mm)*
G04 Created by KiCad (PCBNEW 7.0.10) date 2024-11-13 12:28:53*
%MOMM*%
%LPD*%
G01*
G04 APERTURE LIST*
%TA.AperFunction,ComponentPad*%
%ADD10C,2.100000*%
%TD*%
%TA.AperFunction,ComponentPad*%
%ADD11C,2.250000*%
%TD*%
%TA.AperFunction,ComponentPad*%
%ADD12R,1.700000X1.700000*%
%TD*%
%TA.AperFunction,ComponentPad*%
%ADD13O,1.700000X1.700000*%
%TD*%
%TA.AperFunction,ComponentPad*%
%ADD14O,1.050000X1.900000*%
%TD*%
%TA.AperFunction,ViaPad*%
%ADD15C,0.800000*%
%TD*%
%TA.AperFunction,Conductor*%
%ADD16C,0.400000*%
%TD*%
%TA.AperFunction,Conductor*%
%ADD17C,0.250000*%
%TD*%
G04 APERTURE END LIST*
D10*
%TO.P,J6,1*%
%TO.N,+3V3*%
X122428000Y-59182000D03*
D11*
%TO.P,J6,S1*%
%TO.N,GND*%
X119888000Y-56642000D03*
%TO.P,J6,S2*%
X119888000Y-61722000D03*
%TO.P,J6,S3*%
X124968000Y-61722000D03*
%TO.P,J6,S4*%
X124968000Y-56642000D03*
%TD*%
D12*
%TO.P,J2,1,Pin_1*%
%TO.N,GND*%
X121666000Y-51497000D03*
D13*
%TO.P,J2,2,Pin_2*%
X121666000Y-48957000D03*
%TO.P,J2,3,Pin_3*%
%TO.N,/IO11_UART_TX*%
X124206000Y-51497000D03*
%TO.P,J2,4,Pin_4*%
%TO.N,/IO15*%
X124206000Y-48957000D03*
%TO.P,J2,5,Pin_5*%
%TO.N,/IO10_UART_RX*%
X126746000Y-51497000D03*
%TO.P,J2,6,Pin_6*%
%TO.N,/IO14*%
X126746000Y-48957000D03*
%TO.P,J2,7,Pin_7*%
%TO.N,/IO9_I2C_SDA*%
X129286000Y-51497000D03*
%TO.P,J2,8,Pin_8*%
%TO.N,/IO13*%
X129286000Y-48957000D03*
%TO.P,J2,9,Pin_9*%
%TO.N,/IO8_I2C_SCL*%
X131826000Y-51497000D03*
%TO.P,J2,10,Pin_10*%
%TO.N,/IO12*%
X131826000Y-48957000D03*
%TD*%
D12*
%TO.P,J5,1,Pin_1*%
%TO.N,/IO4_MISO*%
X159507000Y-53863000D03*
D13*
%TO.P,J5,2,Pin_2*%
%TO.N,+3V3*%
X162047000Y-53863000D03*
%TO.P,J5,3,Pin_3*%
%TO.N,/IO5_SCK*%
X159507000Y-56403000D03*
%TO.P,J5,4,Pin_4*%
%TO.N,/IO3_MOSI*%
X162047000Y-56403000D03*
%TO.P,J5,5,Pin_5*%
%TO.N,/RESET*%
X159507000Y-58943000D03*
%TO.P,J5,6,Pin_6*%
%TO.N,GND*%
X162047000Y-58943000D03*
%TD*%
D12*
%TO.P,J4,1,Pin_1*%
%TO.N,/IO0*%
X170307000Y-46482000D03*
D13*
%TO.P,J4,2,Pin_2*%
%TO.N,/IO1*%
X170307000Y-49022000D03*
%TO.P,J4,3,Pin_3*%
%TO.N,/IO2_SS*%
X170307000Y-51562000D03*
%TO.P,J4,4,Pin_4*%
%TO.N,/IO3_MOSI*%
X170307000Y-54102000D03*
%TO.P,J4,5,Pin_5*%
%TO.N,/IO4_MISO*%
X170307000Y-56642000D03*
%TO.P,J4,6,Pin_6*%
%TO.N,/IO5_SCK*%
X170307000Y-59182000D03*
%TO.P,J4,7,Pin_7*%
%TO.N,/IO6*%
X170307000Y-61722000D03*
%TO.P,J4,8,Pin_8*%
%TO.N,/IO7*%
X170307000Y-64262000D03*
%TO.P,J4,9,Pin_9*%
%TO.N,/IO8_I2C_SCL*%
X170307000Y-66802000D03*
%TO.P,J4,10,Pin_10*%
%TO.N,/IO9_I2C_SDA*%
X170307000Y-69342000D03*
%TO.P,J4,11,Pin_11*%
%TO.N,/IO10_UART_RX*%
X170307000Y-71882000D03*
%TO.P,J4,12,Pin_12*%
%TO.N,/IO11_UART_TX*%
X170307000Y-74422000D03*
%TO.P,J4,13,Pin_13*%
%TO.N,/IO12*%
X170307000Y-76962000D03*
%TO.P,J4,14,Pin_14*%
%TO.N,/IO13*%
X170307000Y-79502000D03*
%TO.P,J4,15,Pin_15*%
%TO.N,/IO14*%
X170307000Y-82042000D03*
%TO.P,J4,16,Pin_16*%
%TO.N,/IO15*%
X170307000Y-84582000D03*
%TO.P,J4,17,Pin_17*%
%TO.N,+3V3*%
X170307000Y-87122000D03*
%TO.P,J4,18,Pin_18*%
%TO.N,GND*%
X170307000Y-89662000D03*
%TD*%
D12*
%TO.P,J1,1,Pin_1*%
%TO.N,GND*%
X144526000Y-51497000D03*
D13*
%TO.P,J1,2,Pin_2*%
X144526000Y-48957000D03*
%TO.P,J1,3,Pin_3*%
%TO.N,/IO3_MOSI*%
X147066000Y-51497000D03*
%TO.P,J1,4,Pin_4*%
%TO.N,/IO7*%
X147066000Y-48957000D03*
%TO.P,J1,5,Pin_5*%
%TO.N,/IO2_SS*%
X149606000Y-51497000D03*
%TO.P,J1,6,Pin_6*%
%TO.N,/IO6*%
X149606000Y-48957000D03*
%TO.P,J1,7,Pin_7*%
%TO.N,/IO1*%
X152146000Y-51497000D03*
%TO.P,J1,8,Pin_8*%
%TO.N,/IO5_SCK*%
X152146000Y-48957000D03*
%TO.P,J1,9,Pin_9*%
%TO.N,/IO0*%
X154686000Y-51497000D03*
%TO.P,J1,10,Pin_10*%
%TO.N,/IO4_MISO*%
X154686000Y-48957000D03*
%TD*%
D14*
%TO.P,J3,6,Shield*%
%TO.N,unconnected-(J3-Shield-Pad6)*%
X135363000Y-90100000D03*
X142513000Y-90100000D03*
%TD*%
D15*
%TO.N,GND*%
X149098000Y-58166000D03*
X151257000Y-63754000D03*
X148844000Y-64008000D03*
%TO.N,Net-(U1-UCAP)*%
X140589000Y-80010000D03*
X142615335Y-81582005D03*
%TO.N,/USB_VBUS*%
X132543000Y-81255000D03*
X137541000Y-86233000D03*
X141351000Y-82042000D03*
%TO.N,+3V3*%
X139700000Y-74295000D03*
X123571000Y-73406000D03*
X133604000Y-66802000D03*
X149606000Y-62484000D03*
X127889000Y-79121000D03*
X144018000Y-64262000D03*
X144018000Y-54991000D03*
X138557000Y-50292000D03*
X149860000Y-59309000D03*
X129603000Y-64516000D03*
X133604000Y-77470000D03*
X128905000Y-76835000D03*
%TO.N,/IO0*%
X142209853Y-79362080D03*
%TO.N,/IO1*%
X143129000Y-79756000D03*
%TO.N,/IO2_SS*%
X144272000Y-79375000D03*
%TO.N,/IO3_MOSI*%
X141605000Y-76454000D03*
%TO.N,/IO4_MISO*%
X140514000Y-65013697D03*
%TO.N,/IO5_SCK*%
X139700000Y-64389000D03*
%TO.N,/IO6*%
X138938000Y-65151000D03*
X156591000Y-56769000D03*
X149352000Y-46607000D03*
%TO.N,/IO7*%
X143383000Y-75078846D03*
X151130000Y-57023000D03*
%TO.N,/IO8_I2C_SCL*%
X148971000Y-71501000D03*
X144182000Y-71374000D03*
%TO.N,/IO9_I2C_SDA*%
X149696000Y-70612000D03*
X143384283Y-70770963D03*
%TO.N,/IO10_UART_RX*%
X142732000Y-69850000D03*
X150622000Y-70231000D03*
%TO.N,/IO11_UART_TX*%
X142007000Y-69073822D03*
%TO.N,/IO12*%
X143002000Y-65278000D03*
X162687000Y-62992000D03*
X156337000Y-60071000D03*
X142875000Y-59182000D03*
%TO.N,/IO13*%
X157480000Y-65151000D03*
X148844000Y-66421000D03*
%TO.N,/IO14*%
X142494000Y-75803846D03*
X148086653Y-79243347D03*
X141057370Y-68760439D03*
X141859000Y-60706000D03*
X142205000Y-64643000D03*
%TO.N,/IO15*%
X138493669Y-67977000D03*
X148209000Y-80391000D03*
X145669000Y-77851000D03*
%TO.N,/RESET*%
X148807000Y-76581000D03*
%TD*%
D16*
%TO.N,GND*%
X148844000Y-64008000D02*
X148806000Y-63970000D01*
X148806000Y-63246000D02*
X149314000Y-63754000D01*
X148806000Y-58458000D02*
X149098000Y-58166000D01*
X148806000Y-63246000D02*
X148806000Y-58458000D01*
X148806000Y-63970000D02*
X148806000Y-63246000D01*
X149314000Y-63754000D02*
X151257000Y-63754000D01*
D17*
%TO.N,Net-(U1-UCAP)*%
X142615335Y-81582005D02*
X142161005Y-81582005D01*
X142161005Y-81582005D02*
X140589000Y-80010000D01*
D16*
%TO.N,/USB_VBUS*%
X138360000Y-82042000D02*
X135845000Y-84557000D01*
X132563000Y-81255000D02*
X132543000Y-81255000D01*
X141351000Y-82042000D02*
X138360000Y-82042000D01*
X137541000Y-86233000D02*
X132563000Y-81255000D01*
D17*
%TO.N,/IO0*%
X148082000Y-59055000D02*
X148082000Y-78117097D01*
X142209853Y-79979853D02*
X142209853Y-79362080D01*
X142813105Y-80583105D02*
X142209853Y-79979853D01*
X148082000Y-78117097D02*
X145615992Y-80583105D01*
X145615992Y-80583105D02*
X142813105Y-80583105D01*
X148082000Y-58101000D02*
X148082000Y-59055000D01*
X154686000Y-51497000D02*
X148082000Y-58101000D01*
%TO.N,/IO1*%
X147320000Y-56323000D02*
X147320000Y-56515000D01*
X147320000Y-56515000D02*
X147320000Y-78242701D01*
X145462701Y-80100000D02*
X143473000Y-80100000D01*
X147320000Y-78242701D02*
X145462701Y-80100000D01*
X143473000Y-80100000D02*
X143129000Y-79756000D01*
X152146000Y-51497000D02*
X147320000Y-56323000D01*
%TO.N,/IO2_SS*%
X149606000Y-51497000D02*
X146558000Y-54545000D01*
X146558000Y-54545000D02*
X146558000Y-54991000D01*
X146558000Y-78368305D02*
X145551305Y-79375000D01*
X146558000Y-54991000D02*
X146558000Y-78368305D01*
X145551305Y-79375000D02*
X144272000Y-79375000D01*
%TO.N,/IO3_MOSI*%
X171482000Y-57128701D02*
X171482000Y-55277000D01*
X145796000Y-54610000D02*
X147066000Y-53340000D01*
X144662305Y-76581000D02*
X145796000Y-75447305D01*
X162047000Y-56403000D02*
X163651000Y-58007000D01*
X163651000Y-58007000D02*
X170603701Y-58007000D01*
X145796000Y-75447305D02*
X145796000Y-54610000D01*
X170603701Y-58007000D02*
X171482000Y-57128701D01*
X141732000Y-76581000D02*
X144662305Y-76581000D01*
X141605000Y-76454000D02*
X141732000Y-76581000D01*
X171482000Y-55277000D02*
X170307000Y-54102000D01*
X147066000Y-53340000D02*
X147066000Y-51497000D01*
%TO.N,/IO4_MISO*%
X159507000Y-53863000D02*
X160872000Y-55228000D01*
X140716000Y-64811697D02*
X140716000Y-51105299D01*
X153511000Y-50132000D02*
X154686000Y-48957000D01*
X148241000Y-48470299D02*
X148241000Y-49308000D01*
X147552701Y-47782000D02*
X148241000Y-48470299D01*
X154686000Y-48957000D02*
X159507000Y-53778000D01*
X168893000Y-55228000D02*
X170307000Y-56642000D01*
X160872000Y-55228000D02*
X168893000Y-55228000D01*
X159507000Y-53778000D02*
X159507000Y-53863000D01*
X148241000Y-49308000D02*
X149065000Y-50132000D01*
X149065000Y-50132000D02*
X153511000Y-50132000D01*
X144039299Y-47782000D02*
X147552701Y-47782000D01*
X140514000Y-65013697D02*
X140716000Y-64811697D01*
X140716000Y-51105299D02*
X144039299Y-47782000D01*
%TO.N,/IO5_SCK*%
X163947701Y-59182000D02*
X162423701Y-57658000D01*
X139700000Y-64389000D02*
X139883948Y-64205052D01*
X162423701Y-57658000D02*
X160762000Y-57658000D01*
X160762000Y-57658000D02*
X159507000Y-56403000D01*
X139883948Y-64205052D02*
X139883948Y-51300955D01*
X159507000Y-56403000D02*
X159507000Y-56891000D01*
X170307000Y-59182000D02*
X163947701Y-59182000D01*
X150521000Y-47332000D02*
X152146000Y-48957000D01*
X139883948Y-51300955D02*
X143852903Y-47332000D01*
X143852903Y-47332000D02*
X150521000Y-47332000D01*
%TO.N,/IO6*%
X160872000Y-58510000D02*
X160872000Y-59429701D01*
X157400000Y-57578000D02*
X159940000Y-57578000D01*
X143941507Y-46607000D02*
X149352000Y-46607000D01*
X160872000Y-59429701D02*
X163164299Y-61722000D01*
X138938000Y-51610507D02*
X143941507Y-46607000D01*
X156591000Y-56769000D02*
X157400000Y-57578000D01*
X159940000Y-57578000D02*
X160872000Y-58510000D01*
X138938000Y-65151000D02*
X138938000Y-51610507D01*
X163164299Y-61722000D02*
X170307000Y-61722000D01*
%TO.N,/IO7*%
X145891000Y-50132000D02*
X147066000Y-48957000D01*
X144907000Y-54862604D02*
X145891000Y-53878604D01*
X145891000Y-53878604D02*
X145891000Y-50132000D01*
X170307000Y-64262000D02*
X158369000Y-64262000D01*
X158369000Y-64262000D02*
X151130000Y-57023000D01*
X143383000Y-75078846D02*
X144907000Y-73554846D01*
X144907000Y-73554846D02*
X144907000Y-54862604D01*
%TO.N,/IO8_I2C_SCL*%
X142330000Y-65876000D02*
X138637695Y-65876000D01*
X144182000Y-67728000D02*
X142330000Y-65876000D01*
X150241000Y-66802000D02*
X148971000Y-68072000D01*
X170307000Y-66802000D02*
X150241000Y-66802000D01*
X131826000Y-59064305D02*
X131826000Y-51497000D01*
X144182000Y-71374000D02*
X144182000Y-67728000D01*
X148971000Y-68072000D02*
X148971000Y-71501000D01*
X138637695Y-65876000D02*
X131826000Y-59064305D01*
%TO.N,/IO9_I2C_SDA*%
X149696000Y-69887000D02*
X149696000Y-70612000D01*
X143384283Y-70770963D02*
X143457000Y-70698246D01*
X150241000Y-69342000D02*
X149696000Y-69887000D01*
X143457000Y-67639396D02*
X142143604Y-66326000D01*
X143457000Y-70698246D02*
X143457000Y-67639396D01*
X138451299Y-66326000D02*
X129286000Y-57160701D01*
X142143604Y-66326000D02*
X138451299Y-66326000D01*
X129286000Y-57160701D02*
X129286000Y-51497000D01*
X170307000Y-69342000D02*
X150241000Y-69342000D01*
%TO.N,/IO10_UART_RX*%
X126746000Y-55257097D02*
X126746000Y-51497000D01*
X142732000Y-68056000D02*
X141478000Y-66802000D01*
X151061000Y-69792000D02*
X150622000Y-70231000D01*
X142732000Y-69850000D02*
X142732000Y-68056000D01*
X168217000Y-69792000D02*
X151061000Y-69792000D01*
X138290903Y-66802000D02*
X126746000Y-55257097D01*
X141478000Y-66802000D02*
X138290903Y-66802000D01*
X170307000Y-71882000D02*
X168217000Y-69792000D01*
%TO.N,/IO11_UART_TX*%
X138104507Y-67252000D02*
X124206000Y-53353493D01*
X142007000Y-69073822D02*
X142007000Y-67967396D01*
X141291604Y-67252000D02*
X138104507Y-67252000D01*
X142007000Y-67967396D02*
X141291604Y-67252000D01*
X124206000Y-53353493D02*
X124206000Y-51497000D01*
%TO.N,/IO12*%
X142875000Y-59182000D02*
X143002000Y-59309000D01*
X143002000Y-59309000D02*
X143002000Y-65278000D01*
X162687000Y-62992000D02*
X159258000Y-62992000D01*
X159258000Y-62992000D02*
X156337000Y-60071000D01*
%TO.N,/IO13*%
X157480000Y-65151000D02*
X150114000Y-65151000D01*
X150114000Y-65151000D02*
X148844000Y-66421000D01*
%TO.N,/IO14*%
X141057370Y-69516418D02*
X142494000Y-70953048D01*
X150885306Y-82042000D02*
X170307000Y-82042000D01*
X142494000Y-70953048D02*
X142494000Y-75803846D01*
X141057370Y-68760439D02*
X141057370Y-69516418D01*
X141859000Y-60706000D02*
X141859000Y-64297000D01*
X141859000Y-64297000D02*
X142205000Y-64643000D01*
X148086653Y-79243347D02*
X150885306Y-82042000D01*
%TO.N,/IO15*%
X140880000Y-75050305D02*
X140880000Y-76872000D01*
X138493669Y-67977000D02*
X141732000Y-71215331D01*
X141859000Y-77851000D02*
X145669000Y-77851000D01*
X140880000Y-76872000D02*
X141859000Y-77851000D01*
X152400000Y-84582000D02*
X170307000Y-84582000D01*
X141732000Y-74198305D02*
X140880000Y-75050305D01*
X141732000Y-71215331D02*
X141732000Y-74198305D01*
X148209000Y-80391000D02*
X152400000Y-84582000D01*
%TO.N,/RESET*%
X171482000Y-63775299D02*
X171482000Y-80105000D01*
X170815000Y-80772000D02*
X152998000Y-80772000D01*
X159663305Y-58943000D02*
X163712305Y-62992000D01*
X159507000Y-58943000D02*
X159663305Y-58943000D01*
X152998000Y-80772000D02*
X148807000Y-76581000D01*
X170698701Y-62992000D02*
X171482000Y-63775299D01*
X163712305Y-62992000D02*
X170698701Y-62992000D01*
X171482000Y-80105000D02*
X170815000Y-80772000D01*
%TD*%
%TA.AperFunction,Conductor*%
%TO.N,+3V3*%
G36*
X143268425Y-49539976D02*
G01*
X143324358Y-49581848D01*
X143337473Y-49603752D01*
X143351966Y-49634832D01*
X143397481Y-49699834D01*
X143487501Y-49828396D01*
X143487506Y-49828402D01*
X143609430Y-49950326D01*
X143642915Y-50011649D01*
X143637931Y-50081341D01*
X143596059Y-50137274D01*
X143565083Y-50154189D01*
X143433669Y-50203203D01*
X143433664Y-50203206D01*
X143318455Y-50289452D01*
X143318452Y-50289455D01*
X143232206Y-50404664D01*
X143232202Y-50404671D01*
X143181908Y-50539517D01*
X143175501Y-50599116D01*
X143175500Y-50599135D01*
X143175500Y-52394870D01*
X143175501Y-52394876D01*
X143181908Y-52454483D01*
X143232202Y-52589328D01*
X143232206Y-52589335D01*
X143318452Y-52704544D01*
X143318455Y-52704547D01*
X143433664Y-52790793D01*
X143433671Y-52790797D01*
X143568517Y-52841091D01*
X143568516Y-52841091D01*
X143575444Y-52841835D01*
X143628127Y-52847500D01*
X145141500Y-52847499D01*
X145208539Y-52867184D01*
X145254294Y-52919987D01*
X145265500Y-52971499D01*
X145265500Y-53568150D01*
X145245815Y-53635189D01*
X145229181Y-53655831D01*
X144523208Y-54361803D01*
X144510951Y-54371624D01*
X144511134Y-54371845D01*
X144505122Y-54376818D01*
X144459098Y-54425827D01*
X144456391Y-54428620D01*
X144436889Y-54448121D01*
X144436875Y-54448138D01*
X144434407Y-54451319D01*
X144426843Y-54460174D01*
X144396937Y-54492022D01*
X144396936Y-54492024D01*
X144387284Y-54509580D01*
X144376610Y-54525830D01*
X144364329Y-54541665D01*
X144364324Y-54541672D01*
X144346975Y-54581762D01*
X144341838Y-54592248D01*
X144320803Y-54630510D01*
X144315822Y-54649911D01*
X144309521Y-54668314D01*
X144301562Y-54686706D01*
X144301561Y-54686709D01*
X144294728Y-54729847D01*
X144292360Y-54741278D01*
X144281501Y-54783575D01*
X144281500Y-54783586D01*
X144281500Y-54803620D01*
X144279973Y-54823019D01*
X144276840Y-54842798D01*
X144276840Y-54842799D01*
X144280950Y-54886278D01*
X144281500Y-54897947D01*
X144281500Y-66643547D01*
X144261815Y-66710586D01*
X144209011Y-66756341D01*
X144139853Y-66766285D01*
X144076297Y-66737260D01*
X144069819Y-66731228D01*
X143526122Y-66187531D01*
X143492637Y-66126208D01*
X143497621Y-66056516D01*
X143539493Y-66000583D01*
X143540918Y-65999532D01*
X143561646Y-65984472D01*
X143607871Y-65950888D01*
X143734533Y-65810216D01*
X143829179Y-65646284D01*
X143887674Y-65466256D01*
X143907460Y-65278000D01*
X143887674Y-65089744D01*
X143829179Y-64909716D01*
X143734533Y-64745784D01*
X143685571Y-64691406D01*
X143659350Y-64662284D01*
X143629120Y-64599292D01*
X143627500Y-64579312D01*
X143627500Y-59712857D01*
X143644113Y-59650857D01*
X143647112Y-59645663D01*
X143702179Y-59550284D01*
X143760674Y-59370256D01*
X143780460Y-59182000D01*
X143760674Y-58993744D01*
X143702179Y-58813716D01*
X143607533Y-58649784D01*
X143480871Y-58509112D01*
X143480870Y-58509111D01*
X143327734Y-58397851D01*
X143327729Y-58397848D01*
X143154807Y-58320857D01*
X143154802Y-58320855D01*
X143009001Y-58289865D01*
X142969646Y-58281500D01*
X142780354Y-58281500D01*
X142747897Y-58288398D01*
X142595197Y-58320855D01*
X142595192Y-58320857D01*
X142422270Y-58397848D01*
X142422265Y-58397851D01*
X142269129Y-58509111D01*
X142142466Y-58649785D01*
X142047821Y-58813715D01*
X142047818Y-58813722D01*
X141989327Y-58993740D01*
X141989326Y-58993744D01*
X141969540Y-59182000D01*
X141989326Y-59370256D01*
X141989327Y-59370259D01*
X142047818Y-59550277D01*
X142047820Y-59550282D01*
X142047821Y-59550284D01*
X142056772Y-59565788D01*
X142089702Y-59622825D01*
X142106173Y-59690726D01*
X142083321Y-59756752D01*
X142028399Y-59799942D01*
X141958845Y-59806583D01*
X141956609Y-59806129D01*
X141953646Y-59805500D01*
X141764354Y-59805500D01*
X141747761Y-59809027D01*
X141579197Y-59844855D01*
X141515935Y-59873022D01*
X141446685Y-59882306D01*
X141383409Y-59852678D01*
X141346196Y-59793543D01*
X141341500Y-59759742D01*
X141341500Y-51415750D01*
X141361185Y-51348711D01*
X141377814Y-51328074D01*
X143137412Y-49568475D01*
X143198733Y-49534992D01*
X143268425Y-49539976D01*
G37*
%TD.AperFunction*%
%TA.AperFunction,Conductor*%
G36*
X150154612Y-57015490D02*
G01*
X150210545Y-57057362D01*
X150234599Y-57118709D01*
X150236493Y-57136731D01*
X150244326Y-57211256D01*
X150244327Y-57211259D01*
X150302818Y-57391277D01*
X150302821Y-57391284D01*
X150397467Y-57555216D01*
X150468214Y-57633788D01*
X150524129Y-57695888D01*
X150677265Y-57807148D01*
X150677270Y-57807151D01*
X150850192Y-57884142D01*
X150850197Y-57884144D01*
X151035354Y-57923500D01*
X151094548Y-57923500D01*
X151161587Y-57943185D01*
X151182229Y-57959819D01*
X157296072Y-64073663D01*
X157329557Y-64134986D01*
X157324573Y-64204678D01*
X157282701Y-64260611D01*
X157234173Y-64282634D01*
X157200196Y-64289856D01*
X157200192Y-64289857D01*
X157027270Y-64366848D01*
X157027265Y-64366851D01*
X156874130Y-64478110D01*
X156874126Y-64478114D01*
X156868400Y-64484474D01*
X156808913Y-64521121D01*
X156776252Y-64525500D01*
X152052589Y-64525500D01*
X151985550Y-64505815D01*
X151939795Y-64453011D01*
X151929851Y-64383853D01*
X151958876Y-64320297D01*
X151960439Y-64318528D01*
X151989533Y-64286216D01*
X152084179Y-64122284D01*
X152142674Y-63942256D01*
X152162460Y-63754000D01*
X152142674Y-63565744D01*
X152084179Y-63385716D01*
X151989533Y-63221784D01*
X151862871Y-63081112D01*
X151862870Y-63081111D01*
X151709734Y-62969851D01*
X151709729Y-62969848D01*
X151536807Y-62892857D01*
X151536802Y-62892855D01*
X151391001Y-62861865D01*
X151351646Y-62853500D01*
X151162354Y-62853500D01*
X151129897Y-62860398D01*
X150977197Y-62892855D01*
X150977192Y-62892857D01*
X150804270Y-62969848D01*
X150804265Y-62969851D01*
X150721729Y-63029818D01*
X150655923Y-63053298D01*
X150648844Y-63053500D01*
X149655519Y-63053500D01*
X149588480Y-63033815D01*
X149567836Y-63017179D01*
X149542817Y-62992159D01*
X149509333Y-62930836D01*
X149506500Y-62904480D01*
X149506500Y-59045467D01*
X149526185Y-58978428D01*
X149557615Y-58945149D01*
X149592210Y-58920013D01*
X149703871Y-58838888D01*
X149830533Y-58698216D01*
X149925179Y-58534284D01*
X149983674Y-58354256D01*
X150003460Y-58166000D01*
X149983674Y-57977744D01*
X149925179Y-57797716D01*
X149830533Y-57633784D01*
X149721298Y-57512467D01*
X149691071Y-57449480D01*
X149699696Y-57380145D01*
X149725767Y-57341821D01*
X150023599Y-57043989D01*
X150084920Y-57010506D01*
X150154612Y-57015490D01*
G37*
%TD.AperFunction*%
%TA.AperFunction,Conductor*%
G36*
X174059539Y-44470185D02*
G01*
X174105294Y-44522989D01*
X174116500Y-44574500D01*
X174116500Y-91442500D01*
X174096815Y-91509539D01*
X174044011Y-91555294D01*
X173992500Y-91566500D01*
X143206991Y-91566500D01*
X143139952Y-91546815D01*
X143094197Y-91494011D01*
X143084253Y-91424853D01*
X143113278Y-91361297D01*
X143128327Y-91346646D01*
X143129424Y-91345745D01*
X143241647Y-91253647D01*
X143369798Y-91097494D01*
X143456169Y-90935905D01*
X143465021Y-90919345D01*
X143465021Y-90919344D01*
X143465023Y-90919341D01*
X143523662Y-90726033D01*
X143538500Y-90575380D01*
X143538500Y-89624620D01*
X143523662Y-89473967D01*
X143465023Y-89280659D01*
X143465021Y-89280656D01*
X143465021Y-89280654D01*
X143369801Y-89102511D01*
X143369799Y-89102509D01*
X143369798Y-89102506D01*
X143330824Y-89055016D01*
X143241647Y-88946352D01*
X143085495Y-88818203D01*
X143085488Y-88818198D01*
X142907345Y-88722978D01*
X142714031Y-88664337D01*
X142513000Y-88644538D01*
X142311968Y-88664337D01*
X142118654Y-88722978D01*
X141940511Y-88818198D01*
X141940504Y-88818203D01*
X141784352Y-88946352D01*
X141656203Y-89102504D01*
X141656198Y-89102511D01*
X141560978Y-89280654D01*
X141502337Y-89473968D01*
X141487500Y-89624623D01*
X141487500Y-90575376D01*
X141502337Y-90726031D01*
X141560978Y-90919345D01*
X141656198Y-91097488D01*
X141656203Y-91097495D01*
X141784352Y-91253646D01*
X141897673Y-91346646D01*
X141937008Y-91404392D01*
X141938879Y-91474237D01*
X141902692Y-91534005D01*
X141839936Y-91564721D01*
X141819009Y-91566500D01*
X136056991Y-91566500D01*
X135989952Y-91546815D01*
X135944197Y-91494011D01*
X135934253Y-91424853D01*
X135963278Y-91361297D01*
X135978327Y-91346646D01*
X135979424Y-91345745D01*
X136091647Y-91253647D01*
X136219798Y-91097494D01*
X136306169Y-90935905D01*
X136315021Y-90919345D01*
X136315021Y-90919344D01*
X136315023Y-90919341D01*
X136373662Y-90726033D01*
X136388500Y-90575380D01*
X136388500Y-89624620D01*
X136373662Y-89473967D01*
X136315023Y-89280659D01*
X136315021Y-89280656D01*
X136315021Y-89280654D01*
X136219801Y-89102511D01*
X136219799Y-89102509D01*
X136219798Y-89102506D01*
X136180824Y-89055016D01*
X136091647Y-88946352D01*
X135935495Y-88818203D01*
X135935488Y-88818198D01*
X135757345Y-88722978D01*
X135564031Y-88664337D01*
X135363000Y-88644538D01*
X135161968Y-88664337D01*
X134968654Y-88722978D01*
X134790511Y-88818198D01*
X134790504Y-88818203D01*
X134634352Y-88946352D01*
X134506203Y-89102504D01*
X134506198Y-89102511D01*
X134410978Y-89280654D01*
X134352337Y-89473968D01*
X134337500Y-89624623D01*
X134337500Y-90575376D01*
X134352337Y-90726031D01*
X134410978Y-90919345D01*
X134506198Y-91097488D01*
X134506203Y-91097495D01*
X134634352Y-91253646D01*
X134747673Y-91346646D01*
X134787008Y-91404392D01*
X134788879Y-91474237D01*
X134752692Y-91534005D01*
X134689936Y-91564721D01*
X134669009Y-91566500D01*
X115948500Y-91566500D01*
X115881461Y-91546815D01*
X115835706Y-91494011D01*
X115824500Y-91442500D01*
X115824500Y-61722000D01*
X118257474Y-61722000D01*
X118277547Y-61977064D01*
X118277547Y-61977067D01*
X118277548Y-61977070D01*
X118327628Y-62185664D01*
X118337279Y-62225864D01*
X118435188Y-62462239D01*
X118435190Y-62462242D01*
X118568875Y-62680396D01*
X118568878Y-62680401D01*
X118637871Y-62761181D01*
X118735044Y-62874956D01*
X118829751Y-62955843D01*
X118929598Y-63041121D01*
X118929600Y-63041122D01*
X118929601Y-63041123D01*
X118994856Y-63081111D01*
X119147757Y-63174809D01*
X119147760Y-63174811D01*
X119384135Y-63272720D01*
X119384140Y-63272722D01*
X119632930Y-63332452D01*
X119888000Y-63352526D01*
X120143070Y-63332452D01*
X120391860Y-63272722D01*
X120514835Y-63221784D01*
X120628239Y-63174811D01*
X120628240Y-63174810D01*
X120628243Y-63174809D01*
X120846399Y-63041123D01*
X121040956Y-62874956D01*
X121207123Y-62680399D01*
X121340809Y-62462243D01*
X121438722Y-62225860D01*
X121498452Y-61977070D01*
X121518526Y-61722000D01*
X123337474Y-61722000D01*
X123357547Y-61977064D01*
X123357547Y-61977067D01*
X123357548Y-61977070D01*
X123407628Y-62185664D01*
X123417279Y-62225864D01*
X123515188Y-62462239D01*
X123515190Y-62462242D01*
X123648875Y-62680396D01*
X123648878Y-62680401D01*
X123717871Y-62761181D01*
X123815044Y-62874956D01*
X123909751Y-62955843D01*
X124009598Y-63041121D01*
X124009600Y-63041122D01*
X124009601Y-63041123D01*
X124074856Y-63081111D01*
X124227757Y-63174809D01*
X124227760Y-63174811D01*
X124464135Y-63272720D01*
X124464140Y-63272722D01*
X124712930Y-63332452D01*
X124968000Y-63352526D01*
X125223070Y-63332452D01*
X125471860Y-63272722D01*
X125594835Y-63221784D01*
X125708239Y-63174811D01*
X125708240Y-63174810D01*
X125708243Y-63174809D01*
X125926399Y-63041123D01*
X126120956Y-62874956D01*
X126287123Y-62680399D01*
X126420809Y-62462243D01*
X126518722Y-62225860D01*
X126578452Y-61977070D01*
X126598526Y-61722000D01*
X126578452Y-61466930D01*
X126518722Y-61218140D01*
X126478841Y-61121858D01*
X126420811Y-60981760D01*
X126420809Y-60981757D01*
X126414717Y-60971816D01*
X126287123Y-60763601D01*
X126287122Y-60763600D01*
X126287121Y-60763598D01*
X126227319Y-60693579D01*
X126120956Y-60569044D01*
X125973956Y-60443494D01*
X125926401Y-60402878D01*
X125926396Y-60402875D01*
X125708242Y-60269190D01*
X125708239Y-60269188D01*
X125471864Y-60171279D01*
X125471860Y-60171278D01*
X125223070Y-60111548D01*
X125223067Y-60111547D01*
X125223064Y-60111547D01*
X124968000Y-60091474D01*
X124712935Y-60111547D01*
X124712931Y-60111547D01*
X124712930Y-60111548D01*
X124629725Y-60131524D01*
X124464135Y-60171279D01*
X124227760Y-60269188D01*
X124227757Y-60269190D01*
X124009603Y-60402875D01*
X124009598Y-60402878D01*
X123815044Y-60569044D01*
X123648878Y-60763598D01*
X123648875Y-60763603D01*
X123515190Y-60981757D01*
X123515188Y-60981760D01*
X123417279Y-61218135D01*
X123357547Y-61466935D01*
X123337474Y-61722000D01*
X121518526Y-61722000D01*
X121498452Y-61466930D01*
X121438722Y-61218140D01*
X121398841Y-61121858D01*
X121340811Y-60981760D01*
X121340809Y-60981757D01*
X121334717Y-60971816D01*
X121207123Y-60763601D01*
X121207122Y-60763600D01*
X121207121Y-60763598D01*
X121147319Y-60693579D01*
X121040956Y-60569044D01*
X120893956Y-60443494D01*
X120846401Y-60402878D01*
X120846396Y-60402875D01*
X120628242Y-60269190D01*
X120628239Y-60269188D01*
X120391864Y-60171279D01*
X120391860Y-60171278D01*
X120143070Y-60111548D01*
X120143067Y-60111547D01*
X120143064Y-60111547D01*
X119888000Y-60091474D01*
X119632935Y-60111547D01*
X119632931Y-60111547D01*
X119632930Y-60111548D01*
X119549725Y-60131524D01*
X119384135Y-60171279D01*
X119147760Y-60269188D01*
X119147757Y-60269190D01*
X118929603Y-60402875D01*
X118929598Y-60402878D01*
X118735044Y-60569044D01*
X118568878Y-60763598D01*
X118568875Y-60763603D01*
X118435190Y-60981757D01*
X118435188Y-60981760D01*
X118337279Y-61218135D01*
X118277547Y-61466935D01*
X118257474Y-61722000D01*
X115824500Y-61722000D01*
X115824500Y-59182000D01*
X120873207Y-59182000D01*
X120892348Y-59425219D01*
X120949303Y-59662457D01*
X121042668Y-59887861D01*
X121166504Y-60089941D01*
X121787859Y-59468586D01*
X121847680Y-59582566D01*
X121960405Y-59709806D01*
X122100305Y-59806371D01*
X122141542Y-59822010D01*
X121520057Y-60443494D01*
X121722138Y-60567331D01*
X121947542Y-60660696D01*
X122184780Y-60717651D01*
X122184779Y-60717651D01*
X122428000Y-60736792D01*
X122671219Y-60717651D01*
X122908457Y-60660696D01*
X123133861Y-60567331D01*
X123335941Y-60443495D01*
X123335941Y-60443494D01*
X122714457Y-59822010D01*
X122755695Y-59806371D01*
X122895595Y-59709806D01*
X123008320Y-59582566D01*
X123068140Y-59468587D01*
X123689494Y-60089941D01*
X123689495Y-60089941D01*
X123813331Y-59887861D01*
X123906696Y-59662457D01*
X123963651Y-59425219D01*
X123982792Y-59182000D01*
X123963651Y-58938780D01*
X123906696Y-58701542D01*
X123813331Y-58476138D01*
X123689494Y-58274057D01*
X123068139Y-58895412D01*
X123008320Y-58781434D01*
X122895595Y-58654194D01*
X122755695Y-58557629D01*
X122714457Y-58541989D01*
X123335941Y-57920504D01*
X123133861Y-57796668D01*
X122908457Y-57703303D01*
X122671219Y-57646348D01*
X122671220Y-57646348D01*
X122428000Y-57627207D01*
X122184780Y-57646348D01*
X121947542Y-57703303D01*
X121722138Y-57796668D01*
X121520057Y-57920504D01*
X122141543Y-58541989D01*
X122100305Y-58557629D01*
X121960405Y-58654194D01*
X121847680Y-58781434D01*
X121787859Y-58895412D01*
X121166504Y-58274057D01*
X121042668Y-58476138D01*
X120949303Y-58701542D01*
X120892348Y-58938780D01*
X120873207Y-59182000D01*
X115824500Y-59182000D01*
X115824500Y-56642000D01*
X118257474Y-56642000D01*
X118277547Y-56897064D01*
X118277547Y-56897067D01*
X118277548Y-56897070D01*
X118327628Y-57105664D01*
X118337279Y-57145864D01*
X118435188Y-57382239D01*
X118435190Y-57382242D01*
X118568875Y-57600396D01*
X118568878Y-57600401D01*
X118608121Y-57646348D01*
X118735044Y-57794956D01*
X118839468Y-57884142D01*
X118929598Y-57961121D01*
X118929600Y-57961122D01*
X118929601Y-57961123D01*
X119081422Y-58054159D01*
X119147757Y-58094809D01*
X119147760Y-58094811D01*
X119384135Y-58192720D01*
X119384140Y-58192722D01*
X119632930Y-58252452D01*
X119888000Y-58272526D01*
X120143070Y-58252452D01*
X120391860Y-58192722D01*
X120523918Y-58138022D01*
X120628239Y-58094811D01*
X120628240Y-58094810D01*
X120628243Y-58094809D01*
X120846399Y-57961123D01*
X121040956Y-57794956D01*
X121207123Y-57600399D01*
X121340809Y-57382243D01*
X121365360Y-57322973D01*
X121426771Y-57174712D01*
X121438722Y-57145860D01*
X121498452Y-56897070D01*
X121518526Y-56642000D01*
X121498452Y-56386930D01*
X121438722Y-56138140D01*
X121427224Y-56110382D01*
X121340811Y-55901760D01*
X121340809Y-55901757D01*
X121320429Y-55868500D01*
X121207123Y-55683601D01*
X121207122Y-55683600D01*
X121207121Y-55683598D01*
X121077301Y-55531599D01*
X121040956Y-55489044D01*
X120914942Y-55381418D01*
X120846401Y-55322878D01*
X120846396Y-55322875D01*
X120628242Y-55189190D01*
X120628239Y-55189188D01*
X120391864Y-55091279D01*
X120391860Y-55091278D01*
X120143070Y-55031548D01*
X120143067Y-55031547D01*
X120143064Y-55031547D01*
X119888000Y-55011474D01*
X119632935Y-55031547D01*
X119632931Y-55031547D01*
X119632930Y-55031548D01*
X119508535Y-55061413D01*
X119384135Y-55091279D01*
X119147760Y-55189188D01*
X119147757Y-55189190D01*
X118929603Y-55322875D01*
X118929598Y-55322878D01*
X118735044Y-55489044D01*
X118568878Y-55683598D01*
X118568875Y-55683603D01*
X118435190Y-55901757D01*
X118435188Y-55901760D01*
X118337279Y-56138135D01*
X118277547Y-56386935D01*
X118257474Y-56642000D01*
X115824500Y-56642000D01*
X115824500Y-48957000D01*
X120310341Y-48957000D01*
X120330936Y-49192403D01*
X120330938Y-49192413D01*
X120392094Y-49420655D01*
X120392096Y-49420659D01*
X120392097Y-49420663D01*
X120422407Y-49485663D01*
X120491965Y-49634830D01*
X120491967Y-49634834D01*
X120537481Y-49699834D01*
X120627501Y-49828396D01*
X120627506Y-49828402D01*
X120749430Y-49950326D01*
X120782915Y-50011649D01*
X120777931Y-50081341D01*
X120736059Y-50137274D01*
X120705083Y-50154189D01*
X120573669Y-50203203D01*
X120573664Y-50203206D01*
X120458455Y-50289452D01*
X120458452Y-50289455D01*
X120372206Y-50404664D01*
X120372202Y-50404671D01*
X120321908Y-50539517D01*
X120315501Y-50599116D01*
X120315500Y-50599135D01*
X120315500Y-52394870D01*
X120315501Y-52394876D01*
X120321908Y-52454483D01*
X120372202Y-52589328D01*
X120372206Y-52589335D01*
X120458452Y-52704544D01*
X120458455Y-52704547D01*
X120573664Y-52790793D01*
X120573671Y-52790797D01*
X120708517Y-52841091D01*
X120708516Y-52841091D01*
X120715444Y-52841835D01*
X120768127Y-52847500D01*
X122563872Y-52847499D01*
X122623483Y-52841091D01*
X122758331Y-52790796D01*
X122873546Y-52704546D01*
X122959796Y-52589331D01*
X123008810Y-52457916D01*
X123050681Y-52401984D01*
X123116145Y-52377566D01*
X123184418Y-52392417D01*
X123212673Y-52413569D01*
X123334599Y-52535495D01*
X123527624Y-52670653D01*
X123571248Y-52725228D01*
X123580500Y-52772226D01*
X123580500Y-53270748D01*
X123578775Y-53286365D01*
X123579061Y-53286392D01*
X123578326Y-53294158D01*
X123580439Y-53361365D01*
X123580500Y-53365260D01*
X123580500Y-53392850D01*
X123581003Y-53396828D01*
X123581918Y-53408460D01*
X123583290Y-53452117D01*
X123583291Y-53452120D01*
X123588880Y-53471360D01*
X123592824Y-53490404D01*
X123595336Y-53510285D01*
X123611414Y-53550896D01*
X123615197Y-53561945D01*
X123627382Y-53603883D01*
X123636625Y-53619513D01*
X123637580Y-53621127D01*
X123646138Y-53638596D01*
X123653514Y-53657225D01*
X123679181Y-53692553D01*
X123685593Y-53702314D01*
X123707828Y-53739910D01*
X123707833Y-53739917D01*
X123721990Y-53754073D01*
X123734628Y-53768869D01*
X123746405Y-53785079D01*
X123746406Y-53785080D01*
X123780057Y-53812918D01*
X123788697Y-53820780D01*
X124788364Y-54820447D01*
X124821848Y-54881769D01*
X124816864Y-54951461D01*
X124774992Y-55007394D01*
X124717482Y-55029092D01*
X124717751Y-55030784D01*
X124712937Y-55031546D01*
X124464135Y-55091279D01*
X124227760Y-55189188D01*
X124227757Y-55189190D01*
X124009603Y-55322875D01*
X124009598Y-55322878D01*
X123815044Y-55489044D01*
X123648878Y-55683598D01*
X123648875Y-55683603D01*
X123515190Y-55901757D01*
X123515188Y-55901760D01*
X123417279Y-56138135D01*
X123357547Y-56386935D01*
X123337474Y-56642000D01*
X123357547Y-56897064D01*
X123357547Y-56897067D01*
X123357548Y-56897070D01*
X123407628Y-57105664D01*
X123417279Y-57145864D01*
X123515188Y-57382239D01*
X123515190Y-57382242D01*
X123648875Y-57600396D01*
X123648878Y-57600401D01*
X123688121Y-57646348D01*
X123815044Y-57794956D01*
X123919468Y-57884142D01*
X124009598Y-57961121D01*
X124009600Y-57961122D01*
X124009601Y-57961123D01*
X124161422Y-58054159D01*
X124227757Y-58094809D01*
X124227760Y-58094811D01*
X124464135Y-58192720D01*
X124464140Y-58192722D01*
X124712930Y-58252452D01*
X124968000Y-58272526D01*
X125223070Y-58252452D01*
X125471860Y-58192722D01*
X125603918Y-58138022D01*
X125708239Y-58094811D01*
X125708240Y-58094810D01*
X125708243Y-58094809D01*
X125926399Y-57961123D01*
X126120956Y-57794956D01*
X126287123Y-57600399D01*
X126420809Y-57382243D01*
X126445360Y-57322973D01*
X126506771Y-57174712D01*
X126518722Y-57145860D01*
X126578452Y-56897070D01*
X126578452Y-56897064D01*
X126578453Y-56897062D01*
X126579216Y-56892249D01*
X126580958Y-56892525D01*
X126603102Y-56834345D01*
X126659314Y-56792848D01*
X126729038Y-56788330D01*
X126789552Y-56821636D01*
X137590721Y-67622805D01*
X137624206Y-67684128D01*
X137620972Y-67748800D01*
X137607997Y-67788736D01*
X137607995Y-67788743D01*
X137598667Y-67877500D01*
X137588209Y-67977000D01*
X137607995Y-68165256D01*
X137607996Y-68165259D01*
X137666487Y-68345277D01*
X137666490Y-68345284D01*
X137761136Y-68509216D01*
X137855705Y-68614245D01*
X137887798Y-68649888D01*
X138040934Y-68761148D01*
X138040939Y-68761151D01*
X138213861Y-68838142D01*
X138213866Y-68838144D01*
X138399023Y-68877500D01*
X138458217Y-68877500D01*
X138525256Y-68897185D01*
X138545898Y-68913819D01*
X141070181Y-71438102D01*
X141103666Y-71499425D01*
X141106500Y-71525783D01*
X141106500Y-73887851D01*
X141086815Y-73954890D01*
X141070181Y-73975532D01*
X140496208Y-74549504D01*
X140483951Y-74559325D01*
X140484134Y-74559546D01*
X140478122Y-74564519D01*
X140432098Y-74613528D01*
X140429391Y-74616321D01*
X140409889Y-74635822D01*
X140409875Y-74635839D01*
X140407407Y-74639020D01*
X140399843Y-74647875D01*
X140369937Y-74679723D01*
X140369936Y-74679725D01*
X140360284Y-74697281D01*
X140349610Y-74713531D01*
X140337329Y-74729366D01*
X140337324Y-74729373D01*
X140319975Y-74769463D01*
X140314838Y-74779949D01*
X140293803Y-74818211D01*
X140288822Y-74837612D01*
X140282521Y-74856015D01*
X140274562Y-74874407D01*
X140274561Y-74874410D01*
X140267728Y-74917548D01*
X140265360Y-74928979D01*
X140254501Y-74971276D01*
X140254500Y-74971287D01*
X140254500Y-74991321D01*
X140252973Y-75010720D01*
X140249840Y-75030499D01*
X140249840Y-75030500D01*
X140253950Y-75073979D01*
X140254500Y-75085648D01*
X140254500Y-76789255D01*
X140252775Y-76804872D01*
X140253061Y-76804899D01*
X140252326Y-76812665D01*
X140254439Y-76879872D01*
X140254500Y-76883767D01*
X140254500Y-76911357D01*
X140255003Y-76915335D01*
X140255918Y-76926967D01*
X140257290Y-76970624D01*
X140257291Y-76970627D01*
X140262880Y-76989867D01*
X140266824Y-77008911D01*
X140269336Y-77028792D01*
X140285414Y-77069403D01*
X140289197Y-77080452D01*
X140301381Y-77122388D01*
X140311580Y-77139634D01*
X140320138Y-77157103D01*
X140327514Y-77175732D01*
X140353181Y-77211060D01*
X140359593Y-77220821D01*
X140381828Y-77258417D01*
X140381833Y-77258424D01*
X140395990Y-77272580D01*
X140408628Y-77287376D01*
X140420405Y-77303586D01*
X140420406Y-77303587D01*
X140454057Y-77331425D01*
X140462698Y-77339288D01*
X141358197Y-78234788D01*
X141368022Y-78247051D01*
X141368243Y-78246869D01*
X141373211Y-78252874D01*
X141422222Y-78298899D01*
X141425021Y-78301612D01*
X141444522Y-78321114D01*
X141444526Y-78321117D01*
X141444529Y-78321120D01*
X141447702Y-78323581D01*
X141456574Y-78331159D01*
X141488418Y-78361062D01*
X141505976Y-78370714D01*
X141522235Y-78381395D01*
X141538064Y-78393673D01*
X141578155Y-78411021D01*
X141588626Y-78416151D01*
X141615886Y-78431137D01*
X141633745Y-78440956D01*
X141633130Y-78442074D01*
X141681935Y-78480152D01*
X141705041Y-78546091D01*
X141688830Y-78614054D01*
X141654092Y-78652784D01*
X141603981Y-78689192D01*
X141477319Y-78829865D01*
X141382674Y-78993795D01*
X141382671Y-78993802D01*
X141332291Y-79148857D01*
X141324179Y-79173824D01*
X141321510Y-79199215D01*
X141294926Y-79263828D01*
X141237628Y-79303812D01*
X141167809Y-79306472D01*
X141125305Y-79286569D01*
X141041734Y-79225851D01*
X141041729Y-79225848D01*
X140868807Y-79148857D01*
X140868802Y-79148855D01*
X140723001Y-79117865D01*
X140683646Y-79109500D01*
X140494354Y-79109500D01*
X140461897Y-79116398D01*
X140309197Y-79148855D01*
X140309192Y-79148857D01*
X140136270Y-79225848D01*
X140136265Y-79225851D01*
X139983129Y-79337111D01*
X139856466Y-79477785D01*
X139761821Y-79641715D01*
X139761818Y-79641722D01*
X139718331Y-79775563D01*
X139703326Y-79821744D01*
X139683540Y-80010000D01*
X139703326Y-80198256D01*
X139703327Y-80198259D01*
X139761818Y-80378277D01*
X139761821Y-80378284D01*
X139856467Y-80542216D01*
X139913724Y-80605806D01*
X139983129Y-80682888D01*
X140136265Y-80794148D01*
X140136270Y-80794151D01*
X140309192Y-80871142D01*
X140309197Y-80871144D01*
X140494354Y-80910500D01*
X140553548Y-80910500D01*
X140620587Y-80930185D01*
X140641229Y-80946819D01*
X140824229Y-81129819D01*
X140857714Y-81191142D01*
X140852730Y-81260834D01*
X140810858Y-81316767D01*
X140745394Y-81341184D01*
X140736548Y-81341500D01*
X138384910Y-81341500D01*
X138377423Y-81341274D01*
X138317396Y-81337643D01*
X138317389Y-81337643D01*
X138258243Y-81348481D01*
X138250843Y-81349608D01*
X138191125Y-81356860D01*
X138181642Y-81360456D01*
X138160038Y-81366478D01*
X138158535Y-81366754D01*
X138150065Y-81368306D01*
X138095229Y-81392986D01*
X138088313Y-81395851D01*
X138071679Y-81402160D01*
X138032070Y-81417182D01*
X138032068Y-81417183D01*
X138032066Y-81417184D01*
X138032061Y-81417186D01*
X138023722Y-81422942D01*
X138004190Y-81433959D01*
X137994946Y-81438120D01*
X137947597Y-81475214D01*
X137941569Y-81479649D01*
X137892068Y-81513819D01*
X137852183Y-81558838D01*
X137847051Y-81564290D01*
X135942680Y-83468661D01*
X135881357Y-83502146D01*
X135811665Y-83497162D01*
X135767318Y-83468661D01*
X133467154Y-81168497D01*
X133433669Y-81107174D01*
X133431516Y-81093792D01*
X133428674Y-81066744D01*
X133370179Y-80886716D01*
X133275533Y-80722784D01*
X133148871Y-80582112D01*
X133148870Y-80582111D01*
X132995734Y-80470851D01*
X132995729Y-80470848D01*
X132822807Y-80393857D01*
X132822802Y-80393855D01*
X132677001Y-80362865D01*
X132637646Y-80354500D01*
X132448354Y-80354500D01*
X132415897Y-80361398D01*
X132263197Y-80393855D01*
X132263192Y-80393857D01*
X132090270Y-80470848D01*
X132090265Y-80470851D01*
X131937129Y-80582111D01*
X131810466Y-80722785D01*
X131715821Y-80886715D01*
X131715818Y-80886722D01*
X131665138Y-81042700D01*
X131657326Y-81066744D01*
X131637540Y-81255000D01*
X131657326Y-81443256D01*
X131657327Y-81443259D01*
X131715818Y-81623277D01*
X131715821Y-81623284D01*
X131810467Y-81787216D01*
X131937129Y-81927888D01*
X132090265Y-82039148D01*
X132090270Y-82039151D01*
X132263192Y-82116142D01*
X132263193Y-82116142D01*
X132263197Y-82116144D01*
X132443525Y-82154473D01*
X132505006Y-82187665D01*
X132505425Y-82188082D01*
X135248308Y-84930965D01*
X135266743Y-84954495D01*
X135284504Y-84983874D01*
X135289528Y-84992185D01*
X135409815Y-85112472D01*
X135447504Y-85135255D01*
X135471034Y-85153691D01*
X136614495Y-86297152D01*
X136647980Y-86358475D01*
X136650134Y-86371869D01*
X136655325Y-86421249D01*
X136655327Y-86421260D01*
X136713818Y-86601277D01*
X136713821Y-86601284D01*
X136808467Y-86765216D01*
X136904615Y-86871999D01*
X136935129Y-86905888D01*
X137088265Y-87017148D01*
X137088270Y-87017151D01*
X137261192Y-87094142D01*
X137261197Y-87094144D01*
X137446354Y-87133500D01*
X137446355Y-87133500D01*
X137635644Y-87133500D01*
X137635646Y-87133500D01*
X137820803Y-87094144D01*
X137993730Y-87017151D01*
X138146871Y-86905888D01*
X138273533Y-86765216D01*
X138368179Y-86601284D01*
X138426674Y-86421256D01*
X138446460Y-86233000D01*
X138426674Y-86044744D01*
X138368179Y-85864716D01*
X138273533Y-85700784D01*
X138146871Y-85560112D01*
X138146870Y-85560111D01*
X137993734Y-85448851D01*
X137993729Y-85448848D01*
X137820807Y-85371857D01*
X137820802Y-85371855D01*
X137684490Y-85342882D01*
X137665872Y-85338924D01*
X137604391Y-85305733D01*
X137603973Y-85305316D01*
X136933338Y-84634681D01*
X136899853Y-84573358D01*
X136904837Y-84503666D01*
X136933338Y-84459319D01*
X138613838Y-82778819D01*
X138675161Y-82745334D01*
X138701519Y-82742500D01*
X140742844Y-82742500D01*
X140809883Y-82762185D01*
X140815729Y-82766182D01*
X140898265Y-82826148D01*
X140898270Y-82826151D01*
X141071192Y-82903142D01*
X141071197Y-82903144D01*
X141256354Y-82942500D01*
X141256355Y-82942500D01*
X141445644Y-82942500D01*
X141445646Y-82942500D01*
X141630803Y-82903144D01*
X141803730Y-82826151D01*
X141956871Y-82714888D01*
X142083533Y-82574216D01*
X142139437Y-82477386D01*
X142190002Y-82429173D01*
X142258609Y-82415949D01*
X142297259Y-82426109D01*
X142324668Y-82438312D01*
X142335532Y-82443149D01*
X142520689Y-82482505D01*
X142520690Y-82482505D01*
X142709979Y-82482505D01*
X142709981Y-82482505D01*
X142895138Y-82443149D01*
X143068065Y-82366156D01*
X143221206Y-82254893D01*
X143347868Y-82114221D01*
X143442514Y-81950289D01*
X143501009Y-81770261D01*
X143520795Y-81582005D01*
X143501009Y-81393749D01*
X143493591Y-81370921D01*
X143491596Y-81301083D01*
X143527676Y-81241250D01*
X143590377Y-81210421D01*
X143611523Y-81208605D01*
X145533249Y-81208605D01*
X145548869Y-81210329D01*
X145548896Y-81210044D01*
X145556652Y-81210776D01*
X145556659Y-81210778D01*
X145623865Y-81208666D01*
X145627760Y-81208605D01*
X145655338Y-81208605D01*
X145655342Y-81208605D01*
X145659316Y-81208102D01*
X145670955Y-81207185D01*
X145714619Y-81205814D01*
X145733861Y-81200222D01*
X145752904Y-81196279D01*
X145772784Y-81193769D01*
X145813393Y-81177690D01*
X145824436Y-81173908D01*
X145866382Y-81161723D01*
X145883621Y-81151527D01*
X145901095Y-81142967D01*
X145919719Y-81135593D01*
X145919719Y-81135592D01*
X145919724Y-81135591D01*
X145955075Y-81109905D01*
X145964806Y-81103513D01*
X146002412Y-81081275D01*
X146016581Y-81067104D01*
X146031371Y-81054473D01*
X146047579Y-81042699D01*
X146075430Y-81009031D01*
X146083271Y-81000414D01*
X147171030Y-79912655D01*
X147232352Y-79879172D01*
X147302044Y-79884156D01*
X147357977Y-79926028D01*
X147382394Y-79991492D01*
X147376641Y-80038656D01*
X147335920Y-80163983D01*
X147323326Y-80202744D01*
X147303540Y-80391000D01*
X147323326Y-80579256D01*
X147323327Y-80579259D01*
X147381818Y-80759277D01*
X147381821Y-80759284D01*
X147476467Y-80923216D01*
X147553750Y-81009047D01*
X147603129Y-81063888D01*
X147756265Y-81175148D01*
X147756270Y-81175151D01*
X147929192Y-81252142D01*
X147929197Y-81252144D01*
X148114354Y-81291500D01*
X148173548Y-81291500D01*
X148240587Y-81311185D01*
X148261229Y-81327819D01*
X151899197Y-84965788D01*
X151909022Y-84978051D01*
X151909243Y-84977869D01*
X151914211Y-84983874D01*
X151963222Y-85029899D01*
X151966021Y-85032612D01*
X151985522Y-85052114D01*
X151985526Y-85052117D01*
X151985529Y-85052120D01*
X151988702Y-85054581D01*
X151997574Y-85062159D01*
X152029418Y-85092062D01*
X152046976Y-85101714D01*
X152063233Y-85112393D01*
X152079064Y-85124673D01*
X152108803Y-85137542D01*
X152119152Y-85142021D01*
X152129641Y-85147160D01*
X152153457Y-85160252D01*
X152167908Y-85168197D01*
X152180523Y-85171435D01*
X152187305Y-85173177D01*
X152205719Y-85179481D01*
X152224104Y-85187438D01*
X152267261Y-85194273D01*
X152278656Y-85196632D01*
X152320981Y-85207500D01*
X152341016Y-85207500D01*
X152360413Y-85209026D01*
X152380196Y-85212160D01*
X152423675Y-85208050D01*
X152435344Y-85207500D01*
X169031773Y-85207500D01*
X169098812Y-85227185D01*
X169133348Y-85260377D01*
X169268500Y-85453395D01*
X169268505Y-85453401D01*
X169435599Y-85620495D01*
X169550263Y-85700784D01*
X169621594Y-85750730D01*
X169665219Y-85805307D01*
X169672413Y-85874805D01*
X169640890Y-85937160D01*
X169621595Y-85953880D01*
X169435922Y-86083890D01*
X169435920Y-86083891D01*
X169268891Y-86250920D01*
X169268886Y-86250926D01*
X169133400Y-86444420D01*
X169133399Y-86444422D01*
X169033570Y-86658507D01*
X169033567Y-86658513D01*
X168976364Y-86871999D01*
X168976364Y-86872000D01*
X169873314Y-86872000D01*
X169847507Y-86912156D01*
X169807000Y-87050111D01*
X169807000Y-87193889D01*
X169847507Y-87331844D01*
X169873314Y-87372000D01*
X168976364Y-87372000D01*
X169033567Y-87585486D01*
X169033570Y-87585492D01*
X169133399Y-87799578D01*
X169268894Y-87993082D01*
X169435917Y-88160105D01*
X169621595Y-88290119D01*
X169665219Y-88344696D01*
X169672412Y-88414195D01*
X169640890Y-88476549D01*
X169621595Y-88493269D01*
X169435594Y-88623508D01*
X169268505Y-88790597D01*
X169132965Y-88984169D01*
X169132964Y-88984171D01*
X169033098Y-89198335D01*
X169033094Y-89198344D01*
X168971938Y-89426586D01*
X168971936Y-89426596D01*
X168951341Y-89661999D01*
X168951341Y-89662000D01*
X168971936Y-89897403D01*
X168971938Y-89897413D01*
X169033094Y-90125655D01*
X169033096Y-90125659D01*
X169033097Y-90125663D01*
X169132965Y-90339830D01*
X169132967Y-90339834D01*
X169241281Y-90494521D01*
X169268505Y-90533401D01*
X169435599Y-90700495D01*
X169472071Y-90726033D01*
X169629165Y-90836032D01*
X169629167Y-90836033D01*
X169629170Y-90836035D01*
X169843337Y-90935903D01*
X170071592Y-90997063D01*
X170259918Y-91013539D01*
X170306999Y-91017659D01*
X170307000Y-91017659D01*
X170307001Y-91017659D01*
X170346234Y-91014226D01*
X170542408Y-90997063D01*
X170770663Y-90935903D01*
X170984830Y-90836035D01*
X171178401Y-90700495D01*
X171345495Y-90533401D01*
X171481035Y-90339830D01*
X171580903Y-90125663D01*
X171642063Y-89897408D01*
X171662659Y-89662000D01*
X171642063Y-89426592D01*
X171580903Y-89198337D01*
X171481035Y-88984171D01*
X171364824Y-88818203D01*
X171345494Y-88790597D01*
X171178402Y-88623506D01*
X171178401Y-88623505D01*
X170992405Y-88493269D01*
X170948781Y-88438692D01*
X170941588Y-88369193D01*
X170973110Y-88306839D01*
X170992405Y-88290119D01*
X171178082Y-88160105D01*
X171345105Y-87993082D01*
X171480600Y-87799578D01*
X171580429Y-87585492D01*
X171580432Y-87585486D01*
X171637636Y-87372000D01*
X170740686Y-87372000D01*
X170766493Y-87331844D01*
X170807000Y-87193889D01*
X170807000Y-87050111D01*
X170766493Y-86912156D01*
X170740686Y-86872000D01*
X171637636Y-86872000D01*
X171637635Y-86871999D01*
X171580432Y-86658513D01*
X171580429Y-86658507D01*
X171480600Y-86444422D01*
X171480599Y-86444420D01*
X171345113Y-86250926D01*
X171345108Y-86250920D01*
X171178078Y-86083890D01*
X170992405Y-85953879D01*
X170948780Y-85899302D01*
X170941588Y-85829804D01*
X170973110Y-85767449D01*
X170992406Y-85750730D01*
X171063735Y-85700785D01*
X171178401Y-85620495D01*
X171345495Y-85453401D01*
X171481035Y-85259830D01*
X171580903Y-85045663D01*
X171642063Y-84817408D01*
X171662659Y-84582000D01*
X171642063Y-84346592D01*
X171580903Y-84118337D01*
X171481035Y-83904171D01*
X171480652Y-83903623D01*
X171345494Y-83710597D01*
X171178402Y-83543506D01*
X171178396Y-83543501D01*
X170992842Y-83413575D01*
X170949217Y-83358998D01*
X170942023Y-83289500D01*
X170973546Y-83227145D01*
X170992842Y-83210425D01*
X171015026Y-83194891D01*
X171178401Y-83080495D01*
X171345495Y-82913401D01*
X171481035Y-82719830D01*
X171580903Y-82505663D01*
X171642063Y-82277408D01*
X171662659Y-82042000D01*
X171662409Y-82039148D01*
X171654635Y-81950289D01*
X171642063Y-81806592D01*
X171592946Y-81623284D01*
X171580905Y-81578344D01*
X171580904Y-81578343D01*
X171580903Y-81578337D01*
X171481035Y-81364171D01*
X171386843Y-81229651D01*
X171364518Y-81163449D01*
X171381528Y-81095681D01*
X171400735Y-81070854D01*
X171865788Y-80605801D01*
X171878042Y-80595986D01*
X171877859Y-80595764D01*
X171883868Y-80590791D01*
X171883877Y-80590786D01*
X171929949Y-80541722D01*
X171932566Y-80539023D01*
X171952120Y-80519471D01*
X171954576Y-80516303D01*
X171962156Y-80507427D01*
X171992062Y-80475582D01*
X172001713Y-80458024D01*
X172012396Y-80441761D01*
X172024673Y-80425936D01*
X172042021Y-80385844D01*
X172047151Y-80375371D01*
X172068197Y-80337092D01*
X172073180Y-80317680D01*
X172079481Y-80299280D01*
X172087437Y-80280896D01*
X172094270Y-80237748D01*
X172096633Y-80226338D01*
X172107500Y-80184019D01*
X172107500Y-80163983D01*
X172109027Y-80144582D01*
X172112160Y-80124804D01*
X172108050Y-80081324D01*
X172107500Y-80069655D01*
X172107500Y-63858037D01*
X172109224Y-63842423D01*
X172108938Y-63842396D01*
X172109672Y-63834633D01*
X172107561Y-63767443D01*
X172107500Y-63763549D01*
X172107500Y-63735950D01*
X172107500Y-63735949D01*
X172106997Y-63731969D01*
X172106080Y-63720320D01*
X172104709Y-63676672D01*
X172099122Y-63657443D01*
X172095174Y-63638383D01*
X172094936Y-63636500D01*
X172092664Y-63618507D01*
X172092663Y-63618505D01*
X172092663Y-63618503D01*
X172076588Y-63577903D01*
X172072804Y-63566851D01*
X172060618Y-63524908D01*
X172060616Y-63524905D01*
X172050423Y-63507670D01*
X172041861Y-63490193D01*
X172034487Y-63471568D01*
X172008816Y-63436236D01*
X172002405Y-63426476D01*
X171980170Y-63388879D01*
X171980168Y-63388877D01*
X171980165Y-63388873D01*
X171966006Y-63374714D01*
X171953368Y-63359918D01*
X171941594Y-63343712D01*
X171907940Y-63315871D01*
X171899299Y-63308008D01*
X171352472Y-62761181D01*
X171318987Y-62699858D01*
X171323971Y-62630166D01*
X171342690Y-62598046D01*
X171342389Y-62597836D01*
X171344916Y-62594226D01*
X171345179Y-62593776D01*
X171345481Y-62593414D01*
X171345495Y-62593401D01*
X171481035Y-62399830D01*
X171580903Y-62185663D01*
X171642063Y-61957408D01*
X171662659Y-61722000D01*
X171642063Y-61486592D01*
X171580903Y-61258337D01*
X171481035Y-61044171D01*
X171480652Y-61043623D01*
X171345494Y-60850597D01*
X171178402Y-60683506D01*
X171178396Y-60683501D01*
X170992842Y-60553575D01*
X170949217Y-60498998D01*
X170942023Y-60429500D01*
X170973546Y-60367145D01*
X170992842Y-60350425D01*
X171096188Y-60278061D01*
X171178401Y-60220495D01*
X171345495Y-60053401D01*
X171481035Y-59859830D01*
X171580903Y-59645663D01*
X171642063Y-59417408D01*
X171662659Y-59182000D01*
X171642063Y-58946592D01*
X171580903Y-58718337D01*
X171481035Y-58504171D01*
X171481034Y-58504169D01*
X171345496Y-58310599D01*
X171345163Y-58310203D01*
X171345071Y-58309993D01*
X171342390Y-58306164D01*
X171343159Y-58305625D01*
X171317151Y-58246195D01*
X171328190Y-58177203D01*
X171352469Y-58142820D01*
X171865787Y-57629503D01*
X171878042Y-57619687D01*
X171877859Y-57619465D01*
X171883868Y-57614492D01*
X171883877Y-57614487D01*
X171929949Y-57565423D01*
X171932566Y-57562724D01*
X171952120Y-57543172D01*
X171954576Y-57540004D01*
X171962156Y-57531128D01*
X171992062Y-57499283D01*
X172001713Y-57481725D01*
X172012396Y-57465462D01*
X172024673Y-57449637D01*
X172042021Y-57409545D01*
X172047151Y-57399072D01*
X172068197Y-57360793D01*
X172073180Y-57341381D01*
X172079481Y-57322981D01*
X172087437Y-57304597D01*
X172094270Y-57261449D01*
X172096633Y-57250039D01*
X172107500Y-57207720D01*
X172107500Y-57187684D01*
X172109027Y-57168283D01*
X172112160Y-57148505D01*
X172108110Y-57105663D01*
X172108050Y-57105025D01*
X172107500Y-57093356D01*
X172107500Y-55359742D01*
X172109224Y-55344122D01*
X172108939Y-55344096D01*
X172109671Y-55336340D01*
X172109673Y-55336333D01*
X172107561Y-55269126D01*
X172107500Y-55265231D01*
X172107500Y-55237654D01*
X172107500Y-55237650D01*
X172106996Y-55233665D01*
X172106080Y-55222021D01*
X172104709Y-55178373D01*
X172099122Y-55159144D01*
X172095174Y-55140084D01*
X172092663Y-55120204D01*
X172076588Y-55079604D01*
X172072804Y-55068552D01*
X172060618Y-55026609D01*
X172060616Y-55026606D01*
X172050423Y-55009371D01*
X172041861Y-54991894D01*
X172034487Y-54973269D01*
X172021452Y-54955328D01*
X172008811Y-54937930D01*
X172002405Y-54928177D01*
X171980170Y-54890580D01*
X171980168Y-54890578D01*
X171980165Y-54890574D01*
X171966006Y-54876415D01*
X171953368Y-54861619D01*
X171941594Y-54845413D01*
X171938435Y-54842800D01*
X171907940Y-54817572D01*
X171899299Y-54809709D01*
X171647237Y-54557647D01*
X171613752Y-54496324D01*
X171615143Y-54437872D01*
X171642063Y-54337408D01*
X171662659Y-54102000D01*
X171642063Y-53866592D01*
X171585964Y-53657225D01*
X171580905Y-53638344D01*
X171580904Y-53638343D01*
X171580903Y-53638337D01*
X171481035Y-53424171D01*
X171463770Y-53399513D01*
X171345494Y-53230597D01*
X171178402Y-53063506D01*
X171178396Y-53063501D01*
X170992842Y-52933575D01*
X170949217Y-52878998D01*
X170942023Y-52809500D01*
X170973546Y-52747145D01*
X170992842Y-52730425D01*
X171042811Y-52695436D01*
X171178401Y-52600495D01*
X171345495Y-52433401D01*
X171481035Y-52239830D01*
X171580903Y-52025663D01*
X171642063Y-51797408D01*
X171662659Y-51562000D01*
X171659989Y-51531488D01*
X171648294Y-51397814D01*
X171642063Y-51326592D01*
X171593557Y-51145563D01*
X171580905Y-51098344D01*
X171580904Y-51098343D01*
X171580903Y-51098337D01*
X171481035Y-50884171D01*
X171460458Y-50854783D01*
X171345494Y-50690597D01*
X171178402Y-50523506D01*
X171178396Y-50523501D01*
X170992842Y-50393575D01*
X170949217Y-50338998D01*
X170942023Y-50269500D01*
X170973546Y-50207145D01*
X170992842Y-50190425D01*
X171068749Y-50137274D01*
X171178401Y-50060495D01*
X171345495Y-49893401D01*
X171481035Y-49699830D01*
X171580903Y-49485663D01*
X171642063Y-49257408D01*
X171662659Y-49022000D01*
X171642063Y-48786592D01*
X171580903Y-48558337D01*
X171481035Y-48344171D01*
X171460457Y-48314783D01*
X171345496Y-48150600D01*
X171345495Y-48150599D01*
X171223567Y-48028671D01*
X171190084Y-47967351D01*
X171195068Y-47897659D01*
X171236939Y-47841725D01*
X171267915Y-47824810D01*
X171399331Y-47775796D01*
X171514546Y-47689546D01*
X171600796Y-47574331D01*
X171651091Y-47439483D01*
X171657500Y-47379873D01*
X171657499Y-45584128D01*
X171651091Y-45524517D01*
X171600796Y-45389669D01*
X171600795Y-45389668D01*
X171600793Y-45389664D01*
X171514547Y-45274455D01*
X171514544Y-45274452D01*
X171399335Y-45188206D01*
X171399328Y-45188202D01*
X171264482Y-45137908D01*
X171264483Y-45137908D01*
X171204883Y-45131501D01*
X171204881Y-45131500D01*
X171204873Y-45131500D01*
X171204864Y-45131500D01*
X169409129Y-45131500D01*
X169409123Y-45131501D01*
X169349516Y-45137908D01*
X169214671Y-45188202D01*
X169214664Y-45188206D01*
X169099455Y-45274452D01*
X169099452Y-45274455D01*
X169013206Y-45389664D01*
X169013202Y-45389671D01*
X168962908Y-45524517D01*
X168956501Y-45584116D01*
X168956501Y-45584123D01*
X168956500Y-45584135D01*
X168956500Y-47379870D01*
X168956501Y-47379876D01*
X168962908Y-47439483D01*
X169013202Y-47574328D01*
X169013206Y-47574335D01*
X169099452Y-47689544D01*
X169099455Y-47689547D01*
X169214664Y-47775793D01*
X169214671Y-47775797D01*
X169346081Y-47824810D01*
X169402015Y-47866681D01*
X169426432Y-47932145D01*
X169411580Y-48000418D01*
X169390430Y-48028673D01*
X169268503Y-48150600D01*
X169132965Y-48344169D01*
X169132964Y-48344171D01*
X169033098Y-48558335D01*
X169033094Y-48558344D01*
X168971938Y-48786586D01*
X168971936Y-48786596D01*
X168951341Y-49021999D01*
X168951341Y-49022000D01*
X168971936Y-49257403D01*
X168971938Y-49257413D01*
X169033094Y-49485655D01*
X169033096Y-49485659D01*
X169033097Y-49485663D01*
X169088163Y-49603752D01*
X169132965Y-49699830D01*
X169132967Y-49699834D01*
X169268501Y-49893395D01*
X169268506Y-49893402D01*
X169435597Y-50060493D01*
X169435603Y-50060498D01*
X169621158Y-50190425D01*
X169664783Y-50245002D01*
X169671977Y-50314500D01*
X169640454Y-50376855D01*
X169621158Y-50393575D01*
X169435597Y-50523505D01*
X169268505Y-50690597D01*
X169132965Y-50884169D01*
X169132964Y-50884171D01*
X169033098Y-51098335D01*
X169033094Y-51098344D01*
X168971938Y-51326586D01*
X168971936Y-51326596D01*
X168951341Y-51561999D01*
X168951341Y-51562000D01*
X168971936Y-51797403D01*
X168971938Y-51797413D01*
X169033094Y-52025655D01*
X169033096Y-52025659D01*
X169033097Y-52025663D01*
X169097393Y-52163546D01*
X169132965Y-52239830D01*
X169132967Y-52239834D01*
X169222987Y-52368395D01*
X169254618Y-52413569D01*
X169268501Y-52433395D01*
X169268506Y-52433402D01*
X169435597Y-52600493D01*
X169435603Y-52600498D01*
X169621158Y-52730425D01*
X169664783Y-52785002D01*
X169671977Y-52854500D01*
X169640454Y-52916855D01*
X169621158Y-52933575D01*
X169435597Y-53063505D01*
X169268505Y-53230597D01*
X169132965Y-53424169D01*
X169132964Y-53424171D01*
X169033098Y-53638335D01*
X169033094Y-53638344D01*
X168971938Y-53866586D01*
X168971936Y-53866596D01*
X168951341Y-54101999D01*
X168951341Y-54102000D01*
X168971936Y-54337403D01*
X168971939Y-54337416D01*
X169000556Y-54444221D01*
X168998893Y-54514071D01*
X168959730Y-54571933D01*
X168895501Y-54599436D01*
X168892456Y-54599762D01*
X168869331Y-54601949D01*
X168857656Y-54602500D01*
X163386367Y-54602500D01*
X163319328Y-54582815D01*
X163273573Y-54530011D01*
X163263629Y-54460853D01*
X163273985Y-54426096D01*
X163320428Y-54326497D01*
X163320432Y-54326486D01*
X163377636Y-54113000D01*
X162480686Y-54113000D01*
X162506493Y-54072844D01*
X162547000Y-53934889D01*
X162547000Y-53791111D01*
X162506493Y-53653156D01*
X162480686Y-53613000D01*
X163377636Y-53613000D01*
X163377635Y-53612999D01*
X163320432Y-53399513D01*
X163320429Y-53399507D01*
X163220600Y-53185422D01*
X163220599Y-53185420D01*
X163085113Y-52991926D01*
X163085108Y-52991920D01*
X162918082Y-52824894D01*
X162724578Y-52689399D01*
X162510492Y-52589570D01*
X162510486Y-52589567D01*
X162297000Y-52532364D01*
X162297000Y-53427498D01*
X162189315Y-53378320D01*
X162082763Y-53363000D01*
X162011237Y-53363000D01*
X161904685Y-53378320D01*
X161797000Y-53427498D01*
X161797000Y-52532364D01*
X161796999Y-52532364D01*
X161583513Y-52589567D01*
X161583507Y-52589570D01*
X161369422Y-52689399D01*
X161369420Y-52689400D01*
X161175926Y-52824886D01*
X161053865Y-52946947D01*
X160992542Y-52980431D01*
X160922850Y-52975447D01*
X160866917Y-52933575D01*
X160850002Y-52902598D01*
X160800797Y-52770671D01*
X160800793Y-52770664D01*
X160714547Y-52655455D01*
X160714544Y-52655452D01*
X160599335Y-52569206D01*
X160599328Y-52569202D01*
X160464482Y-52518908D01*
X160464483Y-52518908D01*
X160404883Y-52512501D01*
X160404881Y-52512500D01*
X160404873Y-52512500D01*
X160404865Y-52512500D01*
X159177452Y-52512500D01*
X159110413Y-52492815D01*
X159089771Y-52476181D01*
X156026237Y-49412646D01*
X155992752Y-49351323D01*
X155994142Y-49292876D01*
X156021063Y-49192408D01*
X156041659Y-48957000D01*
X156021063Y-48721592D01*
X155959903Y-48493337D01*
X155860035Y-48279171D01*
X155854425Y-48271158D01*
X155724494Y-48085597D01*
X155557402Y-47918506D01*
X155557395Y-47918501D01*
X155363834Y-47782967D01*
X155363830Y-47782965D01*
X155348450Y-47775793D01*
X155149663Y-47683097D01*
X155149659Y-47683096D01*
X155149655Y-47683094D01*
X154921413Y-47621938D01*
X154921403Y-47621936D01*
X154686001Y-47601341D01*
X154685999Y-47601341D01*
X154450596Y-47621936D01*
X154450586Y-47621938D01*
X154222344Y-47683094D01*
X154222335Y-47683098D01*
X154008171Y-47782964D01*
X154008169Y-47782965D01*
X153814597Y-47918505D01*
X153647505Y-48085597D01*
X153517575Y-48271158D01*
X153462998Y-48314783D01*
X153393500Y-48321977D01*
X153331145Y-48290454D01*
X153314425Y-48271158D01*
X153184494Y-48085597D01*
X153017402Y-47918506D01*
X153017395Y-47918501D01*
X152823834Y-47782967D01*
X152823830Y-47782965D01*
X152808450Y-47775793D01*
X152609663Y-47683097D01*
X152609659Y-47683096D01*
X152609655Y-47683094D01*
X152381413Y-47621938D01*
X152381403Y-47621936D01*
X152146001Y-47601341D01*
X152145999Y-47601341D01*
X151910596Y-47621936D01*
X151910586Y-47621938D01*
X151810126Y-47648856D01*
X151740276Y-47647193D01*
X151690352Y-47616762D01*
X151021803Y-46948212D01*
X151011980Y-46935950D01*
X151011759Y-46936134D01*
X151006786Y-46930122D01*
X150957776Y-46884099D01*
X150954977Y-46881386D01*
X150935477Y-46861885D01*
X150935471Y-46861880D01*
X150932286Y-46859409D01*
X150923434Y-46851848D01*
X150891582Y-46821938D01*
X150891580Y-46821936D01*
X150891577Y-46821935D01*
X150874029Y-46812288D01*
X150857763Y-46801604D01*
X150841932Y-46789324D01*
X150801849Y-46771978D01*
X150791363Y-46766841D01*
X150753094Y-46745803D01*
X150753092Y-46745802D01*
X150733693Y-46740822D01*
X150715281Y-46734518D01*
X150696898Y-46726562D01*
X150696892Y-46726560D01*
X150653760Y-46719729D01*
X150642322Y-46717361D01*
X150600020Y-46706500D01*
X150600019Y-46706500D01*
X150579984Y-46706500D01*
X150560586Y-46704973D01*
X150553162Y-46703797D01*
X150540805Y-46701840D01*
X150540804Y-46701840D01*
X150497325Y-46705950D01*
X150485656Y-46706500D01*
X150379568Y-46706500D01*
X150312529Y-46686815D01*
X150266774Y-46634011D01*
X150256247Y-46595462D01*
X150237674Y-46418744D01*
X150179179Y-46238716D01*
X150084533Y-46074784D01*
X149957871Y-45934112D01*
X149957870Y-45934111D01*
X149804734Y-45822851D01*
X149804729Y-45822848D01*
X149631807Y-45745857D01*
X149631802Y-45745855D01*
X149486001Y-45714865D01*
X149446646Y-45706500D01*
X149257354Y-45706500D01*
X149224897Y-45713398D01*
X149072197Y-45745855D01*
X149072192Y-45745857D01*
X148899270Y-45822848D01*
X148899265Y-45822851D01*
X148746130Y-45934110D01*
X148746126Y-45934114D01*
X148740400Y-45940474D01*
X148680913Y-45977121D01*
X148648252Y-45981500D01*
X144024244Y-45981500D01*
X144008627Y-45979776D01*
X144008600Y-45980062D01*
X144000838Y-45979327D01*
X143933651Y-45981439D01*
X143929757Y-45981500D01*
X143902157Y-45981500D01*
X143898469Y-45981965D01*
X143898156Y-45982005D01*
X143886538Y-45982918D01*
X143842879Y-45984290D01*
X143842876Y-45984291D01*
X143823633Y-45989881D01*
X143804590Y-45993825D01*
X143784711Y-45996336D01*
X143784710Y-45996337D01*
X143744100Y-46012415D01*
X143733055Y-46016197D01*
X143691115Y-46028383D01*
X143691111Y-46028385D01*
X143673872Y-46038580D01*
X143656405Y-46047137D01*
X143637776Y-46054512D01*
X143637774Y-46054514D01*
X143602433Y-46080189D01*
X143592675Y-46086599D01*
X143555087Y-46108828D01*
X143540915Y-46123000D01*
X143526130Y-46135628D01*
X143509919Y-46147407D01*
X143482078Y-46181059D01*
X143474218Y-46189696D01*
X138554208Y-51109706D01*
X138541951Y-51119527D01*
X138542134Y-51119748D01*
X138536122Y-51124721D01*
X138490098Y-51173730D01*
X138487391Y-51176523D01*
X138467889Y-51196024D01*
X138467875Y-51196041D01*
X138465407Y-51199222D01*
X138457843Y-51208077D01*
X138427937Y-51239925D01*
X138427936Y-51239927D01*
X138418284Y-51257483D01*
X138407610Y-51273733D01*
X138395329Y-51289568D01*
X138395324Y-51289575D01*
X138377975Y-51329665D01*
X138372838Y-51340151D01*
X138351803Y-51378413D01*
X138346822Y-51397814D01*
X138340521Y-51416217D01*
X138332562Y-51434609D01*
X138332561Y-51434612D01*
X138325728Y-51477750D01*
X138323360Y-51489181D01*
X138312501Y-51531478D01*
X138312500Y-51531489D01*
X138312500Y-51551523D01*
X138310973Y-51570922D01*
X138307840Y-51590701D01*
X138307840Y-51590702D01*
X138311950Y-51634181D01*
X138312500Y-51645850D01*
X138312500Y-64366852D01*
X138292815Y-64433891D01*
X138240011Y-64479646D01*
X138170853Y-64489590D01*
X138107297Y-64460565D01*
X138100819Y-64454533D01*
X132487819Y-58841533D01*
X132454334Y-58780210D01*
X132451500Y-58753852D01*
X132451500Y-52772226D01*
X132471185Y-52705187D01*
X132504374Y-52670654D01*
X132697401Y-52535495D01*
X132864495Y-52368401D01*
X133000035Y-52174830D01*
X133099903Y-51960663D01*
X133161063Y-51732408D01*
X133181659Y-51497000D01*
X133181610Y-51496445D01*
X133172981Y-51397814D01*
X133161063Y-51261592D01*
X133099903Y-51033337D01*
X133000035Y-50819171D01*
X132994425Y-50811158D01*
X132864494Y-50625597D01*
X132697402Y-50458506D01*
X132697396Y-50458501D01*
X132511842Y-50328575D01*
X132468217Y-50273998D01*
X132461023Y-50204500D01*
X132492546Y-50142145D01*
X132511842Y-50125425D01*
X132654969Y-50025206D01*
X132697401Y-49995495D01*
X132864495Y-49828401D01*
X133000035Y-49634830D01*
X133099903Y-49420663D01*
X133161063Y-49192408D01*
X133181659Y-48957000D01*
X133161063Y-48721592D01*
X133099903Y-48493337D01*
X133000035Y-48279171D01*
X132994425Y-48271158D01*
X132864494Y-48085597D01*
X132697402Y-47918506D01*
X132697395Y-47918501D01*
X132503834Y-47782967D01*
X132503830Y-47782965D01*
X132488450Y-47775793D01*
X132289663Y-47683097D01*
X132289659Y-47683096D01*
X132289655Y-47683094D01*
X132061413Y-47621938D01*
X132061403Y-47621936D01*
X131826001Y-47601341D01*
X131825999Y-47601341D01*
X131590596Y-47621936D01*
X131590586Y-47621938D01*
X131362344Y-47683094D01*
X131362335Y-47683098D01*
X131148171Y-47782964D01*
X131148169Y-47782965D01*
X130954597Y-47918505D01*
X130787505Y-48085597D01*
X130657575Y-48271158D01*
X130602998Y-48314783D01*
X130533500Y-48321977D01*
X130471145Y-48290454D01*
X130454425Y-48271158D01*
X130324494Y-48085597D01*
X130157402Y-47918506D01*
X130157395Y-47918501D01*
X129963834Y-47782967D01*
X129963830Y-47782965D01*
X129948450Y-47775793D01*
X129749663Y-47683097D01*
X129749659Y-47683096D01*
X129749655Y-47683094D01*
X129521413Y-47621938D01*
X129521403Y-47621936D01*
X129286001Y-47601341D01*
X129285999Y-47601341D01*
X129050596Y-47621936D01*
X129050586Y-47621938D01*
X128822344Y-47683094D01*
X128822335Y-47683098D01*
X128608171Y-47782964D01*
X128608169Y-47782965D01*
X128414597Y-47918505D01*
X128247505Y-48085597D01*
X128117575Y-48271158D01*
X128062998Y-48314783D01*
X127993500Y-48321977D01*
X127931145Y-48290454D01*
X127914425Y-48271158D01*
X127784494Y-48085597D01*
X127617402Y-47918506D01*
X127617395Y-47918501D01*
X127423834Y-47782967D01*
X127423830Y-47782965D01*
X127408450Y-47775793D01*
X127209663Y-47683097D01*
X127209659Y-47683096D01*
X127209655Y-47683094D01*
X126981413Y-47621938D01*
X126981403Y-47621936D01*
X126746001Y-47601341D01*
X126745999Y-47601341D01*
X126510596Y-47621936D01*
X126510586Y-47621938D01*
X126282344Y-47683094D01*
X126282335Y-47683098D01*
X126068171Y-47782964D01*
X126068169Y-47782965D01*
X125874597Y-47918505D01*
X125707505Y-48085597D01*
X125577575Y-48271158D01*
X125522998Y-48314783D01*
X125453500Y-48321977D01*
X125391145Y-48290454D01*
X125374425Y-48271158D01*
X125244494Y-48085597D01*
X125077402Y-47918506D01*
X125077395Y-47918501D01*
X124883834Y-47782967D01*
X124883830Y-47782965D01*
X124868450Y-47775793D01*
X124669663Y-47683097D01*
X124669659Y-47683096D01*
X124669655Y-47683094D01*
X124441413Y-47621938D01*
X124441403Y-47621936D01*
X124206001Y-47601341D01*
X124205999Y-47601341D01*
X123970596Y-47621936D01*
X123970586Y-47621938D01*
X123742344Y-47683094D01*
X123742335Y-47683098D01*
X123528171Y-47782964D01*
X123528169Y-47782965D01*
X123334597Y-47918505D01*
X123167505Y-48085597D01*
X123037575Y-48271158D01*
X122982998Y-48314783D01*
X122913500Y-48321977D01*
X122851145Y-48290454D01*
X122834425Y-48271158D01*
X122704494Y-48085597D01*
X122537402Y-47918506D01*
X122537395Y-47918501D01*
X122343834Y-47782967D01*
X122343830Y-47782965D01*
X122328450Y-47775793D01*
X122129663Y-47683097D01*
X122129659Y-47683096D01*
X122129655Y-47683094D01*
X121901413Y-47621938D01*
X121901403Y-47621936D01*
X121666001Y-47601341D01*
X121665999Y-47601341D01*
X121430596Y-47621936D01*
X121430586Y-47621938D01*
X121202344Y-47683094D01*
X121202335Y-47683098D01*
X120988171Y-47782964D01*
X120988169Y-47782965D01*
X120794597Y-47918505D01*
X120627505Y-48085597D01*
X120491965Y-48279169D01*
X120491964Y-48279171D01*
X120392098Y-48493335D01*
X120392094Y-48493344D01*
X120330938Y-48721586D01*
X120330936Y-48721596D01*
X120310341Y-48956999D01*
X120310341Y-48957000D01*
X115824500Y-48957000D01*
X115824500Y-44574500D01*
X115844185Y-44507461D01*
X115896989Y-44461706D01*
X115948500Y-44450500D01*
X173992500Y-44450500D01*
X174059539Y-44470185D01*
G37*
%TD.AperFunction*%
%TD*%
M02*
