%TF.GenerationSoftware,KiCad,Pcbnew,7.0.10*%
%TF.CreationDate,2024-11-13T12:28:53-05:00*%
%TF.ProjectId,pmodThingy,706d6f64-5468-4696-9e67-792e6b696361,rev?*%
%TF.SameCoordinates,Original*%
%TF.FileFunction,Legend,Bot*%
%TF.FilePolarity,Positive*%
%FSLAX46Y46*%
G04 Gerber Fmt 4.6, Leading zero omitted, Abs format (unit mm)*
G04 Created by KiCad (PCBNEW 7.0.10) date 2024-11-13 12:28:53*
%MOMM*%
%LPD*%
G01*
G04 APERTURE LIST*
%ADD10C,0.300000*%
%ADD11C,0.150000*%
G04 APERTURE END LIST*
D10*
X119426510Y-82372171D02*
X119426510Y-83872171D01*
X119426510Y-83872171D02*
X119997939Y-83872171D01*
X119997939Y-83872171D02*
X120140796Y-83800742D01*
X120140796Y-83800742D02*
X120212225Y-83729314D01*
X120212225Y-83729314D02*
X120283653Y-83586457D01*
X120283653Y-83586457D02*
X120283653Y-83372171D01*
X120283653Y-83372171D02*
X120212225Y-83229314D01*
X120212225Y-83229314D02*
X120140796Y-83157885D01*
X120140796Y-83157885D02*
X119997939Y-83086457D01*
X119997939Y-83086457D02*
X119426510Y-83086457D01*
X120926510Y-82372171D02*
X120926510Y-83872171D01*
X120926510Y-83872171D02*
X121426510Y-82800742D01*
X121426510Y-82800742D02*
X121926510Y-83872171D01*
X121926510Y-83872171D02*
X121926510Y-82372171D01*
X122926511Y-83872171D02*
X123212225Y-83872171D01*
X123212225Y-83872171D02*
X123355082Y-83800742D01*
X123355082Y-83800742D02*
X123497939Y-83657885D01*
X123497939Y-83657885D02*
X123569368Y-83372171D01*
X123569368Y-83372171D02*
X123569368Y-82872171D01*
X123569368Y-82872171D02*
X123497939Y-82586457D01*
X123497939Y-82586457D02*
X123355082Y-82443600D01*
X123355082Y-82443600D02*
X123212225Y-82372171D01*
X123212225Y-82372171D02*
X122926511Y-82372171D01*
X122926511Y-82372171D02*
X122783654Y-82443600D01*
X122783654Y-82443600D02*
X122640796Y-82586457D01*
X122640796Y-82586457D02*
X122569368Y-82872171D01*
X122569368Y-82872171D02*
X122569368Y-83372171D01*
X122569368Y-83372171D02*
X122640796Y-83657885D01*
X122640796Y-83657885D02*
X122783654Y-83800742D01*
X122783654Y-83800742D02*
X122926511Y-83872171D01*
X124212225Y-82372171D02*
X124212225Y-83872171D01*
X124212225Y-83872171D02*
X124569368Y-83872171D01*
X124569368Y-83872171D02*
X124783654Y-83800742D01*
X124783654Y-83800742D02*
X124926511Y-83657885D01*
X124926511Y-83657885D02*
X124997940Y-83515028D01*
X124997940Y-83515028D02*
X125069368Y-83229314D01*
X125069368Y-83229314D02*
X125069368Y-83015028D01*
X125069368Y-83015028D02*
X124997940Y-82729314D01*
X124997940Y-82729314D02*
X124926511Y-82586457D01*
X124926511Y-82586457D02*
X124783654Y-82443600D01*
X124783654Y-82443600D02*
X124569368Y-82372171D01*
X124569368Y-82372171D02*
X124212225Y-82372171D01*
X126640797Y-83372171D02*
X127212225Y-83372171D01*
X126855082Y-83872171D02*
X126855082Y-82586457D01*
X126855082Y-82586457D02*
X126926511Y-82443600D01*
X126926511Y-82443600D02*
X127069368Y-82372171D01*
X127069368Y-82372171D02*
X127212225Y-82372171D01*
X127712225Y-82372171D02*
X127712225Y-83872171D01*
X128355083Y-82372171D02*
X128355083Y-83157885D01*
X128355083Y-83157885D02*
X128283654Y-83300742D01*
X128283654Y-83300742D02*
X128140797Y-83372171D01*
X128140797Y-83372171D02*
X127926511Y-83372171D01*
X127926511Y-83372171D02*
X127783654Y-83300742D01*
X127783654Y-83300742D02*
X127712225Y-83229314D01*
X129069368Y-82372171D02*
X129069368Y-83372171D01*
X129069368Y-83872171D02*
X128997940Y-83800742D01*
X128997940Y-83800742D02*
X129069368Y-83729314D01*
X129069368Y-83729314D02*
X129140797Y-83800742D01*
X129140797Y-83800742D02*
X129069368Y-83872171D01*
X129069368Y-83872171D02*
X129069368Y-83729314D01*
X129783654Y-83372171D02*
X129783654Y-82372171D01*
X129783654Y-83229314D02*
X129855083Y-83300742D01*
X129855083Y-83300742D02*
X129997940Y-83372171D01*
X129997940Y-83372171D02*
X130212226Y-83372171D01*
X130212226Y-83372171D02*
X130355083Y-83300742D01*
X130355083Y-83300742D02*
X130426512Y-83157885D01*
X130426512Y-83157885D02*
X130426512Y-82372171D01*
X131783655Y-83372171D02*
X131783655Y-82157885D01*
X131783655Y-82157885D02*
X131712226Y-82015028D01*
X131712226Y-82015028D02*
X131640797Y-81943600D01*
X131640797Y-81943600D02*
X131497940Y-81872171D01*
X131497940Y-81872171D02*
X131283655Y-81872171D01*
X131283655Y-81872171D02*
X131140797Y-81943600D01*
X131783655Y-82443600D02*
X131640797Y-82372171D01*
X131640797Y-82372171D02*
X131355083Y-82372171D01*
X131355083Y-82372171D02*
X131212226Y-82443600D01*
X131212226Y-82443600D02*
X131140797Y-82515028D01*
X131140797Y-82515028D02*
X131069369Y-82657885D01*
X131069369Y-82657885D02*
X131069369Y-83086457D01*
X131069369Y-83086457D02*
X131140797Y-83229314D01*
X131140797Y-83229314D02*
X131212226Y-83300742D01*
X131212226Y-83300742D02*
X131355083Y-83372171D01*
X131355083Y-83372171D02*
X131640797Y-83372171D01*
X131640797Y-83372171D02*
X131783655Y-83300742D01*
X132355083Y-83372171D02*
X132712226Y-82372171D01*
X133069369Y-83372171D02*
X132712226Y-82372171D01*
X132712226Y-82372171D02*
X132569369Y-82015028D01*
X132569369Y-82015028D02*
X132497940Y-81943600D01*
X132497940Y-81943600D02*
X132355083Y-81872171D01*
X134640797Y-83372171D02*
X134997940Y-82372171D01*
X134997940Y-82372171D02*
X135355083Y-83372171D01*
X136712226Y-82372171D02*
X135855083Y-82372171D01*
X136283654Y-82372171D02*
X136283654Y-83872171D01*
X136283654Y-83872171D02*
X136140797Y-83657885D01*
X136140797Y-83657885D02*
X135997940Y-83515028D01*
X135997940Y-83515028D02*
X135855083Y-83443600D01*
X119426510Y-79957171D02*
X119426510Y-81457171D01*
X120283653Y-79957171D02*
X119640796Y-80814314D01*
X120283653Y-81457171D02*
X119426510Y-80600028D01*
X120783653Y-80957171D02*
X121140796Y-79957171D01*
X121497939Y-80957171D02*
X121140796Y-79957171D01*
X121140796Y-79957171D02*
X120997939Y-79600028D01*
X120997939Y-79600028D02*
X120926510Y-79528600D01*
X120926510Y-79528600D02*
X120783653Y-79457171D01*
X122283653Y-79957171D02*
X122140796Y-80028600D01*
X122140796Y-80028600D02*
X122069367Y-80171457D01*
X122069367Y-80171457D02*
X122069367Y-81457171D01*
X123426510Y-80028600D02*
X123283653Y-79957171D01*
X123283653Y-79957171D02*
X122997939Y-79957171D01*
X122997939Y-79957171D02*
X122855081Y-80028600D01*
X122855081Y-80028600D02*
X122783653Y-80171457D01*
X122783653Y-80171457D02*
X122783653Y-80742885D01*
X122783653Y-80742885D02*
X122855081Y-80885742D01*
X122855081Y-80885742D02*
X122997939Y-80957171D01*
X122997939Y-80957171D02*
X123283653Y-80957171D01*
X123283653Y-80957171D02*
X123426510Y-80885742D01*
X123426510Y-80885742D02*
X123497939Y-80742885D01*
X123497939Y-80742885D02*
X123497939Y-80600028D01*
X123497939Y-80600028D02*
X122783653Y-80457171D01*
X125283652Y-79957171D02*
X125283652Y-81457171D01*
X125283652Y-81457171D02*
X125783652Y-80385742D01*
X125783652Y-80385742D02*
X126283652Y-81457171D01*
X126283652Y-81457171D02*
X126283652Y-79957171D01*
X126997938Y-79957171D02*
X126997938Y-80957171D01*
X126997938Y-81457171D02*
X126926510Y-81385742D01*
X126926510Y-81385742D02*
X126997938Y-81314314D01*
X126997938Y-81314314D02*
X127069367Y-81385742D01*
X127069367Y-81385742D02*
X126997938Y-81457171D01*
X126997938Y-81457171D02*
X126997938Y-81314314D01*
X127497939Y-80957171D02*
X128069367Y-80957171D01*
X127712224Y-81457171D02*
X127712224Y-80171457D01*
X127712224Y-80171457D02*
X127783653Y-80028600D01*
X127783653Y-80028600D02*
X127926510Y-79957171D01*
X127926510Y-79957171D02*
X128069367Y-79957171D01*
X129212225Y-79957171D02*
X129212225Y-80742885D01*
X129212225Y-80742885D02*
X129140796Y-80885742D01*
X129140796Y-80885742D02*
X128997939Y-80957171D01*
X128997939Y-80957171D02*
X128712225Y-80957171D01*
X128712225Y-80957171D02*
X128569367Y-80885742D01*
X129212225Y-80028600D02*
X129069367Y-79957171D01*
X129069367Y-79957171D02*
X128712225Y-79957171D01*
X128712225Y-79957171D02*
X128569367Y-80028600D01*
X128569367Y-80028600D02*
X128497939Y-80171457D01*
X128497939Y-80171457D02*
X128497939Y-80314314D01*
X128497939Y-80314314D02*
X128569367Y-80457171D01*
X128569367Y-80457171D02*
X128712225Y-80528600D01*
X128712225Y-80528600D02*
X129069367Y-80528600D01*
X129069367Y-80528600D02*
X129212225Y-80600028D01*
X129926510Y-79957171D02*
X129926510Y-80957171D01*
X129926510Y-80671457D02*
X129997939Y-80814314D01*
X129997939Y-80814314D02*
X130069368Y-80885742D01*
X130069368Y-80885742D02*
X130212225Y-80957171D01*
X130212225Y-80957171D02*
X130355082Y-80957171D01*
X131497939Y-79957171D02*
X131497939Y-81457171D01*
X131497939Y-80028600D02*
X131355081Y-79957171D01*
X131355081Y-79957171D02*
X131069367Y-79957171D01*
X131069367Y-79957171D02*
X130926510Y-80028600D01*
X130926510Y-80028600D02*
X130855081Y-80100028D01*
X130855081Y-80100028D02*
X130783653Y-80242885D01*
X130783653Y-80242885D02*
X130783653Y-80671457D01*
X130783653Y-80671457D02*
X130855081Y-80814314D01*
X130855081Y-80814314D02*
X130926510Y-80885742D01*
X130926510Y-80885742D02*
X131069367Y-80957171D01*
X131069367Y-80957171D02*
X131355081Y-80957171D01*
X131355081Y-80957171D02*
X131497939Y-80885742D01*
X119712225Y-79042171D02*
X119997939Y-79042171D01*
X119997939Y-79042171D02*
X120140796Y-78970742D01*
X120140796Y-78970742D02*
X120283653Y-78827885D01*
X120283653Y-78827885D02*
X120355082Y-78542171D01*
X120355082Y-78542171D02*
X120355082Y-78042171D01*
X120355082Y-78042171D02*
X120283653Y-77756457D01*
X120283653Y-77756457D02*
X120140796Y-77613600D01*
X120140796Y-77613600D02*
X119997939Y-77542171D01*
X119997939Y-77542171D02*
X119712225Y-77542171D01*
X119712225Y-77542171D02*
X119569368Y-77613600D01*
X119569368Y-77613600D02*
X119426510Y-77756457D01*
X119426510Y-77756457D02*
X119355082Y-78042171D01*
X119355082Y-78042171D02*
X119355082Y-78542171D01*
X119355082Y-78542171D02*
X119426510Y-78827885D01*
X119426510Y-78827885D02*
X119569368Y-78970742D01*
X119569368Y-78970742D02*
X119712225Y-79042171D01*
X121640797Y-77613600D02*
X121497939Y-77542171D01*
X121497939Y-77542171D02*
X121212225Y-77542171D01*
X121212225Y-77542171D02*
X121069368Y-77613600D01*
X121069368Y-77613600D02*
X120997939Y-77685028D01*
X120997939Y-77685028D02*
X120926511Y-77827885D01*
X120926511Y-77827885D02*
X120926511Y-78256457D01*
X120926511Y-78256457D02*
X120997939Y-78399314D01*
X120997939Y-78399314D02*
X121069368Y-78470742D01*
X121069368Y-78470742D02*
X121212225Y-78542171D01*
X121212225Y-78542171D02*
X121497939Y-78542171D01*
X121497939Y-78542171D02*
X121640797Y-78470742D01*
X122069368Y-78542171D02*
X122640796Y-78542171D01*
X122283653Y-79042171D02*
X122283653Y-77756457D01*
X122283653Y-77756457D02*
X122355082Y-77613600D01*
X122355082Y-77613600D02*
X122497939Y-77542171D01*
X122497939Y-77542171D02*
X122640796Y-77542171D01*
X124212225Y-78899314D02*
X124283653Y-78970742D01*
X124283653Y-78970742D02*
X124426511Y-79042171D01*
X124426511Y-79042171D02*
X124783653Y-79042171D01*
X124783653Y-79042171D02*
X124926511Y-78970742D01*
X124926511Y-78970742D02*
X124997939Y-78899314D01*
X124997939Y-78899314D02*
X125069368Y-78756457D01*
X125069368Y-78756457D02*
X125069368Y-78613600D01*
X125069368Y-78613600D02*
X124997939Y-78399314D01*
X124997939Y-78399314D02*
X124140796Y-77542171D01*
X124140796Y-77542171D02*
X125069368Y-77542171D01*
X125997939Y-79042171D02*
X126140796Y-79042171D01*
X126140796Y-79042171D02*
X126283653Y-78970742D01*
X126283653Y-78970742D02*
X126355082Y-78899314D01*
X126355082Y-78899314D02*
X126426510Y-78756457D01*
X126426510Y-78756457D02*
X126497939Y-78470742D01*
X126497939Y-78470742D02*
X126497939Y-78113600D01*
X126497939Y-78113600D02*
X126426510Y-77827885D01*
X126426510Y-77827885D02*
X126355082Y-77685028D01*
X126355082Y-77685028D02*
X126283653Y-77613600D01*
X126283653Y-77613600D02*
X126140796Y-77542171D01*
X126140796Y-77542171D02*
X125997939Y-77542171D01*
X125997939Y-77542171D02*
X125855082Y-77613600D01*
X125855082Y-77613600D02*
X125783653Y-77685028D01*
X125783653Y-77685028D02*
X125712224Y-77827885D01*
X125712224Y-77827885D02*
X125640796Y-78113600D01*
X125640796Y-78113600D02*
X125640796Y-78470742D01*
X125640796Y-78470742D02*
X125712224Y-78756457D01*
X125712224Y-78756457D02*
X125783653Y-78899314D01*
X125783653Y-78899314D02*
X125855082Y-78970742D01*
X125855082Y-78970742D02*
X125997939Y-79042171D01*
X127069367Y-78899314D02*
X127140795Y-78970742D01*
X127140795Y-78970742D02*
X127283653Y-79042171D01*
X127283653Y-79042171D02*
X127640795Y-79042171D01*
X127640795Y-79042171D02*
X127783653Y-78970742D01*
X127783653Y-78970742D02*
X127855081Y-78899314D01*
X127855081Y-78899314D02*
X127926510Y-78756457D01*
X127926510Y-78756457D02*
X127926510Y-78613600D01*
X127926510Y-78613600D02*
X127855081Y-78399314D01*
X127855081Y-78399314D02*
X126997938Y-77542171D01*
X126997938Y-77542171D02*
X127926510Y-77542171D01*
X129212224Y-78542171D02*
X129212224Y-77542171D01*
X128855081Y-79113600D02*
X128497938Y-78042171D01*
X128497938Y-78042171D02*
X129426509Y-78042171D01*
D11*
X127328333Y-53683819D02*
X127328333Y-54398104D01*
X127328333Y-54398104D02*
X127375952Y-54540961D01*
X127375952Y-54540961D02*
X127471190Y-54636200D01*
X127471190Y-54636200D02*
X127614047Y-54683819D01*
X127614047Y-54683819D02*
X127709285Y-54683819D01*
X126899761Y-53779057D02*
X126852142Y-53731438D01*
X126852142Y-53731438D02*
X126756904Y-53683819D01*
X126756904Y-53683819D02*
X126518809Y-53683819D01*
X126518809Y-53683819D02*
X126423571Y-53731438D01*
X126423571Y-53731438D02*
X126375952Y-53779057D01*
X126375952Y-53779057D02*
X126328333Y-53874295D01*
X126328333Y-53874295D02*
X126328333Y-53969533D01*
X126328333Y-53969533D02*
X126375952Y-54112390D01*
X126375952Y-54112390D02*
X126947380Y-54683819D01*
X126947380Y-54683819D02*
X126328333Y-54683819D01*
X167719333Y-45936819D02*
X167719333Y-46651104D01*
X167719333Y-46651104D02*
X167766952Y-46793961D01*
X167766952Y-46793961D02*
X167862190Y-46889200D01*
X167862190Y-46889200D02*
X168005047Y-46936819D01*
X168005047Y-46936819D02*
X168100285Y-46936819D01*
X166814571Y-46270152D02*
X166814571Y-46936819D01*
X167052666Y-45889200D02*
X167290761Y-46603485D01*
X167290761Y-46603485D02*
X166671714Y-46603485D01*
X149807333Y-53683819D02*
X149807333Y-54398104D01*
X149807333Y-54398104D02*
X149854952Y-54540961D01*
X149854952Y-54540961D02*
X149950190Y-54636200D01*
X149950190Y-54636200D02*
X150093047Y-54683819D01*
X150093047Y-54683819D02*
X150188285Y-54683819D01*
X148807333Y-54683819D02*
X149378761Y-54683819D01*
X149093047Y-54683819D02*
X149093047Y-53683819D01*
X149093047Y-53683819D02*
X149188285Y-53826676D01*
X149188285Y-53826676D02*
X149283523Y-53921914D01*
X149283523Y-53921914D02*
X149378761Y-53969533D01*
M02*
