%TF.GenerationSoftware,KiCad,Pcbnew,7.0.10*%
%TF.CreationDate,2024-11-13T12:28:53-05:00*%
%TF.ProjectId,pmodThingy,706d6f64-5468-4696-9e67-792e6b696361,rev?*%
%TF.SameCoordinates,Original*%
%TF.FileFunction,Copper,L1,Top*%
%TF.FilePolarity,Positive*%
%FSLAX46Y46*%
G04 Gerber Fmt 4.6, Leading zero omitted, Abs format (unit mm)*
G04 Created by KiCad (PCBNEW 7.0.10) date 2024-11-13 12:28:53*
%MOMM*%
%LPD*%
G01*
G04 APERTURE LIST*
G04 Aperture macros list*
%AMRoundRect*
0 Rectangle with rounded corners*
0 $1 Rounding radius*
0 $2 $3 $4 $5 $6 $7 $8 $9 X,Y pos of 4 corners*
0 Add a 4 corners polygon primitive as box body*
4,1,4,$2,$3,$4,$5,$6,$7,$8,$9,$2,$3,0*
0 Add four circle primitives for the rounded corners*
1,1,$1+$1,$2,$3*
1,1,$1+$1,$4,$5*
1,1,$1+$1,$6,$7*
1,1,$1+$1,$8,$9*
0 Add four rect primitives between the rounded corners*
20,1,$1+$1,$2,$3,$4,$5,0*
20,1,$1+$1,$4,$5,$6,$7,0*
20,1,$1+$1,$6,$7,$8,$9,0*
20,1,$1+$1,$8,$9,$2,$3,0*%
G04 Aperture macros list end*
%TA.AperFunction,SMDPad,CuDef*%
%ADD10RoundRect,0.250000X0.325000X0.450000X-0.325000X0.450000X-0.325000X-0.450000X0.325000X-0.450000X0*%
%TD*%
%TA.AperFunction,ComponentPad*%
%ADD11C,2.100000*%
%TD*%
%TA.AperFunction,ComponentPad*%
%ADD12C,2.250000*%
%TD*%
%TA.AperFunction,SMDPad,CuDef*%
%ADD13RoundRect,0.250000X-0.475000X0.337500X-0.475000X-0.337500X0.475000X-0.337500X0.475000X0.337500X0*%
%TD*%
%TA.AperFunction,ComponentPad*%
%ADD14R,1.700000X1.700000*%
%TD*%
%TA.AperFunction,ComponentPad*%
%ADD15O,1.700000X1.700000*%
%TD*%
%TA.AperFunction,SMDPad,CuDef*%
%ADD16RoundRect,0.250000X1.250000X0.550000X-1.250000X0.550000X-1.250000X-0.550000X1.250000X-0.550000X0*%
%TD*%
%TA.AperFunction,SMDPad,CuDef*%
%ADD17RoundRect,0.250000X0.350000X0.450000X-0.350000X0.450000X-0.350000X-0.450000X0.350000X-0.450000X0*%
%TD*%
%TA.AperFunction,SMDPad,CuDef*%
%ADD18R,0.550000X1.500000*%
%TD*%
%TA.AperFunction,SMDPad,CuDef*%
%ADD19R,1.500000X0.550000*%
%TD*%
%TA.AperFunction,SMDPad,CuDef*%
%ADD20R,1.500000X2.000000*%
%TD*%
%TA.AperFunction,SMDPad,CuDef*%
%ADD21R,3.800000X2.000000*%
%TD*%
%TA.AperFunction,SMDPad,CuDef*%
%ADD22RoundRect,0.250000X0.337500X0.475000X-0.337500X0.475000X-0.337500X-0.475000X0.337500X-0.475000X0*%
%TD*%
%TA.AperFunction,SMDPad,CuDef*%
%ADD23RoundRect,0.250000X0.550000X-1.250000X0.550000X1.250000X-0.550000X1.250000X-0.550000X-1.250000X0*%
%TD*%
%TA.AperFunction,SMDPad,CuDef*%
%ADD24RoundRect,0.250000X0.450000X-0.350000X0.450000X0.350000X-0.450000X0.350000X-0.450000X-0.350000X0*%
%TD*%
%TA.AperFunction,SMDPad,CuDef*%
%ADD25RoundRect,0.250000X0.475000X-0.337500X0.475000X0.337500X-0.475000X0.337500X-0.475000X-0.337500X0*%
%TD*%
%TA.AperFunction,SMDPad,CuDef*%
%ADD26RoundRect,0.250000X-0.325000X-0.450000X0.325000X-0.450000X0.325000X0.450000X-0.325000X0.450000X0*%
%TD*%
%TA.AperFunction,SMDPad,CuDef*%
%ADD27R,2.000000X7.875000*%
%TD*%
%TA.AperFunction,SMDPad,CuDef*%
%ADD28RoundRect,0.250000X-0.350000X-0.450000X0.350000X-0.450000X0.350000X0.450000X-0.350000X0.450000X0*%
%TD*%
%TA.AperFunction,SMDPad,CuDef*%
%ADD29R,0.400000X1.400000*%
%TD*%
%TA.AperFunction,ComponentPad*%
%ADD30O,1.050000X1.900000*%
%TD*%
%TA.AperFunction,SMDPad,CuDef*%
%ADD31R,1.150000X1.450000*%
%TD*%
%TA.AperFunction,SMDPad,CuDef*%
%ADD32R,1.750000X1.900000*%
%TD*%
%TA.AperFunction,ViaPad*%
%ADD33C,0.800000*%
%TD*%
%TA.AperFunction,Conductor*%
%ADD34C,0.250000*%
%TD*%
%TA.AperFunction,Conductor*%
%ADD35C,0.400000*%
%TD*%
%TA.AperFunction,Conductor*%
%ADD36C,0.200000*%
%TD*%
G04 APERTURE END LIST*
D10*
%TO.P,D1,1,K*%
%TO.N,/TXLED*%
X136597000Y-62738000D03*
%TO.P,D1,2,A*%
%TO.N,Net-(D1-A)*%
X134547000Y-62738000D03*
%TD*%
D11*
%TO.P,J6,1*%
%TO.N,+3V3*%
X122428000Y-59182000D03*
D12*
%TO.P,J6,S1*%
%TO.N,GND*%
X119888000Y-56642000D03*
%TO.P,J6,S2*%
X119888000Y-61722000D03*
%TO.P,J6,S3*%
X124968000Y-61722000D03*
%TO.P,J6,S4*%
X124968000Y-56642000D03*
%TD*%
D13*
%TO.P,C3,1*%
%TO.N,Net-(U1-UCAP)*%
X144907000Y-82782500D03*
%TO.P,C3,2*%
%TO.N,GND*%
X144907000Y-84857500D03*
%TD*%
D14*
%TO.P,J2,1,Pin_1*%
%TO.N,GND*%
X121666000Y-51497000D03*
D15*
%TO.P,J2,2,Pin_2*%
X121666000Y-48957000D03*
%TO.P,J2,3,Pin_3*%
%TO.N,/IO11_UART_TX*%
X124206000Y-51497000D03*
%TO.P,J2,4,Pin_4*%
%TO.N,/IO15*%
X124206000Y-48957000D03*
%TO.P,J2,5,Pin_5*%
%TO.N,/IO10_UART_RX*%
X126746000Y-51497000D03*
%TO.P,J2,6,Pin_6*%
%TO.N,/IO14*%
X126746000Y-48957000D03*
%TO.P,J2,7,Pin_7*%
%TO.N,/IO9_I2C_SDA*%
X129286000Y-51497000D03*
%TO.P,J2,8,Pin_8*%
%TO.N,/IO13*%
X129286000Y-48957000D03*
%TO.P,J2,9,Pin_9*%
%TO.N,/IO8_I2C_SCL*%
X131826000Y-51497000D03*
%TO.P,J2,10,Pin_10*%
%TO.N,/IO12*%
X131826000Y-48957000D03*
%TD*%
D16*
%TO.P,C5,1*%
%TO.N,/USB_VBUS*%
X130470000Y-86868000D03*
%TO.P,C5,2*%
%TO.N,GND*%
X126070000Y-86868000D03*
%TD*%
D17*
%TO.P,R4,1*%
%TO.N,+3V3*%
X147605000Y-62738000D03*
%TO.P,R4,2*%
%TO.N,Net-(D2-A)*%
X145605000Y-62738000D03*
%TD*%
D18*
%TO.P,U1,1,PE6*%
%TO.N,unconnected-(U1-PE6-Pad1)*%
X136589000Y-77963000D03*
%TO.P,U1,2,UVCC*%
%TO.N,+3V3*%
X137389000Y-77963000D03*
%TO.P,U1,3,D-*%
%TO.N,/USB_D-*%
X138189000Y-77963000D03*
%TO.P,U1,4,D+*%
%TO.N,/USB_D+*%
X138989000Y-77963000D03*
%TO.P,U1,5,UGND*%
%TO.N,GND*%
X139789000Y-77963000D03*
%TO.P,U1,6,UCAP*%
%TO.N,Net-(U1-UCAP)*%
X140589000Y-77963000D03*
%TO.P,U1,7,VBUS*%
%TO.N,/USB_VBUS*%
X141389000Y-77963000D03*
%TO.P,U1,8,PB0*%
%TO.N,/IO0*%
X142189000Y-77963000D03*
%TO.P,U1,9,PB1*%
%TO.N,/IO1*%
X142989000Y-77963000D03*
%TO.P,U1,10,PB2*%
%TO.N,/IO2_SS*%
X143789000Y-77963000D03*
%TO.P,U1,11,PB3*%
%TO.N,/IO3_MOSI*%
X144589000Y-77963000D03*
D19*
%TO.P,U1,12,PB7*%
%TO.N,/IO7*%
X146289000Y-76263000D03*
%TO.P,U1,13,~{RESET}*%
%TO.N,/RESET*%
X146289000Y-75463000D03*
%TO.P,U1,14,VCC*%
%TO.N,+3V3*%
X146289000Y-74663000D03*
%TO.P,U1,15,GND*%
%TO.N,GND*%
X146289000Y-73863000D03*
%TO.P,U1,16,XTAL2*%
%TO.N,Net-(U1-XTAL2)*%
X146289000Y-73063000D03*
%TO.P,U1,17,XTAL1*%
%TO.N,Net-(U1-XTAL1)*%
X146289000Y-72263000D03*
%TO.P,U1,18,PD0*%
%TO.N,/IO8_I2C_SCL*%
X146289000Y-71463000D03*
%TO.P,U1,19,PD1*%
%TO.N,/IO9_I2C_SDA*%
X146289000Y-70663000D03*
%TO.P,U1,20,PD2*%
%TO.N,/IO10_UART_RX*%
X146289000Y-69863000D03*
%TO.P,U1,21,PD3*%
%TO.N,/IO11_UART_TX*%
X146289000Y-69063000D03*
%TO.P,U1,22,PD5*%
%TO.N,/IO13*%
X146289000Y-68263000D03*
D18*
%TO.P,U1,23,GND*%
%TO.N,GND*%
X144589000Y-66563000D03*
%TO.P,U1,24,AVCC*%
%TO.N,+3V3*%
X143789000Y-66563000D03*
%TO.P,U1,25,PD4*%
%TO.N,/IO12*%
X142989000Y-66563000D03*
%TO.P,U1,26,PD6*%
%TO.N,/IO14*%
X142189000Y-66563000D03*
%TO.P,U1,27,PD7*%
%TO.N,/IO15*%
X141389000Y-66563000D03*
%TO.P,U1,28,PB4*%
%TO.N,/IO4_MISO*%
X140589000Y-66563000D03*
%TO.P,U1,29,PB5*%
%TO.N,/IO5_SCK*%
X139789000Y-66563000D03*
%TO.P,U1,30,PB6*%
%TO.N,/IO6*%
X138989000Y-66563000D03*
%TO.P,U1,31,PC6*%
%TO.N,/RXLED*%
X138189000Y-66563000D03*
%TO.P,U1,32,PC7*%
%TO.N,/TXLED*%
X137389000Y-66563000D03*
%TO.P,U1,33,~{HWB}/PE2*%
%TO.N,GND*%
X136589000Y-66563000D03*
D19*
%TO.P,U1,34,VCC*%
%TO.N,+3V3*%
X134889000Y-68263000D03*
%TO.P,U1,35,GND*%
%TO.N,GND*%
X134889000Y-69063000D03*
%TO.P,U1,36,PF7*%
%TO.N,unconnected-(U1-PF7-Pad36)*%
X134889000Y-69863000D03*
%TO.P,U1,37,PF6*%
%TO.N,unconnected-(U1-PF6-Pad37)*%
X134889000Y-70663000D03*
%TO.P,U1,38,PF5*%
%TO.N,unconnected-(U1-PF5-Pad38)*%
X134889000Y-71463000D03*
%TO.P,U1,39,PF4*%
%TO.N,unconnected-(U1-PF4-Pad39)*%
X134889000Y-72263000D03*
%TO.P,U1,40,PF1*%
%TO.N,unconnected-(U1-PF1-Pad40)*%
X134889000Y-73063000D03*
%TO.P,U1,41,PF0*%
%TO.N,unconnected-(U1-PF0-Pad41)*%
X134889000Y-73863000D03*
%TO.P,U1,42,AREF*%
%TO.N,Net-(U1-AREF)*%
X134889000Y-74663000D03*
%TO.P,U1,43,GND*%
%TO.N,GND*%
X134889000Y-75463000D03*
%TO.P,U1,44,AVCC*%
%TO.N,+3V3*%
X134889000Y-76263000D03*
%TD*%
D20*
%TO.P,U2,1,GND*%
%TO.N,GND*%
X125716000Y-81255000D03*
%TO.P,U2,2,VO*%
%TO.N,+3V3*%
X128016000Y-81255000D03*
D21*
X128016000Y-74955000D03*
D20*
%TO.P,U2,3,VI*%
%TO.N,/USB_VBUS*%
X130316000Y-81255000D03*
%TD*%
D22*
%TO.P,C7,1*%
%TO.N,+3V3*%
X132482500Y-68199000D03*
%TO.P,C7,2*%
%TO.N,GND*%
X130407500Y-68199000D03*
%TD*%
D23*
%TO.P,C6,1*%
%TO.N,+3V3*%
X122936000Y-71161000D03*
%TO.P,C6,2*%
%TO.N,GND*%
X122936000Y-66761000D03*
%TD*%
D24*
%TO.P,R2,1*%
%TO.N,Net-(J3-D-)*%
X137541000Y-83169000D03*
%TO.P,R2,2*%
%TO.N,/USB_D-*%
X137541000Y-81169000D03*
%TD*%
%TO.P,R1,1*%
%TO.N,Net-(J3-D+)*%
X139700000Y-83169000D03*
%TO.P,R1,2*%
%TO.N,/USB_D+*%
X139700000Y-81169000D03*
%TD*%
D14*
%TO.P,J5,1,Pin_1*%
%TO.N,/IO4_MISO*%
X159507000Y-53863000D03*
D15*
%TO.P,J5,2,Pin_2*%
%TO.N,+3V3*%
X162047000Y-53863000D03*
%TO.P,J5,3,Pin_3*%
%TO.N,/IO5_SCK*%
X159507000Y-56403000D03*
%TO.P,J5,4,Pin_4*%
%TO.N,/IO3_MOSI*%
X162047000Y-56403000D03*
%TO.P,J5,5,Pin_5*%
%TO.N,/RESET*%
X159507000Y-58943000D03*
%TO.P,J5,6,Pin_6*%
%TO.N,GND*%
X162047000Y-58943000D03*
%TD*%
D14*
%TO.P,J4,1,Pin_1*%
%TO.N,/IO0*%
X170307000Y-46482000D03*
D15*
%TO.P,J4,2,Pin_2*%
%TO.N,/IO1*%
X170307000Y-49022000D03*
%TO.P,J4,3,Pin_3*%
%TO.N,/IO2_SS*%
X170307000Y-51562000D03*
%TO.P,J4,4,Pin_4*%
%TO.N,/IO3_MOSI*%
X170307000Y-54102000D03*
%TO.P,J4,5,Pin_5*%
%TO.N,/IO4_MISO*%
X170307000Y-56642000D03*
%TO.P,J4,6,Pin_6*%
%TO.N,/IO5_SCK*%
X170307000Y-59182000D03*
%TO.P,J4,7,Pin_7*%
%TO.N,/IO6*%
X170307000Y-61722000D03*
%TO.P,J4,8,Pin_8*%
%TO.N,/IO7*%
X170307000Y-64262000D03*
%TO.P,J4,9,Pin_9*%
%TO.N,/IO8_I2C_SCL*%
X170307000Y-66802000D03*
%TO.P,J4,10,Pin_10*%
%TO.N,/IO9_I2C_SDA*%
X170307000Y-69342000D03*
%TO.P,J4,11,Pin_11*%
%TO.N,/IO10_UART_RX*%
X170307000Y-71882000D03*
%TO.P,J4,12,Pin_12*%
%TO.N,/IO11_UART_TX*%
X170307000Y-74422000D03*
%TO.P,J4,13,Pin_13*%
%TO.N,/IO12*%
X170307000Y-76962000D03*
%TO.P,J4,14,Pin_14*%
%TO.N,/IO13*%
X170307000Y-79502000D03*
%TO.P,J4,15,Pin_15*%
%TO.N,/IO14*%
X170307000Y-82042000D03*
%TO.P,J4,16,Pin_16*%
%TO.N,/IO15*%
X170307000Y-84582000D03*
%TO.P,J4,17,Pin_17*%
%TO.N,+3V3*%
X170307000Y-87122000D03*
%TO.P,J4,18,Pin_18*%
%TO.N,GND*%
X170307000Y-89662000D03*
%TD*%
D13*
%TO.P,C2,1*%
%TO.N,GND*%
X162448000Y-74606500D03*
%TO.P,C2,2*%
%TO.N,Net-(U1-XTAL2)*%
X162448000Y-76681500D03*
%TD*%
D25*
%TO.P,C4,1*%
%TO.N,Net-(U1-AREF)*%
X127762000Y-71141500D03*
%TO.P,C4,2*%
%TO.N,GND*%
X127762000Y-69066500D03*
%TD*%
D26*
%TO.P,D2,1,K*%
%TO.N,/RXLED*%
X140580000Y-62738000D03*
%TO.P,D2,2,A*%
%TO.N,Net-(D2-A)*%
X142630000Y-62738000D03*
%TD*%
D25*
%TO.P,C1,1*%
%TO.N,GND*%
X162448000Y-70681500D03*
%TO.P,C1,2*%
%TO.N,Net-(U1-XTAL1)*%
X162448000Y-68606500D03*
%TD*%
D27*
%TO.P,Y1,1,1*%
%TO.N,Net-(U1-XTAL2)*%
X155448000Y-78581500D03*
%TO.P,Y1,2,2*%
%TO.N,Net-(U1-XTAL1)*%
X155448000Y-66706500D03*
%TD*%
D28*
%TO.P,R5,1*%
%TO.N,+3V3*%
X152289000Y-59309000D03*
%TO.P,R5,2*%
%TO.N,/RESET*%
X154289000Y-59309000D03*
%TD*%
D14*
%TO.P,J1,1,Pin_1*%
%TO.N,GND*%
X144526000Y-51497000D03*
D15*
%TO.P,J1,2,Pin_2*%
X144526000Y-48957000D03*
%TO.P,J1,3,Pin_3*%
%TO.N,/IO3_MOSI*%
X147066000Y-51497000D03*
%TO.P,J1,4,Pin_4*%
%TO.N,/IO7*%
X147066000Y-48957000D03*
%TO.P,J1,5,Pin_5*%
%TO.N,/IO2_SS*%
X149606000Y-51497000D03*
%TO.P,J1,6,Pin_6*%
%TO.N,/IO6*%
X149606000Y-48957000D03*
%TO.P,J1,7,Pin_7*%
%TO.N,/IO1*%
X152146000Y-51497000D03*
%TO.P,J1,8,Pin_8*%
%TO.N,/IO5_SCK*%
X152146000Y-48957000D03*
%TO.P,J1,9,Pin_9*%
%TO.N,/IO0*%
X154686000Y-51497000D03*
%TO.P,J1,10,Pin_10*%
%TO.N,/IO4_MISO*%
X154686000Y-48957000D03*
%TD*%
D28*
%TO.P,R3,1*%
%TO.N,+3V3*%
X129572000Y-62738000D03*
%TO.P,R3,2*%
%TO.N,Net-(D1-A)*%
X131572000Y-62738000D03*
%TD*%
D29*
%TO.P,J3,1,VBUS*%
%TO.N,/USB_VBUS*%
X137638000Y-87450000D03*
%TO.P,J3,2,D-*%
%TO.N,Net-(J3-D-)*%
X138288000Y-87450000D03*
%TO.P,J3,3,D+*%
%TO.N,Net-(J3-D+)*%
X138938000Y-87450000D03*
%TO.P,J3,4,ID*%
%TO.N,unconnected-(J3-ID-Pad4)*%
X139588000Y-87450000D03*
%TO.P,J3,5,GND*%
%TO.N,GND*%
X140238000Y-87450000D03*
D30*
%TO.P,J3,6,Shield*%
%TO.N,unconnected-(J3-Shield-Pad6)*%
X135363000Y-90100000D03*
D31*
X136618000Y-87870000D03*
D32*
X137813000Y-90100000D03*
X140063000Y-90100000D03*
D31*
X141258000Y-87870000D03*
D30*
X142513000Y-90100000D03*
%TD*%
D33*
%TO.N,GND*%
X149098000Y-58166000D03*
X151257000Y-63754000D03*
X148844000Y-64008000D03*
%TO.N,Net-(U1-UCAP)*%
X140589000Y-80010000D03*
X142615335Y-81582005D03*
%TO.N,/USB_VBUS*%
X132543000Y-81255000D03*
X137541000Y-86233000D03*
X141351000Y-82042000D03*
%TO.N,+3V3*%
X139700000Y-74295000D03*
X123571000Y-73406000D03*
X133604000Y-66802000D03*
X149606000Y-62484000D03*
X127889000Y-79121000D03*
X144018000Y-64262000D03*
X144018000Y-54991000D03*
X138557000Y-50292000D03*
X149860000Y-59309000D03*
X129603000Y-64516000D03*
X133604000Y-77470000D03*
X128905000Y-76835000D03*
%TO.N,/IO0*%
X142209853Y-79362080D03*
%TO.N,/IO1*%
X143129000Y-79756000D03*
%TO.N,/IO2_SS*%
X144272000Y-79375000D03*
%TO.N,/IO3_MOSI*%
X141605000Y-76454000D03*
%TO.N,/IO4_MISO*%
X140514000Y-65013697D03*
%TO.N,/IO5_SCK*%
X139700000Y-64389000D03*
%TO.N,/IO6*%
X138938000Y-65151000D03*
X156591000Y-56769000D03*
X149352000Y-46607000D03*
%TO.N,/IO7*%
X143383000Y-75078846D03*
X151130000Y-57023000D03*
%TO.N,/IO8_I2C_SCL*%
X148971000Y-71501000D03*
X144182000Y-71374000D03*
%TO.N,/IO9_I2C_SDA*%
X149696000Y-70612000D03*
X143384283Y-70770963D03*
%TO.N,/IO10_UART_RX*%
X142732000Y-69850000D03*
X150622000Y-70231000D03*
%TO.N,/IO11_UART_TX*%
X142007000Y-69073822D03*
%TO.N,/IO12*%
X143002000Y-65278000D03*
X162687000Y-62992000D03*
X156337000Y-60071000D03*
X142875000Y-59182000D03*
%TO.N,/IO13*%
X157480000Y-65151000D03*
X148844000Y-66421000D03*
%TO.N,/IO14*%
X142494000Y-75803846D03*
X148086653Y-79243347D03*
X141057370Y-68760439D03*
X141859000Y-60706000D03*
X142205000Y-64643000D03*
%TO.N,/IO15*%
X138493669Y-67977000D03*
X148209000Y-80391000D03*
X145669000Y-77851000D03*
%TO.N,/RESET*%
X148807000Y-76581000D03*
%TD*%
D34*
%TO.N,/TXLED*%
X137389000Y-63530000D02*
X137389000Y-66563000D01*
X136597000Y-62738000D02*
X137389000Y-63530000D01*
%TO.N,/RXLED*%
X139421000Y-62763000D02*
X138176000Y-64008000D01*
X138176000Y-64008000D02*
X138176000Y-66588000D01*
D35*
%TO.N,GND*%
X144589000Y-67882000D02*
X144526000Y-67945000D01*
X136271000Y-69088000D02*
X136246000Y-69063000D01*
X134889000Y-69063000D02*
X136246000Y-69063000D01*
X134889000Y-75463000D02*
X133706000Y-75463000D01*
X140238000Y-87450000D02*
X140238000Y-85949000D01*
X144589000Y-66563000D02*
X146289000Y-66563000D01*
X136423000Y-75463000D02*
X136652000Y-75692000D01*
X144983000Y-73863000D02*
X144399000Y-73279000D01*
X139789000Y-77963000D02*
X139789000Y-76365000D01*
X146289000Y-73863000D02*
X147777000Y-73863000D01*
X144589000Y-66563000D02*
X144589000Y-67882000D01*
X134889000Y-75463000D02*
X136423000Y-75463000D01*
X146289000Y-73863000D02*
X144983000Y-73863000D01*
X146289000Y-66563000D02*
X148844000Y-64008000D01*
X140238000Y-85949000D02*
X140335000Y-85852000D01*
X133706000Y-75463000D02*
X133477000Y-75692000D01*
X139789000Y-76365000D02*
X139827000Y-76327000D01*
X147777000Y-73863000D02*
X148082000Y-74168000D01*
D34*
%TO.N,Net-(U1-XTAL1)*%
X157348000Y-68606500D02*
X155448000Y-66706500D01*
X155448000Y-66706500D02*
X149891500Y-72263000D01*
X149891500Y-72263000D02*
X146289000Y-72263000D01*
X162448000Y-68606500D02*
X157348000Y-68606500D01*
%TO.N,Net-(U1-XTAL2)*%
X162448000Y-76681500D02*
X157348000Y-76681500D01*
X149929500Y-73063000D02*
X155448000Y-78581500D01*
X146289000Y-73063000D02*
X149929500Y-73063000D01*
X157348000Y-76681500D02*
X155448000Y-78581500D01*
%TO.N,Net-(U1-UCAP)*%
X143815830Y-82782500D02*
X142615335Y-81582005D01*
X144907000Y-82782500D02*
X143815830Y-82782500D01*
X140589000Y-80010000D02*
X140589000Y-77963000D01*
%TO.N,Net-(U1-AREF)*%
X132426500Y-74663000D02*
X128905000Y-71141500D01*
X134775000Y-74549000D02*
X134889000Y-74663000D01*
X128905000Y-71141500D02*
X127762000Y-71141500D01*
X134889000Y-74663000D02*
X132426500Y-74663000D01*
D35*
%TO.N,/USB_VBUS*%
X130470000Y-81409000D02*
X130316000Y-81255000D01*
X130316000Y-81255000D02*
X132543000Y-81255000D01*
X141389000Y-82004000D02*
X141389000Y-77963000D01*
X141351000Y-82042000D02*
X141389000Y-82004000D01*
X137638000Y-86330000D02*
X137541000Y-86233000D01*
X137638000Y-87450000D02*
X137638000Y-86330000D01*
X130470000Y-86868000D02*
X130470000Y-81409000D01*
%TO.N,+3V3*%
X140048154Y-74278846D02*
X139716154Y-74278846D01*
X128016000Y-81255000D02*
X128016000Y-79248000D01*
X134889000Y-68263000D02*
X132546500Y-68263000D01*
X139716154Y-74278846D02*
X139700000Y-74295000D01*
X147605000Y-62738000D02*
X149352000Y-62738000D01*
X128016000Y-74955000D02*
X128016000Y-75946000D01*
X128016000Y-75946000D02*
X128905000Y-76835000D01*
X132482500Y-67923500D02*
X133604000Y-66802000D01*
X139319000Y-50292000D02*
X138557000Y-50292000D01*
X134889000Y-76263000D02*
X134811000Y-76263000D01*
X132482500Y-68199000D02*
X132482500Y-67923500D01*
X134811000Y-76263000D02*
X133604000Y-77470000D01*
X144018000Y-65393371D02*
X144018000Y-64262000D01*
X137389000Y-76938000D02*
X137032000Y-76581000D01*
X146289000Y-74663000D02*
X146179846Y-74553846D01*
X122936000Y-72771000D02*
X123571000Y-73406000D01*
X132546500Y-68263000D02*
X132482500Y-68199000D01*
X146179846Y-74553846D02*
X143989371Y-74553846D01*
X129572000Y-62738000D02*
X129572000Y-64485000D01*
X149860000Y-59309000D02*
X148336000Y-59309000D01*
X137389000Y-76938000D02*
X137389000Y-77963000D01*
X143789000Y-66563000D02*
X143789000Y-65622371D01*
X149352000Y-62738000D02*
X149606000Y-62484000D01*
X135207000Y-76581000D02*
X134889000Y-76263000D01*
X122936000Y-71161000D02*
X122936000Y-72771000D01*
X148336000Y-59309000D02*
X144018000Y-54991000D01*
X128016000Y-79248000D02*
X127889000Y-79121000D01*
X152289000Y-59309000D02*
X149860000Y-59309000D01*
X143989371Y-74553846D02*
X143714371Y-74278846D01*
X137032000Y-76581000D02*
X135207000Y-76581000D01*
X143714371Y-74278846D02*
X140048154Y-74278846D01*
X144018000Y-54991000D02*
X139319000Y-50292000D01*
X143789000Y-65622371D02*
X144018000Y-65393371D01*
D34*
%TO.N,Net-(D1-A)*%
X131572000Y-62738000D02*
X134547000Y-62738000D01*
%TO.N,/RXLED*%
X140555000Y-62763000D02*
X139421000Y-62763000D01*
%TO.N,Net-(D2-A)*%
X142630000Y-62738000D02*
X145605000Y-62738000D01*
%TO.N,/IO0*%
X162465000Y-52737000D02*
X161225000Y-51497000D01*
X171932000Y-48107000D02*
X171932000Y-51715000D01*
X142209853Y-77983853D02*
X142189000Y-77963000D01*
X171932000Y-51715000D02*
X170910000Y-52737000D01*
X161225000Y-51497000D02*
X154686000Y-51497000D01*
X142209853Y-79362080D02*
X142209853Y-77983853D01*
X170910000Y-52737000D02*
X162465000Y-52737000D01*
X170307000Y-46482000D02*
X171932000Y-48107000D01*
%TO.N,/IO1*%
X143129000Y-79756000D02*
X143129000Y-78103000D01*
X152146000Y-51497000D02*
X153511000Y-50132000D01*
X168054000Y-50132000D02*
X169164000Y-49022000D01*
X169164000Y-49022000D02*
X170307000Y-49022000D01*
X153511000Y-50132000D02*
X168054000Y-50132000D01*
X143129000Y-78103000D02*
X142989000Y-77963000D01*
%TO.N,/IO2_SS*%
X150876000Y-48565299D02*
X150876000Y-50227000D01*
X170307000Y-51562000D02*
X171482000Y-50387000D01*
X171482000Y-50387000D02*
X171482000Y-48535299D01*
X151659299Y-47782000D02*
X150876000Y-48565299D01*
X144272000Y-79375000D02*
X143789000Y-78892000D01*
X171482000Y-48535299D02*
X170728701Y-47782000D01*
X143789000Y-78892000D02*
X143789000Y-77963000D01*
X170728701Y-47782000D02*
X151659299Y-47782000D01*
X150876000Y-50227000D02*
X149606000Y-51497000D01*
%TO.N,/IO3_MOSI*%
X153147000Y-57578000D02*
X147066000Y-51497000D01*
X141605000Y-76454000D02*
X141679846Y-76528846D01*
X144589000Y-77088000D02*
X144589000Y-77963000D01*
X144029846Y-76528846D02*
X144589000Y-77088000D01*
X160872000Y-57578000D02*
X153147000Y-57578000D01*
X141679846Y-76528846D02*
X144029846Y-76528846D01*
X162047000Y-56403000D02*
X160872000Y-57578000D01*
%TO.N,/IO4_MISO*%
X140514000Y-65013697D02*
X140589000Y-65088697D01*
X140589000Y-65088697D02*
X140589000Y-66563000D01*
%TO.N,/IO5_SCK*%
X152146000Y-49657000D02*
X152146000Y-48957000D01*
X139700000Y-64389000D02*
X139789000Y-64478000D01*
X153035000Y-55499000D02*
X150971000Y-53435000D01*
X159507000Y-56403000D02*
X158603000Y-55499000D01*
X158603000Y-55499000D02*
X153035000Y-55499000D01*
X150971000Y-50832000D02*
X152146000Y-49657000D01*
X150971000Y-53435000D02*
X150971000Y-50832000D01*
X139789000Y-64478000D02*
X139789000Y-66563000D01*
%TO.N,/IO6*%
X149352000Y-48703000D02*
X149606000Y-48957000D01*
X153026299Y-56769000D02*
X156591000Y-56769000D01*
X148241000Y-51983701D02*
X153026299Y-56769000D01*
X138989000Y-65202000D02*
X138938000Y-65151000D01*
X149352000Y-46607000D02*
X149352000Y-48703000D01*
X148241000Y-50322000D02*
X148241000Y-51983701D01*
X138989000Y-66563000D02*
X138989000Y-65202000D01*
X149606000Y-48957000D02*
X148241000Y-50322000D01*
%TO.N,/IO7*%
X145414000Y-76263000D02*
X146289000Y-76263000D01*
X151130000Y-57023000D02*
X150930299Y-57023000D01*
X145796000Y-51888701D02*
X145796000Y-50227000D01*
X143383000Y-75078846D02*
X144229846Y-75078846D01*
X144229846Y-75078846D02*
X145414000Y-76263000D01*
X150930299Y-57023000D02*
X145796000Y-51888701D01*
X145796000Y-50227000D02*
X147066000Y-48957000D01*
%TO.N,/IO8_I2C_SCL*%
X148933000Y-71463000D02*
X146289000Y-71463000D01*
X144271000Y-71463000D02*
X144182000Y-71374000D01*
X148971000Y-71501000D02*
X148933000Y-71463000D01*
X146289000Y-71463000D02*
X144271000Y-71463000D01*
%TO.N,/IO9_I2C_SDA*%
X149696000Y-70612000D02*
X149645000Y-70663000D01*
X146275000Y-70649000D02*
X146289000Y-70663000D01*
X143506246Y-70649000D02*
X146275000Y-70649000D01*
X143384283Y-70770963D02*
X143506246Y-70649000D01*
X149645000Y-70663000D02*
X146289000Y-70663000D01*
%TO.N,/IO10_UART_RX*%
X142732000Y-69850000D02*
X145276000Y-69850000D01*
X145289000Y-69863000D02*
X146289000Y-69863000D01*
X150254000Y-69863000D02*
X146289000Y-69863000D01*
X150622000Y-70231000D02*
X150254000Y-69863000D01*
X145276000Y-69850000D02*
X145289000Y-69863000D01*
%TO.N,/IO11_UART_TX*%
X142017822Y-69063000D02*
X142007000Y-69073822D01*
X167074000Y-71189000D02*
X167074000Y-69792000D01*
X160072000Y-62790000D02*
X157024000Y-62790000D01*
X170307000Y-74422000D02*
X167074000Y-71189000D01*
X156678000Y-62444000D02*
X154091000Y-62444000D01*
X154091000Y-62444000D02*
X147472000Y-69063000D01*
X146289000Y-69063000D02*
X142017822Y-69063000D01*
X147472000Y-69063000D02*
X146289000Y-69063000D01*
X157024000Y-62790000D02*
X156678000Y-62444000D01*
X167074000Y-69792000D02*
X160072000Y-62790000D01*
%TO.N,/IO12*%
X169820299Y-73247000D02*
X169794347Y-73272951D01*
X131826000Y-48957000D02*
X133001000Y-50132000D01*
X155829000Y-60579000D02*
X145702496Y-60579000D01*
X144630399Y-59506903D02*
X143199903Y-59506903D01*
X143002000Y-65278000D02*
X143002000Y-66550000D01*
X133001000Y-50132000D02*
X133001000Y-56928000D01*
X167524000Y-67829000D02*
X162687000Y-62992000D01*
X143199903Y-59506903D02*
X142875000Y-59182000D01*
X169794347Y-73272951D02*
X167524000Y-71002604D01*
X156337000Y-60071000D02*
X155829000Y-60579000D01*
X133001000Y-56928000D02*
X134482000Y-58409000D01*
X170793701Y-73247000D02*
X169820299Y-73247000D01*
X171482000Y-75787000D02*
X171482000Y-73935299D01*
X171482000Y-73935299D02*
X170793701Y-73247000D01*
X145702496Y-60579000D02*
X144630399Y-59506903D01*
X142102000Y-58409000D02*
X142875000Y-59182000D01*
X134482000Y-58409000D02*
X142102000Y-58409000D01*
X167524000Y-71002604D02*
X167524000Y-67829000D01*
X170307000Y-76962000D02*
X171482000Y-75787000D01*
X143002000Y-66550000D02*
X142989000Y-66563000D01*
%TO.N,/IO13*%
X166624000Y-69978396D02*
X161796604Y-65151000D01*
X130461000Y-55656604D02*
X133663396Y-58859000D01*
X148131000Y-66421000D02*
X146289000Y-68263000D01*
X170307000Y-79502000D02*
X166624000Y-75819000D01*
X130461000Y-50132000D02*
X130461000Y-55656604D01*
X146685000Y-67867000D02*
X146289000Y-68263000D01*
X142584000Y-59956903D02*
X143903903Y-59956903D01*
X143903903Y-59956903D02*
X145288000Y-61341000D01*
X150368000Y-62220695D02*
X150368000Y-64897000D01*
X129286000Y-48957000D02*
X130461000Y-50132000D01*
X133663396Y-58859000D02*
X141486097Y-58859000D01*
X145288000Y-61341000D02*
X149488305Y-61341000D01*
X149488305Y-61341000D02*
X150368000Y-62220695D01*
X150368000Y-64897000D02*
X148844000Y-66421000D01*
X166624000Y-75819000D02*
X166624000Y-69978396D01*
X141486097Y-58859000D02*
X142584000Y-59956903D01*
X148844000Y-66421000D02*
X148131000Y-66421000D01*
X161796604Y-65151000D02*
X157480000Y-65151000D01*
%TO.N,/IO14*%
X128016000Y-54102000D02*
X133223000Y-59309000D01*
X141282000Y-68773517D02*
X142189000Y-67866517D01*
X128016000Y-50227000D02*
X128016000Y-54102000D01*
X145316000Y-76863000D02*
X145706305Y-76863000D01*
X126746000Y-48957000D02*
X126746000Y-49657000D01*
X126746000Y-48957000D02*
X128016000Y-50227000D01*
X141299701Y-59309000D02*
X141859000Y-59868299D01*
X142189000Y-67866517D02*
X142189000Y-66563000D01*
X145706305Y-76863000D02*
X148086653Y-79243347D01*
X144256846Y-75803846D02*
X145316000Y-76863000D01*
X142205000Y-64643000D02*
X142205000Y-66547000D01*
X141859000Y-59868299D02*
X141859000Y-60706000D01*
X141057370Y-68760439D02*
X141070448Y-68773517D01*
X141070448Y-68773517D02*
X141282000Y-68773517D01*
X133223000Y-59309000D02*
X141299701Y-59309000D01*
X142494000Y-75803846D02*
X144256846Y-75803846D01*
X142205000Y-66547000D02*
X142189000Y-66563000D01*
%TO.N,/IO15*%
X141480000Y-62042900D02*
X141480000Y-66472000D01*
X138493669Y-67977000D02*
X140850000Y-67977000D01*
X145669000Y-77851000D02*
X148209000Y-80391000D01*
X141389000Y-67438000D02*
X141389000Y-66563000D01*
X124206000Y-48957000D02*
X124206000Y-49835299D01*
X125571000Y-52419000D02*
X134747000Y-61595000D01*
X140850000Y-67977000D02*
X141389000Y-67438000D01*
X141480000Y-66472000D02*
X141389000Y-66563000D01*
X124206000Y-49835299D02*
X125571000Y-51200299D01*
X125571000Y-51200299D02*
X125571000Y-52419000D01*
X134747000Y-61595000D02*
X141032100Y-61595000D01*
X141032100Y-61595000D02*
X141480000Y-62042900D01*
%TO.N,Net-(J3-D-)*%
X137541000Y-83169000D02*
X138288000Y-83916000D01*
X138288000Y-83916000D02*
X138288000Y-87450000D01*
%TO.N,Net-(J3-D+)*%
X139700000Y-83169000D02*
X138938000Y-83931000D01*
X138938000Y-83931000D02*
X138938000Y-87450000D01*
%TO.N,/RESET*%
X148807000Y-76581000D02*
X147689000Y-75463000D01*
X159141000Y-59309000D02*
X159507000Y-58943000D01*
X147689000Y-75463000D02*
X146289000Y-75463000D01*
X154289000Y-59309000D02*
X159141000Y-59309000D01*
X154289000Y-59309000D02*
X154289000Y-59616000D01*
D36*
%TO.N,/USB_D+*%
X138989000Y-77963000D02*
X138989000Y-80458000D01*
X138989000Y-80458000D02*
X139700000Y-81169000D01*
%TO.N,/USB_D-*%
X138189000Y-80521000D02*
X137541000Y-81169000D01*
X138189000Y-77963000D02*
X138189000Y-80521000D01*
%TD*%
%TA.AperFunction,Conductor*%
%TO.N,GND*%
G36*
X174059539Y-44470185D02*
G01*
X174105294Y-44522989D01*
X174116500Y-44574500D01*
X174116500Y-91442500D01*
X174096815Y-91509539D01*
X174044011Y-91555294D01*
X173992500Y-91566500D01*
X143206991Y-91566500D01*
X143139952Y-91546815D01*
X143094197Y-91494011D01*
X143084253Y-91424853D01*
X143113278Y-91361297D01*
X143128327Y-91346646D01*
X143194510Y-91292331D01*
X143241647Y-91253647D01*
X143369798Y-91097494D01*
X143465023Y-90919341D01*
X143523662Y-90726033D01*
X143538500Y-90575380D01*
X143538500Y-89624620D01*
X143523662Y-89473967D01*
X143465023Y-89280659D01*
X143465021Y-89280656D01*
X143465021Y-89280654D01*
X143369801Y-89102511D01*
X143369799Y-89102509D01*
X143369798Y-89102506D01*
X143330824Y-89055016D01*
X143241647Y-88946352D01*
X143085495Y-88818203D01*
X143085488Y-88818198D01*
X142907345Y-88722978D01*
X142714031Y-88664337D01*
X142534962Y-88646701D01*
X142513000Y-88644538D01*
X142512999Y-88644538D01*
X142469652Y-88648807D01*
X142401006Y-88635788D01*
X142350296Y-88587722D01*
X142333499Y-88525407D01*
X142333499Y-87097128D01*
X142327091Y-87037517D01*
X142276796Y-86902669D01*
X142276795Y-86902668D01*
X142276793Y-86902664D01*
X142190547Y-86787455D01*
X142190544Y-86787452D01*
X142075335Y-86701206D01*
X142075328Y-86701202D01*
X141940482Y-86650908D01*
X141940483Y-86650908D01*
X141880883Y-86644501D01*
X141880881Y-86644500D01*
X141880873Y-86644500D01*
X141880865Y-86644500D01*
X141018393Y-86644500D01*
X140951354Y-86624815D01*
X140905599Y-86572011D01*
X140902211Y-86563833D01*
X140881354Y-86507913D01*
X140881350Y-86507906D01*
X140795190Y-86392812D01*
X140795187Y-86392809D01*
X140680093Y-86306649D01*
X140680086Y-86306645D01*
X140545379Y-86256403D01*
X140545372Y-86256401D01*
X140485844Y-86250000D01*
X140438000Y-86250000D01*
X140438000Y-86410565D01*
X140418315Y-86477604D01*
X140365511Y-86523359D01*
X140296353Y-86533303D01*
X140232797Y-86504278D01*
X140214734Y-86484876D01*
X140145547Y-86392455D01*
X140087688Y-86349141D01*
X140045818Y-86293207D01*
X140038027Y-86250027D01*
X140038000Y-86250000D01*
X139990166Y-86250000D01*
X139928595Y-86256619D01*
X139902088Y-86256619D01*
X139890279Y-86255349D01*
X139835873Y-86249500D01*
X139835867Y-86249500D01*
X139687500Y-86249500D01*
X139620461Y-86229815D01*
X139574706Y-86177011D01*
X139563500Y-86125500D01*
X139563500Y-85107500D01*
X143682001Y-85107500D01*
X143682001Y-85244986D01*
X143692494Y-85347697D01*
X143747641Y-85514119D01*
X143747643Y-85514124D01*
X143839684Y-85663345D01*
X143963654Y-85787315D01*
X144112875Y-85879356D01*
X144112880Y-85879358D01*
X144279302Y-85934505D01*
X144279309Y-85934506D01*
X144382019Y-85944999D01*
X144656999Y-85944999D01*
X144657000Y-85944998D01*
X144657000Y-85107500D01*
X145157000Y-85107500D01*
X145157000Y-85944999D01*
X145431972Y-85944999D01*
X145431986Y-85944998D01*
X145534697Y-85934505D01*
X145701119Y-85879358D01*
X145701124Y-85879356D01*
X145850345Y-85787315D01*
X145974315Y-85663345D01*
X146066356Y-85514124D01*
X146066358Y-85514119D01*
X146121505Y-85347697D01*
X146121506Y-85347690D01*
X146131999Y-85244986D01*
X146132000Y-85244973D01*
X146132000Y-85107500D01*
X145157000Y-85107500D01*
X144657000Y-85107500D01*
X143682001Y-85107500D01*
X139563500Y-85107500D01*
X139563500Y-84393499D01*
X139583185Y-84326460D01*
X139635989Y-84280705D01*
X139687500Y-84269499D01*
X140200002Y-84269499D01*
X140200008Y-84269499D01*
X140302797Y-84258999D01*
X140469334Y-84203814D01*
X140618656Y-84111712D01*
X140742712Y-83987656D01*
X140834814Y-83838334D01*
X140889999Y-83671797D01*
X140900500Y-83569009D01*
X140900499Y-83018087D01*
X140920183Y-82951049D01*
X140972987Y-82905294D01*
X141042146Y-82895350D01*
X141064772Y-82901876D01*
X141065013Y-82901135D01*
X141071197Y-82903144D01*
X141256354Y-82942500D01*
X141256355Y-82942500D01*
X141445644Y-82942500D01*
X141445646Y-82942500D01*
X141630803Y-82903144D01*
X141803730Y-82826151D01*
X141956871Y-82714888D01*
X142083533Y-82574216D01*
X142139437Y-82477386D01*
X142190002Y-82429173D01*
X142258609Y-82415949D01*
X142297259Y-82426109D01*
X142324668Y-82438312D01*
X142335532Y-82443149D01*
X142520689Y-82482505D01*
X142579883Y-82482505D01*
X142646922Y-82502190D01*
X142667563Y-82518823D01*
X143025283Y-82876544D01*
X143315027Y-83166288D01*
X143324852Y-83178551D01*
X143325073Y-83178369D01*
X143330041Y-83184374D01*
X143379052Y-83230399D01*
X143381851Y-83233112D01*
X143401352Y-83252614D01*
X143401356Y-83252617D01*
X143401359Y-83252620D01*
X143404532Y-83255081D01*
X143413404Y-83262659D01*
X143445248Y-83292562D01*
X143462806Y-83302214D01*
X143479065Y-83312895D01*
X143494894Y-83325173D01*
X143534985Y-83342521D01*
X143545456Y-83347651D01*
X143566096Y-83358998D01*
X143583732Y-83368694D01*
X143583734Y-83368695D01*
X143583738Y-83368697D01*
X143603146Y-83373680D01*
X143621549Y-83379981D01*
X143639931Y-83387936D01*
X143639932Y-83387936D01*
X143639934Y-83387937D01*
X143667419Y-83392290D01*
X143730552Y-83422218D01*
X143753558Y-83449665D01*
X143839288Y-83588656D01*
X143963344Y-83712712D01*
X143966628Y-83714737D01*
X143966653Y-83714753D01*
X143968445Y-83716746D01*
X143969011Y-83717193D01*
X143968934Y-83717289D01*
X144013379Y-83766699D01*
X144024603Y-83835661D01*
X143996761Y-83899744D01*
X143966665Y-83925826D01*
X143963660Y-83927679D01*
X143963655Y-83927683D01*
X143839684Y-84051654D01*
X143747643Y-84200875D01*
X143747641Y-84200880D01*
X143692494Y-84367302D01*
X143692493Y-84367309D01*
X143682000Y-84470013D01*
X143682000Y-84607500D01*
X146131999Y-84607500D01*
X146131999Y-84470028D01*
X146131998Y-84470013D01*
X146121505Y-84367302D01*
X146066358Y-84200880D01*
X146066356Y-84200875D01*
X145974315Y-84051654D01*
X145850344Y-83927683D01*
X145850341Y-83927681D01*
X145847339Y-83925829D01*
X145845713Y-83924021D01*
X145844677Y-83923202D01*
X145844817Y-83923024D01*
X145800617Y-83873880D01*
X145789397Y-83804917D01*
X145817243Y-83740836D01*
X145847344Y-83714754D01*
X145850656Y-83712712D01*
X145974712Y-83588656D01*
X146066814Y-83439334D01*
X146121999Y-83272797D01*
X146132500Y-83170009D01*
X146132499Y-82394992D01*
X146121999Y-82292203D01*
X146066814Y-82125666D01*
X145974712Y-81976344D01*
X145850656Y-81852288D01*
X145701334Y-81760186D01*
X145534797Y-81705001D01*
X145534795Y-81705000D01*
X145432010Y-81694500D01*
X144381998Y-81694500D01*
X144381980Y-81694501D01*
X144279203Y-81705000D01*
X144279200Y-81705001D01*
X144112668Y-81760185D01*
X144112663Y-81760187D01*
X144068846Y-81787214D01*
X143963344Y-81852288D01*
X143963341Y-81852290D01*
X143963339Y-81852292D01*
X143954450Y-81861180D01*
X143893124Y-81894660D01*
X143823433Y-81889671D01*
X143779094Y-81861173D01*
X143554295Y-81636374D01*
X143520810Y-81575051D01*
X143518658Y-81561673D01*
X143501009Y-81393749D01*
X143442514Y-81213721D01*
X143347868Y-81049789D01*
X143221206Y-80909117D01*
X143190374Y-80886716D01*
X143178076Y-80877781D01*
X143135410Y-80822451D01*
X143129431Y-80752838D01*
X143162037Y-80691043D01*
X143222875Y-80656685D01*
X143225104Y-80656190D01*
X143408803Y-80617144D01*
X143581730Y-80540151D01*
X143734871Y-80428888D01*
X143861533Y-80288216D01*
X143861540Y-80288203D01*
X143864447Y-80284203D01*
X143919775Y-80241535D01*
X143989388Y-80235553D01*
X143990550Y-80235794D01*
X143992197Y-80236144D01*
X144177354Y-80275500D01*
X144177355Y-80275500D01*
X144366644Y-80275500D01*
X144366646Y-80275500D01*
X144551803Y-80236144D01*
X144724730Y-80159151D01*
X144877871Y-80047888D01*
X145004533Y-79907216D01*
X145099179Y-79743284D01*
X145157674Y-79563256D01*
X145177460Y-79375000D01*
X145158370Y-79193373D01*
X145170939Y-79124648D01*
X145207383Y-79081147D01*
X145221546Y-79070546D01*
X145307796Y-78955331D01*
X145358091Y-78820483D01*
X145358091Y-78820481D01*
X145360447Y-78814165D01*
X145402317Y-78758231D01*
X145467781Y-78733813D01*
X145502402Y-78736206D01*
X145574354Y-78751500D01*
X145633548Y-78751500D01*
X145700587Y-78771185D01*
X145721229Y-78787819D01*
X147270038Y-80336629D01*
X147303523Y-80397952D01*
X147305678Y-80411348D01*
X147310815Y-80460223D01*
X147323326Y-80579256D01*
X147323327Y-80579259D01*
X147381818Y-80759277D01*
X147381821Y-80759284D01*
X147476467Y-80923216D01*
X147548756Y-81003501D01*
X147603129Y-81063888D01*
X147756265Y-81175148D01*
X147756270Y-81175151D01*
X147929192Y-81252142D01*
X147929197Y-81252144D01*
X148114354Y-81291500D01*
X148114355Y-81291500D01*
X148303644Y-81291500D01*
X148303646Y-81291500D01*
X148488803Y-81252144D01*
X148661730Y-81175151D01*
X148814871Y-81063888D01*
X148941533Y-80923216D01*
X149036179Y-80759284D01*
X149094674Y-80579256D01*
X149114460Y-80391000D01*
X149094674Y-80202744D01*
X149036179Y-80022716D01*
X148941533Y-79858784D01*
X148897991Y-79810426D01*
X148867762Y-79747436D01*
X148876387Y-79678100D01*
X148882745Y-79665474D01*
X148913832Y-79611631D01*
X148972327Y-79431603D01*
X148992113Y-79243347D01*
X148972327Y-79055091D01*
X148913832Y-78875063D01*
X148819186Y-78711131D01*
X148692524Y-78570459D01*
X148692523Y-78570458D01*
X148539387Y-78459198D01*
X148539382Y-78459195D01*
X148366460Y-78382204D01*
X148366455Y-78382202D01*
X148220654Y-78351212D01*
X148181299Y-78342847D01*
X148181298Y-78342847D01*
X148122105Y-78342847D01*
X148055066Y-78323162D01*
X148034424Y-78306528D01*
X146978076Y-77250180D01*
X146944591Y-77188857D01*
X146949575Y-77119165D01*
X146991447Y-77063232D01*
X147056911Y-77038815D01*
X147065757Y-77038499D01*
X147086871Y-77038499D01*
X147086872Y-77038499D01*
X147146483Y-77032091D01*
X147281331Y-76981796D01*
X147396546Y-76895546D01*
X147482796Y-76780331D01*
X147533091Y-76645483D01*
X147539500Y-76585873D01*
X147539499Y-76497449D01*
X147559183Y-76430413D01*
X147611986Y-76384657D01*
X147681145Y-76374713D01*
X147744701Y-76403737D01*
X147751180Y-76409770D01*
X147868038Y-76526628D01*
X147901523Y-76587951D01*
X147903678Y-76601347D01*
X147908449Y-76646740D01*
X147921326Y-76769256D01*
X147921327Y-76769259D01*
X147979818Y-76949277D01*
X147979821Y-76949284D01*
X148074467Y-77113216D01*
X148181195Y-77231749D01*
X148201129Y-77253888D01*
X148354265Y-77365148D01*
X148354270Y-77365151D01*
X148527192Y-77442142D01*
X148527197Y-77442144D01*
X148712354Y-77481500D01*
X148712355Y-77481500D01*
X148901644Y-77481500D01*
X148901646Y-77481500D01*
X149086803Y-77442144D01*
X149259730Y-77365151D01*
X149412871Y-77253888D01*
X149539533Y-77113216D01*
X149634179Y-76949284D01*
X149692674Y-76769256D01*
X149712460Y-76581000D01*
X149692674Y-76392744D01*
X149634179Y-76212716D01*
X149539533Y-76048784D01*
X149412871Y-75908112D01*
X149412870Y-75908111D01*
X149259734Y-75796851D01*
X149259729Y-75796848D01*
X149086807Y-75719857D01*
X149086802Y-75719855D01*
X148941001Y-75688865D01*
X148901646Y-75680500D01*
X148901645Y-75680500D01*
X148842452Y-75680500D01*
X148775413Y-75660815D01*
X148754771Y-75644181D01*
X148474323Y-75363733D01*
X148189803Y-75079212D01*
X148179980Y-75066950D01*
X148179759Y-75067134D01*
X148174786Y-75061122D01*
X148125776Y-75015099D01*
X148122977Y-75012386D01*
X148103477Y-74992885D01*
X148103471Y-74992880D01*
X148100286Y-74990409D01*
X148091434Y-74982848D01*
X148059582Y-74952938D01*
X148059580Y-74952936D01*
X148059577Y-74952935D01*
X148042029Y-74943288D01*
X148025763Y-74932604D01*
X148009932Y-74920324D01*
X147969849Y-74902978D01*
X147959363Y-74897841D01*
X147921094Y-74876803D01*
X147921092Y-74876802D01*
X147901693Y-74871822D01*
X147883281Y-74865518D01*
X147864898Y-74857562D01*
X147864892Y-74857560D01*
X147821760Y-74850729D01*
X147810322Y-74848361D01*
X147768020Y-74837500D01*
X147768019Y-74837500D01*
X147747984Y-74837500D01*
X147728586Y-74835973D01*
X147721162Y-74834797D01*
X147708805Y-74832840D01*
X147708803Y-74832839D01*
X147675167Y-74836019D01*
X147606572Y-74822730D01*
X147556052Y-74774465D01*
X147539499Y-74712571D01*
X147539499Y-74340128D01*
X147533091Y-74280517D01*
X147533090Y-74280516D01*
X147532380Y-74273904D01*
X147532381Y-74247393D01*
X147538999Y-74185842D01*
X147539000Y-74185827D01*
X147539000Y-74113000D01*
X147520409Y-74113000D01*
X147453370Y-74093315D01*
X147421144Y-74063313D01*
X147396546Y-74030454D01*
X147305457Y-73962265D01*
X147263588Y-73906333D01*
X147258604Y-73836641D01*
X147292089Y-73775318D01*
X147305451Y-73763739D01*
X147372921Y-73713232D01*
X147438386Y-73688816D01*
X147447231Y-73688500D01*
X149619048Y-73688500D01*
X149686087Y-73708185D01*
X149706729Y-73724819D01*
X153911181Y-77929271D01*
X153944666Y-77990594D01*
X153947500Y-78016952D01*
X153947500Y-82566870D01*
X153947501Y-82566876D01*
X153953908Y-82626483D01*
X154004202Y-82761328D01*
X154004206Y-82761335D01*
X154090452Y-82876544D01*
X154090455Y-82876547D01*
X154205664Y-82962793D01*
X154205671Y-82962797D01*
X154340517Y-83013091D01*
X154340516Y-83013091D01*
X154347444Y-83013835D01*
X154400127Y-83019500D01*
X156495872Y-83019499D01*
X156555483Y-83013091D01*
X156690331Y-82962796D01*
X156805546Y-82876546D01*
X156891796Y-82761331D01*
X156942091Y-82626483D01*
X156948500Y-82566873D01*
X156948499Y-78016951D01*
X156968184Y-77949913D01*
X156984818Y-77929271D01*
X157570771Y-77343319D01*
X157632094Y-77309834D01*
X157658452Y-77307000D01*
X161199652Y-77307000D01*
X161266691Y-77326685D01*
X161305189Y-77365901D01*
X161380288Y-77487656D01*
X161504344Y-77611712D01*
X161653666Y-77703814D01*
X161820203Y-77758999D01*
X161922991Y-77769500D01*
X162973008Y-77769499D01*
X162973016Y-77769498D01*
X162973019Y-77769498D01*
X163029302Y-77763748D01*
X163075797Y-77758999D01*
X163242334Y-77703814D01*
X163391656Y-77611712D01*
X163515712Y-77487656D01*
X163607814Y-77338334D01*
X163662999Y-77171797D01*
X163673500Y-77069009D01*
X163673499Y-76293992D01*
X163670613Y-76265744D01*
X163662999Y-76191203D01*
X163662998Y-76191200D01*
X163646042Y-76140031D01*
X163607814Y-76024666D01*
X163515712Y-75875344D01*
X163391656Y-75751288D01*
X163388342Y-75749243D01*
X163386546Y-75747248D01*
X163385989Y-75746807D01*
X163386064Y-75746711D01*
X163341618Y-75697297D01*
X163330397Y-75628334D01*
X163358240Y-75564252D01*
X163388348Y-75538165D01*
X163391342Y-75536318D01*
X163515315Y-75412345D01*
X163607356Y-75263124D01*
X163607358Y-75263119D01*
X163662505Y-75096697D01*
X163662506Y-75096690D01*
X163672999Y-74993986D01*
X163673000Y-74993973D01*
X163673000Y-74856500D01*
X161223001Y-74856500D01*
X161223001Y-74993986D01*
X161233494Y-75096697D01*
X161288641Y-75263119D01*
X161288643Y-75263124D01*
X161380684Y-75412345D01*
X161504655Y-75536316D01*
X161504659Y-75536319D01*
X161507656Y-75538168D01*
X161509279Y-75539972D01*
X161510323Y-75540798D01*
X161510181Y-75540976D01*
X161554381Y-75590116D01*
X161565602Y-75659079D01*
X161537759Y-75723161D01*
X161507661Y-75749241D01*
X161504349Y-75751283D01*
X161504343Y-75751288D01*
X161380289Y-75875342D01*
X161365419Y-75899451D01*
X161309100Y-75990760D01*
X161305191Y-75997097D01*
X161253243Y-76043821D01*
X161199652Y-76056000D01*
X157430743Y-76056000D01*
X157415122Y-76054275D01*
X157415095Y-76054561D01*
X157407333Y-76053826D01*
X157340113Y-76055939D01*
X157336219Y-76056000D01*
X157308650Y-76056000D01*
X157304673Y-76056502D01*
X157293042Y-76057417D01*
X157249374Y-76058789D01*
X157249368Y-76058790D01*
X157230126Y-76064380D01*
X157211087Y-76068323D01*
X157191217Y-76070834D01*
X157191203Y-76070837D01*
X157150598Y-76086913D01*
X157139552Y-76090695D01*
X157107096Y-76100125D01*
X157037227Y-76099927D01*
X156978556Y-76061986D01*
X156949712Y-75998348D01*
X156948499Y-75981049D01*
X156948499Y-74596129D01*
X156948498Y-74596123D01*
X156948497Y-74596116D01*
X156942091Y-74536517D01*
X156891796Y-74401669D01*
X156891795Y-74401668D01*
X156891793Y-74401664D01*
X156857983Y-74356500D01*
X161223000Y-74356500D01*
X162198000Y-74356500D01*
X162198000Y-73519000D01*
X162698000Y-73519000D01*
X162698000Y-74356500D01*
X163672999Y-74356500D01*
X163672999Y-74219028D01*
X163672998Y-74219013D01*
X163662505Y-74116302D01*
X163607358Y-73949880D01*
X163607356Y-73949875D01*
X163515315Y-73800654D01*
X163391345Y-73676684D01*
X163242124Y-73584643D01*
X163242119Y-73584641D01*
X163075697Y-73529494D01*
X163075690Y-73529493D01*
X162972986Y-73519000D01*
X162698000Y-73519000D01*
X162198000Y-73519000D01*
X161923029Y-73519000D01*
X161923012Y-73519001D01*
X161820302Y-73529494D01*
X161653880Y-73584641D01*
X161653875Y-73584643D01*
X161504654Y-73676684D01*
X161380684Y-73800654D01*
X161288643Y-73949875D01*
X161288641Y-73949880D01*
X161233494Y-74116302D01*
X161233493Y-74116309D01*
X161223000Y-74219013D01*
X161223000Y-74356500D01*
X156857983Y-74356500D01*
X156805547Y-74286455D01*
X156805544Y-74286452D01*
X156690335Y-74200206D01*
X156690328Y-74200202D01*
X156555482Y-74149908D01*
X156555483Y-74149908D01*
X156495883Y-74143501D01*
X156495881Y-74143500D01*
X156495873Y-74143500D01*
X156495864Y-74143500D01*
X154400129Y-74143500D01*
X154400123Y-74143501D01*
X154340516Y-74149908D01*
X154205671Y-74200202D01*
X154205664Y-74200206D01*
X154090455Y-74286452D01*
X154090452Y-74286455D01*
X154004206Y-74401664D01*
X154004202Y-74401671D01*
X153953908Y-74536517D01*
X153947501Y-74596116D01*
X153947501Y-74596123D01*
X153947500Y-74596135D01*
X153947500Y-75897047D01*
X153927815Y-75964086D01*
X153875011Y-76009841D01*
X153805853Y-76019785D01*
X153742297Y-75990760D01*
X153735819Y-75984728D01*
X150482771Y-72731680D01*
X150449286Y-72670357D01*
X150454270Y-72600665D01*
X150482771Y-72556318D01*
X152107589Y-70931500D01*
X153735821Y-69303267D01*
X153797142Y-69269784D01*
X153866834Y-69274768D01*
X153922767Y-69316640D01*
X153947184Y-69382104D01*
X153947500Y-69390950D01*
X153947500Y-70691870D01*
X153947501Y-70691876D01*
X153953908Y-70751483D01*
X154004202Y-70886328D01*
X154004206Y-70886335D01*
X154090452Y-71001544D01*
X154090455Y-71001547D01*
X154205664Y-71087793D01*
X154205671Y-71087797D01*
X154340517Y-71138091D01*
X154340516Y-71138091D01*
X154347444Y-71138835D01*
X154400127Y-71144500D01*
X156495872Y-71144499D01*
X156555483Y-71138091D01*
X156690331Y-71087796D01*
X156805546Y-71001546D01*
X156857982Y-70931500D01*
X161223001Y-70931500D01*
X161223001Y-71068986D01*
X161233494Y-71171697D01*
X161288641Y-71338119D01*
X161288643Y-71338124D01*
X161380684Y-71487345D01*
X161504654Y-71611315D01*
X161653875Y-71703356D01*
X161653880Y-71703358D01*
X161820302Y-71758505D01*
X161820309Y-71758506D01*
X161923019Y-71768999D01*
X162197999Y-71768999D01*
X162198000Y-71768998D01*
X162198000Y-70931500D01*
X162698000Y-70931500D01*
X162698000Y-71768999D01*
X162972972Y-71768999D01*
X162972986Y-71768998D01*
X163075697Y-71758505D01*
X163242119Y-71703358D01*
X163242124Y-71703356D01*
X163391345Y-71611315D01*
X163515315Y-71487345D01*
X163607356Y-71338124D01*
X163607358Y-71338119D01*
X163662505Y-71171697D01*
X163662506Y-71171690D01*
X163672999Y-71068986D01*
X163673000Y-71068973D01*
X163673000Y-70931500D01*
X162698000Y-70931500D01*
X162198000Y-70931500D01*
X161223001Y-70931500D01*
X156857982Y-70931500D01*
X156891796Y-70886331D01*
X156942091Y-70751483D01*
X156948500Y-70691873D01*
X156948499Y-69308874D01*
X156968184Y-69241836D01*
X157020987Y-69196081D01*
X157090146Y-69186137D01*
X157108295Y-69190963D01*
X157108349Y-69190756D01*
X157115906Y-69192696D01*
X157115908Y-69192697D01*
X157135312Y-69197679D01*
X157153710Y-69203978D01*
X157172105Y-69211938D01*
X157215254Y-69218771D01*
X157226680Y-69221138D01*
X157268981Y-69232000D01*
X157289016Y-69232000D01*
X157308413Y-69233526D01*
X157328196Y-69236660D01*
X157371675Y-69232550D01*
X157383344Y-69232000D01*
X161199652Y-69232000D01*
X161266691Y-69251685D01*
X161305189Y-69290901D01*
X161380288Y-69412656D01*
X161504344Y-69536712D01*
X161507628Y-69538737D01*
X161507653Y-69538753D01*
X161509445Y-69540746D01*
X161510011Y-69541193D01*
X161509934Y-69541289D01*
X161554379Y-69590699D01*
X161565603Y-69659661D01*
X161537761Y-69723744D01*
X161507665Y-69749826D01*
X161504660Y-69751679D01*
X161504655Y-69751683D01*
X161380684Y-69875654D01*
X161288643Y-70024875D01*
X161288641Y-70024880D01*
X161233494Y-70191302D01*
X161233493Y-70191309D01*
X161223000Y-70294013D01*
X161223000Y-70431500D01*
X163672999Y-70431500D01*
X163672999Y-70294028D01*
X163672998Y-70294013D01*
X163662505Y-70191302D01*
X163607358Y-70024880D01*
X163607356Y-70024875D01*
X163515315Y-69875654D01*
X163391344Y-69751683D01*
X163391341Y-69751681D01*
X163388339Y-69749829D01*
X163386713Y-69748021D01*
X163385677Y-69747202D01*
X163385817Y-69747024D01*
X163341617Y-69697880D01*
X163330397Y-69628917D01*
X163358243Y-69564836D01*
X163388344Y-69538754D01*
X163391656Y-69536712D01*
X163515712Y-69412656D01*
X163607814Y-69263334D01*
X163662999Y-69096797D01*
X163673500Y-68994009D01*
X163673499Y-68218992D01*
X163673498Y-68218984D01*
X163673445Y-68217940D01*
X163673499Y-68217714D01*
X163673499Y-68215835D01*
X163673948Y-68215835D01*
X163689695Y-68149986D01*
X163740103Y-68101605D01*
X163808666Y-68088156D01*
X163873616Y-68113911D01*
X163884966Y-68123952D01*
X165962181Y-70201167D01*
X165995666Y-70262490D01*
X165998500Y-70288848D01*
X165998500Y-75736255D01*
X165996775Y-75751872D01*
X165997061Y-75751899D01*
X165996326Y-75759665D01*
X165998439Y-75826872D01*
X165998500Y-75830767D01*
X165998500Y-75858357D01*
X165999003Y-75862335D01*
X165999918Y-75873967D01*
X166001290Y-75917624D01*
X166001291Y-75917627D01*
X166006880Y-75936867D01*
X166010824Y-75955911D01*
X166012395Y-75968339D01*
X166013336Y-75975792D01*
X166029414Y-76016403D01*
X166033197Y-76027452D01*
X166044936Y-76067857D01*
X166045382Y-76069390D01*
X166055040Y-76085722D01*
X166055580Y-76086634D01*
X166064136Y-76104100D01*
X166069659Y-76118046D01*
X166071514Y-76122732D01*
X166097181Y-76158060D01*
X166103593Y-76167821D01*
X166125828Y-76205417D01*
X166125833Y-76205424D01*
X166139990Y-76219580D01*
X166152627Y-76234375D01*
X166164406Y-76250587D01*
X166197689Y-76278121D01*
X166198057Y-76278425D01*
X166206698Y-76286288D01*
X168966762Y-79046352D01*
X169000247Y-79107675D01*
X168998856Y-79166126D01*
X168971938Y-79266586D01*
X168971936Y-79266596D01*
X168951341Y-79501999D01*
X168951341Y-79502000D01*
X168971936Y-79737403D01*
X168971938Y-79737413D01*
X169033094Y-79965655D01*
X169033096Y-79965659D01*
X169033097Y-79965663D01*
X169123321Y-80159148D01*
X169132965Y-80179830D01*
X169132967Y-80179834D01*
X169268501Y-80373395D01*
X169268506Y-80373402D01*
X169435597Y-80540493D01*
X169435603Y-80540498D01*
X169621158Y-80670425D01*
X169664783Y-80725002D01*
X169671977Y-80794500D01*
X169640454Y-80856855D01*
X169621158Y-80873575D01*
X169435597Y-81003505D01*
X169268505Y-81170597D01*
X169132965Y-81364169D01*
X169132964Y-81364171D01*
X169096085Y-81443259D01*
X169037451Y-81569001D01*
X169033098Y-81578335D01*
X169033094Y-81578344D01*
X168971938Y-81806586D01*
X168971936Y-81806596D01*
X168951341Y-82041999D01*
X168951341Y-82042000D01*
X168971936Y-82277403D01*
X168971938Y-82277413D01*
X169033094Y-82505655D01*
X169033096Y-82505659D01*
X169033097Y-82505663D01*
X169093913Y-82636082D01*
X169132965Y-82719830D01*
X169132967Y-82719834D01*
X169207412Y-82826151D01*
X169262828Y-82905294D01*
X169268501Y-82913395D01*
X169268506Y-82913402D01*
X169435597Y-83080493D01*
X169435603Y-83080498D01*
X169621158Y-83210425D01*
X169664783Y-83265002D01*
X169671977Y-83334500D01*
X169640454Y-83396855D01*
X169621158Y-83413575D01*
X169435597Y-83543505D01*
X169268505Y-83710597D01*
X169132965Y-83904169D01*
X169132964Y-83904171D01*
X169033098Y-84118335D01*
X169033094Y-84118344D01*
X168971938Y-84346586D01*
X168971936Y-84346596D01*
X168951341Y-84581999D01*
X168951341Y-84582000D01*
X168971936Y-84817403D01*
X168971938Y-84817413D01*
X169033094Y-85045655D01*
X169033096Y-85045659D01*
X169033097Y-85045663D01*
X169109029Y-85208500D01*
X169132965Y-85259830D01*
X169132967Y-85259834D01*
X169268501Y-85453395D01*
X169268506Y-85453402D01*
X169435597Y-85620493D01*
X169435603Y-85620498D01*
X169621158Y-85750425D01*
X169664783Y-85805002D01*
X169671977Y-85874500D01*
X169640454Y-85936855D01*
X169621158Y-85953575D01*
X169435597Y-86083505D01*
X169268505Y-86250597D01*
X169132965Y-86444169D01*
X169132964Y-86444171D01*
X169033098Y-86658335D01*
X169033094Y-86658344D01*
X168971938Y-86886586D01*
X168971936Y-86886596D01*
X168951341Y-87121999D01*
X168951341Y-87122000D01*
X168971936Y-87357403D01*
X168971938Y-87357413D01*
X169033094Y-87585655D01*
X169033096Y-87585659D01*
X169033097Y-87585663D01*
X169132965Y-87799830D01*
X169132967Y-87799834D01*
X169268501Y-87993395D01*
X169268506Y-87993402D01*
X169435597Y-88160493D01*
X169435603Y-88160498D01*
X169621594Y-88290730D01*
X169665219Y-88345307D01*
X169672413Y-88414805D01*
X169640890Y-88477160D01*
X169621595Y-88493880D01*
X169435922Y-88623890D01*
X169435920Y-88623891D01*
X169268891Y-88790920D01*
X169268886Y-88790926D01*
X169133400Y-88984420D01*
X169133399Y-88984422D01*
X169033570Y-89198507D01*
X169033567Y-89198513D01*
X168976364Y-89411999D01*
X168976364Y-89412000D01*
X169873314Y-89412000D01*
X169847507Y-89452156D01*
X169807000Y-89590111D01*
X169807000Y-89733889D01*
X169847507Y-89871844D01*
X169873314Y-89912000D01*
X168976364Y-89912000D01*
X169033567Y-90125486D01*
X169033570Y-90125492D01*
X169133399Y-90339578D01*
X169268894Y-90533082D01*
X169435917Y-90700105D01*
X169629421Y-90835600D01*
X169843507Y-90935429D01*
X169843516Y-90935433D01*
X170057000Y-90992634D01*
X170057000Y-90097501D01*
X170164685Y-90146680D01*
X170271237Y-90162000D01*
X170342763Y-90162000D01*
X170449315Y-90146680D01*
X170557000Y-90097501D01*
X170557000Y-90992633D01*
X170770483Y-90935433D01*
X170770492Y-90935429D01*
X170984578Y-90835600D01*
X171178082Y-90700105D01*
X171345105Y-90533082D01*
X171480600Y-90339578D01*
X171580429Y-90125492D01*
X171580432Y-90125486D01*
X171637636Y-89912000D01*
X170740686Y-89912000D01*
X170766493Y-89871844D01*
X170807000Y-89733889D01*
X170807000Y-89590111D01*
X170766493Y-89452156D01*
X170740686Y-89412000D01*
X171637636Y-89412000D01*
X171637635Y-89411999D01*
X171580432Y-89198513D01*
X171580429Y-89198507D01*
X171480600Y-88984422D01*
X171480599Y-88984420D01*
X171345113Y-88790926D01*
X171345108Y-88790920D01*
X171178078Y-88623890D01*
X170992405Y-88493879D01*
X170948780Y-88439302D01*
X170941588Y-88369804D01*
X170973110Y-88307449D01*
X170992406Y-88290730D01*
X171178401Y-88160495D01*
X171345495Y-87993401D01*
X171481035Y-87799830D01*
X171580903Y-87585663D01*
X171642063Y-87357408D01*
X171662659Y-87122000D01*
X171660482Y-87097123D01*
X171658539Y-87074918D01*
X171642063Y-86886592D01*
X171580903Y-86658337D01*
X171481035Y-86444171D01*
X171445074Y-86392812D01*
X171345494Y-86250597D01*
X171178402Y-86083506D01*
X171178396Y-86083501D01*
X170992842Y-85953575D01*
X170949217Y-85898998D01*
X170942023Y-85829500D01*
X170973546Y-85767145D01*
X170992842Y-85750425D01*
X171063735Y-85700785D01*
X171178401Y-85620495D01*
X171345495Y-85453401D01*
X171481035Y-85259830D01*
X171580903Y-85045663D01*
X171642063Y-84817408D01*
X171662659Y-84582000D01*
X171642063Y-84346592D01*
X171580903Y-84118337D01*
X171481035Y-83904171D01*
X171477936Y-83899744D01*
X171345494Y-83710597D01*
X171178402Y-83543506D01*
X171178396Y-83543501D01*
X170992842Y-83413575D01*
X170949217Y-83358998D01*
X170942023Y-83289500D01*
X170973546Y-83227145D01*
X170992842Y-83210425D01*
X171030042Y-83184377D01*
X171178401Y-83080495D01*
X171345495Y-82913401D01*
X171481035Y-82719830D01*
X171580903Y-82505663D01*
X171642063Y-82277408D01*
X171662659Y-82042000D01*
X171662409Y-82039148D01*
X171649768Y-81894660D01*
X171642063Y-81806592D01*
X171592946Y-81623284D01*
X171580905Y-81578344D01*
X171580904Y-81578343D01*
X171580903Y-81578337D01*
X171481035Y-81364171D01*
X171430151Y-81291500D01*
X171345494Y-81170597D01*
X171178402Y-81003506D01*
X171178396Y-81003501D01*
X170992842Y-80873575D01*
X170949217Y-80818998D01*
X170942023Y-80749500D01*
X170973546Y-80687145D01*
X170992842Y-80670425D01*
X171114604Y-80585166D01*
X171178401Y-80540495D01*
X171345495Y-80373401D01*
X171481035Y-80179830D01*
X171580903Y-79965663D01*
X171642063Y-79737408D01*
X171662659Y-79502000D01*
X171661546Y-79489284D01*
X171650140Y-79358912D01*
X171642063Y-79266592D01*
X171580903Y-79038337D01*
X171481035Y-78824171D01*
X171455582Y-78787819D01*
X171345494Y-78630597D01*
X171178402Y-78463506D01*
X171178396Y-78463501D01*
X170992842Y-78333575D01*
X170949217Y-78278998D01*
X170942023Y-78209500D01*
X170973546Y-78147145D01*
X170992842Y-78130425D01*
X171015026Y-78114891D01*
X171178401Y-78000495D01*
X171345495Y-77833401D01*
X171481035Y-77639830D01*
X171580903Y-77425663D01*
X171642063Y-77197408D01*
X171662659Y-76962000D01*
X171661546Y-76949284D01*
X171651185Y-76830856D01*
X171642063Y-76726592D01*
X171615143Y-76626123D01*
X171616806Y-76556277D01*
X171647235Y-76506354D01*
X171865788Y-76287801D01*
X171878042Y-76277986D01*
X171877859Y-76277764D01*
X171883868Y-76272791D01*
X171883877Y-76272786D01*
X171929949Y-76223722D01*
X171932566Y-76221023D01*
X171952120Y-76201471D01*
X171954576Y-76198303D01*
X171962156Y-76189427D01*
X171992062Y-76157582D01*
X172001715Y-76140020D01*
X172012389Y-76123770D01*
X172024673Y-76107936D01*
X172042019Y-76067850D01*
X172047157Y-76057362D01*
X172047228Y-76057234D01*
X172068197Y-76019092D01*
X172073177Y-75999691D01*
X172079478Y-75981288D01*
X172087438Y-75962896D01*
X172094272Y-75919741D01*
X172096635Y-75908331D01*
X172107500Y-75866019D01*
X172107500Y-75845983D01*
X172109027Y-75826582D01*
X172112160Y-75806804D01*
X172108050Y-75763324D01*
X172107500Y-75751655D01*
X172107500Y-74018041D01*
X172109224Y-74002421D01*
X172108939Y-74002395D01*
X172109671Y-73994639D01*
X172109673Y-73994632D01*
X172107561Y-73927425D01*
X172107500Y-73923530D01*
X172107500Y-73895953D01*
X172107500Y-73895949D01*
X172106996Y-73891964D01*
X172106080Y-73880320D01*
X172106075Y-73880151D01*
X172104709Y-73836672D01*
X172099122Y-73817443D01*
X172095174Y-73798383D01*
X172092663Y-73778503D01*
X172076588Y-73737903D01*
X172072804Y-73726851D01*
X172060618Y-73684908D01*
X172060616Y-73684905D01*
X172050423Y-73667670D01*
X172041861Y-73650193D01*
X172034487Y-73631568D01*
X172024929Y-73618413D01*
X172008811Y-73596229D01*
X172002405Y-73586476D01*
X171980170Y-73548879D01*
X171980168Y-73548877D01*
X171980165Y-73548873D01*
X171966006Y-73534714D01*
X171953368Y-73519918D01*
X171952701Y-73519000D01*
X171941594Y-73503712D01*
X171911237Y-73478599D01*
X171907940Y-73475871D01*
X171899299Y-73468008D01*
X171352473Y-72921181D01*
X171318988Y-72859858D01*
X171323972Y-72790166D01*
X171342688Y-72758045D01*
X171342389Y-72757836D01*
X171344904Y-72754242D01*
X171345170Y-72753788D01*
X171345486Y-72753409D01*
X171345495Y-72753401D01*
X171481035Y-72559830D01*
X171580903Y-72345663D01*
X171642063Y-72117408D01*
X171662659Y-71882000D01*
X171642063Y-71646592D01*
X171587739Y-71443851D01*
X171580905Y-71418344D01*
X171580904Y-71418343D01*
X171580903Y-71418337D01*
X171481035Y-71204171D01*
X171439253Y-71144499D01*
X171345494Y-71010597D01*
X171178402Y-70843506D01*
X171178396Y-70843501D01*
X170992842Y-70713575D01*
X170949217Y-70658998D01*
X170942023Y-70589500D01*
X170973546Y-70527145D01*
X170992842Y-70510425D01*
X171029627Y-70484668D01*
X171178401Y-70380495D01*
X171345495Y-70213401D01*
X171481035Y-70019830D01*
X171580903Y-69805663D01*
X171642063Y-69577408D01*
X171662659Y-69342000D01*
X171642063Y-69106592D01*
X171580903Y-68878337D01*
X171481035Y-68664171D01*
X171466580Y-68643526D01*
X171345494Y-68470597D01*
X171178402Y-68303506D01*
X171178396Y-68303501D01*
X170992842Y-68173575D01*
X170949217Y-68118998D01*
X170942023Y-68049500D01*
X170973546Y-67987145D01*
X170992842Y-67970425D01*
X171098957Y-67896122D01*
X171178401Y-67840495D01*
X171345495Y-67673401D01*
X171481035Y-67479830D01*
X171580903Y-67265663D01*
X171642063Y-67037408D01*
X171662659Y-66802000D01*
X171642063Y-66566592D01*
X171580903Y-66338337D01*
X171481035Y-66124171D01*
X171430151Y-66051500D01*
X171345494Y-65930597D01*
X171178402Y-65763506D01*
X171178396Y-65763501D01*
X170992842Y-65633575D01*
X170949217Y-65578998D01*
X170942023Y-65509500D01*
X170973546Y-65447145D01*
X170992842Y-65430425D01*
X171079639Y-65369649D01*
X171178401Y-65300495D01*
X171345495Y-65133401D01*
X171481035Y-64939830D01*
X171580903Y-64725663D01*
X171642063Y-64497408D01*
X171662659Y-64262000D01*
X171642063Y-64026592D01*
X171585973Y-63817257D01*
X171580905Y-63798344D01*
X171580904Y-63798343D01*
X171580903Y-63798337D01*
X171481035Y-63584171D01*
X171466755Y-63563776D01*
X171345494Y-63390597D01*
X171178402Y-63223506D01*
X171178396Y-63223501D01*
X170992842Y-63093575D01*
X170949217Y-63038998D01*
X170942023Y-62969500D01*
X170973546Y-62907145D01*
X170992842Y-62890425D01*
X171116635Y-62803744D01*
X171178401Y-62760495D01*
X171345495Y-62593401D01*
X171481035Y-62399830D01*
X171580903Y-62185663D01*
X171642063Y-61957408D01*
X171662659Y-61722000D01*
X171642063Y-61486592D01*
X171580903Y-61258337D01*
X171481035Y-61044171D01*
X171458812Y-61012432D01*
X171345494Y-60850597D01*
X171178402Y-60683506D01*
X171178396Y-60683501D01*
X170992842Y-60553575D01*
X170949217Y-60498998D01*
X170942023Y-60429500D01*
X170973546Y-60367145D01*
X170992842Y-60350425D01*
X171096188Y-60278061D01*
X171178401Y-60220495D01*
X171345495Y-60053401D01*
X171481035Y-59859830D01*
X171580903Y-59645663D01*
X171642063Y-59417408D01*
X171662659Y-59182000D01*
X171642063Y-58946592D01*
X171580903Y-58718337D01*
X171481035Y-58504171D01*
X171466368Y-58483223D01*
X171345494Y-58310597D01*
X171178402Y-58143506D01*
X171178396Y-58143501D01*
X170992842Y-58013575D01*
X170949217Y-57958998D01*
X170942023Y-57889500D01*
X170973546Y-57827145D01*
X170992842Y-57810425D01*
X171032080Y-57782950D01*
X171178401Y-57680495D01*
X171345495Y-57513401D01*
X171481035Y-57319830D01*
X171580903Y-57105663D01*
X171642063Y-56877408D01*
X171662659Y-56642000D01*
X171642063Y-56406592D01*
X171580903Y-56178337D01*
X171481035Y-55964171D01*
X171463647Y-55939337D01*
X171345494Y-55770597D01*
X171178402Y-55603506D01*
X171178396Y-55603501D01*
X170992842Y-55473575D01*
X170949217Y-55418998D01*
X170942023Y-55349500D01*
X170973546Y-55287145D01*
X170992842Y-55270425D01*
X171060964Y-55222725D01*
X171178401Y-55140495D01*
X171345495Y-54973401D01*
X171481035Y-54779830D01*
X171580903Y-54565663D01*
X171642063Y-54337408D01*
X171662659Y-54102000D01*
X171642063Y-53866592D01*
X171580903Y-53638337D01*
X171481035Y-53424171D01*
X171457725Y-53390881D01*
X171386845Y-53289653D01*
X171364518Y-53223447D01*
X171381528Y-53155680D01*
X171400735Y-53130853D01*
X172315787Y-52215802D01*
X172328042Y-52205986D01*
X172327859Y-52205764D01*
X172333868Y-52200791D01*
X172333877Y-52200786D01*
X172379949Y-52151722D01*
X172382566Y-52149023D01*
X172402120Y-52129471D01*
X172404576Y-52126303D01*
X172412156Y-52117427D01*
X172442062Y-52085582D01*
X172451713Y-52068024D01*
X172462396Y-52051761D01*
X172474673Y-52035936D01*
X172492021Y-51995844D01*
X172497151Y-51985371D01*
X172518197Y-51947092D01*
X172523180Y-51927680D01*
X172529481Y-51909280D01*
X172537437Y-51890896D01*
X172544270Y-51847748D01*
X172546633Y-51836338D01*
X172557500Y-51794019D01*
X172557500Y-51773983D01*
X172559027Y-51754582D01*
X172560228Y-51747000D01*
X172562160Y-51734804D01*
X172558050Y-51691324D01*
X172557500Y-51679655D01*
X172557500Y-48189738D01*
X172559223Y-48174121D01*
X172558938Y-48174094D01*
X172559672Y-48166332D01*
X172557561Y-48099144D01*
X172557500Y-48095250D01*
X172557500Y-48067651D01*
X172557500Y-48067650D01*
X172556997Y-48063670D01*
X172556080Y-48052021D01*
X172554709Y-48008373D01*
X172549122Y-47989144D01*
X172545174Y-47970084D01*
X172542664Y-47950208D01*
X172542663Y-47950206D01*
X172542663Y-47950204D01*
X172526588Y-47909604D01*
X172522804Y-47898552D01*
X172510618Y-47856609D01*
X172510616Y-47856606D01*
X172500423Y-47839371D01*
X172491861Y-47821894D01*
X172484487Y-47803269D01*
X172458816Y-47767937D01*
X172452405Y-47758177D01*
X172430170Y-47720580D01*
X172430168Y-47720578D01*
X172430165Y-47720574D01*
X172416006Y-47706415D01*
X172403368Y-47691619D01*
X172397177Y-47683098D01*
X172391594Y-47675413D01*
X172357940Y-47647572D01*
X172349299Y-47639709D01*
X171693818Y-46984228D01*
X171660333Y-46922905D01*
X171657499Y-46896547D01*
X171657499Y-45584129D01*
X171657498Y-45584123D01*
X171657497Y-45584116D01*
X171651091Y-45524517D01*
X171600796Y-45389669D01*
X171600795Y-45389668D01*
X171600793Y-45389664D01*
X171514547Y-45274455D01*
X171514544Y-45274452D01*
X171399335Y-45188206D01*
X171399328Y-45188202D01*
X171264482Y-45137908D01*
X171264483Y-45137908D01*
X171204883Y-45131501D01*
X171204881Y-45131500D01*
X171204873Y-45131500D01*
X171204864Y-45131500D01*
X169409129Y-45131500D01*
X169409123Y-45131501D01*
X169349516Y-45137908D01*
X169214671Y-45188202D01*
X169214664Y-45188206D01*
X169099455Y-45274452D01*
X169099452Y-45274455D01*
X169013206Y-45389664D01*
X169013202Y-45389671D01*
X168962908Y-45524517D01*
X168956501Y-45584116D01*
X168956501Y-45584123D01*
X168956500Y-45584135D01*
X168956501Y-47032500D01*
X168936816Y-47099539D01*
X168884013Y-47145294D01*
X168832501Y-47156500D01*
X151742037Y-47156500D01*
X151726420Y-47154776D01*
X151726393Y-47155062D01*
X151718631Y-47154327D01*
X151651444Y-47156439D01*
X151647550Y-47156500D01*
X151619949Y-47156500D01*
X151616261Y-47156965D01*
X151615948Y-47157005D01*
X151604330Y-47157918D01*
X151560672Y-47159290D01*
X151560671Y-47159290D01*
X151541428Y-47164881D01*
X151522378Y-47168825D01*
X151502510Y-47171334D01*
X151502509Y-47171334D01*
X151461898Y-47187413D01*
X151450853Y-47191194D01*
X151408913Y-47203379D01*
X151408909Y-47203381D01*
X151391665Y-47213579D01*
X151374204Y-47222133D01*
X151355573Y-47229510D01*
X151355561Y-47229517D01*
X151320232Y-47255185D01*
X151310472Y-47261596D01*
X151272879Y-47283829D01*
X151258713Y-47297995D01*
X151243923Y-47310627D01*
X151227713Y-47322404D01*
X151227710Y-47322407D01*
X151199872Y-47356058D01*
X151192010Y-47364697D01*
X150645181Y-47911526D01*
X150583858Y-47945011D01*
X150514166Y-47940027D01*
X150482044Y-47921311D01*
X150481836Y-47921610D01*
X150478264Y-47919109D01*
X150477799Y-47918838D01*
X150477404Y-47918507D01*
X150283834Y-47782967D01*
X150283830Y-47782965D01*
X150230657Y-47758170D01*
X150069663Y-47683097D01*
X150069659Y-47683096D01*
X150069657Y-47683095D01*
X150069406Y-47683028D01*
X150069307Y-47682967D01*
X150064569Y-47681243D01*
X150064915Y-47680290D01*
X150009746Y-47646662D01*
X149979217Y-47583815D01*
X149977500Y-47563253D01*
X149977500Y-47305687D01*
X149997185Y-47238648D01*
X150009350Y-47222715D01*
X150039197Y-47189566D01*
X150084533Y-47139216D01*
X150179179Y-46975284D01*
X150237674Y-46795256D01*
X150257460Y-46607000D01*
X150237674Y-46418744D01*
X150179179Y-46238716D01*
X150084533Y-46074784D01*
X149957871Y-45934112D01*
X149957870Y-45934111D01*
X149804734Y-45822851D01*
X149804729Y-45822848D01*
X149631807Y-45745857D01*
X149631802Y-45745855D01*
X149486001Y-45714865D01*
X149446646Y-45706500D01*
X149257354Y-45706500D01*
X149224897Y-45713398D01*
X149072197Y-45745855D01*
X149072192Y-45745857D01*
X148899270Y-45822848D01*
X148899265Y-45822851D01*
X148746129Y-45934111D01*
X148619466Y-46074785D01*
X148524821Y-46238715D01*
X148524818Y-46238722D01*
X148466327Y-46418740D01*
X148466326Y-46418744D01*
X148446540Y-46607000D01*
X148466326Y-46795256D01*
X148466327Y-46795259D01*
X148524818Y-46975277D01*
X148524821Y-46975284D01*
X148619467Y-47139216D01*
X148662772Y-47187310D01*
X148694650Y-47222715D01*
X148724880Y-47285706D01*
X148726500Y-47305687D01*
X148726500Y-47875241D01*
X148706815Y-47942280D01*
X148690181Y-47962922D01*
X148567505Y-48085597D01*
X148437575Y-48271158D01*
X148382998Y-48314783D01*
X148313500Y-48321977D01*
X148251145Y-48290454D01*
X148234425Y-48271158D01*
X148104494Y-48085597D01*
X147937402Y-47918506D01*
X147937395Y-47918501D01*
X147743834Y-47782967D01*
X147743830Y-47782965D01*
X147690657Y-47758170D01*
X147529663Y-47683097D01*
X147529659Y-47683096D01*
X147529655Y-47683094D01*
X147301413Y-47621938D01*
X147301403Y-47621936D01*
X147066001Y-47601341D01*
X147065999Y-47601341D01*
X146830596Y-47621936D01*
X146830586Y-47621938D01*
X146602344Y-47683094D01*
X146602335Y-47683098D01*
X146388171Y-47782964D01*
X146388169Y-47782965D01*
X146194597Y-47918505D01*
X146027508Y-48085594D01*
X145897269Y-48271595D01*
X145842692Y-48315219D01*
X145773193Y-48322412D01*
X145710839Y-48290890D01*
X145694119Y-48271594D01*
X145564113Y-48085926D01*
X145564108Y-48085920D01*
X145397082Y-47918894D01*
X145203578Y-47783399D01*
X144989492Y-47683570D01*
X144989486Y-47683567D01*
X144776000Y-47626364D01*
X144776000Y-48521498D01*
X144668315Y-48472320D01*
X144561763Y-48457000D01*
X144490237Y-48457000D01*
X144383685Y-48472320D01*
X144276000Y-48521498D01*
X144276000Y-47626364D01*
X144275999Y-47626364D01*
X144062513Y-47683567D01*
X144062507Y-47683570D01*
X143848422Y-47783399D01*
X143848420Y-47783400D01*
X143654926Y-47918886D01*
X143654920Y-47918891D01*
X143487891Y-48085920D01*
X143487886Y-48085926D01*
X143352400Y-48279420D01*
X143352399Y-48279422D01*
X143252570Y-48493507D01*
X143252567Y-48493513D01*
X143195364Y-48706999D01*
X143195364Y-48707000D01*
X144092314Y-48707000D01*
X144066507Y-48747156D01*
X144026000Y-48885111D01*
X144026000Y-49028889D01*
X144066507Y-49166844D01*
X144092314Y-49207000D01*
X143195364Y-49207000D01*
X143252567Y-49420486D01*
X143252570Y-49420492D01*
X143352399Y-49634578D01*
X143487894Y-49828082D01*
X143610334Y-49950522D01*
X143643819Y-50011845D01*
X143638835Y-50081537D01*
X143596963Y-50137470D01*
X143565987Y-50154385D01*
X143433911Y-50203646D01*
X143433906Y-50203649D01*
X143318812Y-50289809D01*
X143318809Y-50289812D01*
X143232649Y-50404906D01*
X143232645Y-50404913D01*
X143182403Y-50539620D01*
X143182401Y-50539627D01*
X143176000Y-50599155D01*
X143176000Y-51247000D01*
X144092314Y-51247000D01*
X144066507Y-51287156D01*
X144026000Y-51425111D01*
X144026000Y-51568889D01*
X144066507Y-51706844D01*
X144092314Y-51747000D01*
X143176000Y-51747000D01*
X143176000Y-52394844D01*
X143182401Y-52454372D01*
X143182403Y-52454379D01*
X143232645Y-52589086D01*
X143232649Y-52589093D01*
X143318809Y-52704187D01*
X143318812Y-52704190D01*
X143433906Y-52790350D01*
X143433913Y-52790354D01*
X143568620Y-52840596D01*
X143568627Y-52840598D01*
X143628155Y-52846999D01*
X143628172Y-52847000D01*
X144276000Y-52847000D01*
X144276000Y-51932501D01*
X144383685Y-51981680D01*
X144490237Y-51997000D01*
X144561763Y-51997000D01*
X144668315Y-51981680D01*
X144776000Y-51932501D01*
X144776000Y-52847000D01*
X145423828Y-52847000D01*
X145423844Y-52846999D01*
X145483372Y-52840598D01*
X145483376Y-52840597D01*
X145618088Y-52790352D01*
X145618090Y-52790351D01*
X145643573Y-52771274D01*
X145709036Y-52746855D01*
X145777310Y-52761705D01*
X145805566Y-52782857D01*
X148034683Y-55011975D01*
X150228262Y-57205554D01*
X150258512Y-57254917D01*
X150302818Y-57391277D01*
X150302821Y-57391284D01*
X150397467Y-57555216D01*
X150461837Y-57626706D01*
X150524129Y-57695888D01*
X150677265Y-57807148D01*
X150677270Y-57807151D01*
X150850192Y-57884142D01*
X150850197Y-57884144D01*
X151035354Y-57923500D01*
X151035355Y-57923500D01*
X151224644Y-57923500D01*
X151224646Y-57923500D01*
X151409803Y-57884144D01*
X151582730Y-57807151D01*
X151735871Y-57695888D01*
X151862533Y-57555216D01*
X151919759Y-57456098D01*
X151970326Y-57407882D01*
X152038933Y-57394659D01*
X152103798Y-57420627D01*
X152114827Y-57430417D01*
X152581229Y-57896819D01*
X152614714Y-57958142D01*
X152609730Y-58027834D01*
X152567858Y-58083767D01*
X152502394Y-58108184D01*
X152493548Y-58108500D01*
X151888998Y-58108500D01*
X151888980Y-58108501D01*
X151786203Y-58119000D01*
X151786200Y-58119001D01*
X151619668Y-58174185D01*
X151619663Y-58174187D01*
X151470342Y-58266289D01*
X151346289Y-58390342D01*
X151335089Y-58408500D01*
X151263326Y-58524849D01*
X151250395Y-58545813D01*
X151248600Y-58544706D01*
X151209313Y-58589337D01*
X151143092Y-58608500D01*
X150468156Y-58608500D01*
X150401117Y-58588815D01*
X150395271Y-58584818D01*
X150312734Y-58524851D01*
X150312729Y-58524848D01*
X150139807Y-58447857D01*
X150139802Y-58447855D01*
X149994001Y-58416865D01*
X149954646Y-58408500D01*
X149765354Y-58408500D01*
X149732897Y-58415398D01*
X149580197Y-58447855D01*
X149580192Y-58447857D01*
X149407270Y-58524848D01*
X149407265Y-58524851D01*
X149324729Y-58584818D01*
X149258923Y-58608298D01*
X149251844Y-58608500D01*
X148677519Y-58608500D01*
X148610480Y-58588815D01*
X148589838Y-58572181D01*
X144944503Y-54926846D01*
X144911018Y-54865523D01*
X144908865Y-54852143D01*
X144903674Y-54802744D01*
X144845179Y-54622716D01*
X144750533Y-54458784D01*
X144623871Y-54318112D01*
X144623870Y-54318111D01*
X144470734Y-54206851D01*
X144470729Y-54206848D01*
X144297807Y-54129857D01*
X144297802Y-54129855D01*
X144142871Y-54096924D01*
X144081389Y-54063732D01*
X144080971Y-54063315D01*
X141964751Y-51947095D01*
X139831940Y-49814283D01*
X139826805Y-49808828D01*
X139786929Y-49763816D01*
X139786924Y-49763812D01*
X139737438Y-49729655D01*
X139731403Y-49725215D01*
X139684060Y-49688124D01*
X139684055Y-49688120D01*
X139674813Y-49683961D01*
X139655266Y-49672936D01*
X139646931Y-49667183D01*
X139646932Y-49667183D01*
X139646930Y-49667182D01*
X139590694Y-49645854D01*
X139583790Y-49642994D01*
X139528932Y-49618305D01*
X139528930Y-49618304D01*
X139518946Y-49616474D01*
X139497343Y-49610451D01*
X139487874Y-49606860D01*
X139487871Y-49606859D01*
X139428171Y-49599610D01*
X139420770Y-49598483D01*
X139361609Y-49587642D01*
X139361603Y-49587642D01*
X139301567Y-49591274D01*
X139294079Y-49591500D01*
X139165156Y-49591500D01*
X139098117Y-49571815D01*
X139092271Y-49567818D01*
X139009734Y-49507851D01*
X139009729Y-49507848D01*
X138836807Y-49430857D01*
X138836802Y-49430855D01*
X138691001Y-49399865D01*
X138651646Y-49391500D01*
X138462354Y-49391500D01*
X138429897Y-49398398D01*
X138277197Y-49430855D01*
X138277192Y-49430857D01*
X138104270Y-49507848D01*
X138104265Y-49507851D01*
X137951129Y-49619111D01*
X137824466Y-49759785D01*
X137729821Y-49923715D01*
X137729818Y-49923722D01*
X137671327Y-50103740D01*
X137671326Y-50103744D01*
X137651540Y-50292000D01*
X137671326Y-50480256D01*
X137671327Y-50480259D01*
X137729818Y-50660277D01*
X137729821Y-50660284D01*
X137824467Y-50824216D01*
X137902431Y-50910803D01*
X137951129Y-50964888D01*
X138104265Y-51076148D01*
X138104270Y-51076151D01*
X138277192Y-51153142D01*
X138277197Y-51153144D01*
X138462354Y-51192500D01*
X138462355Y-51192500D01*
X138651644Y-51192500D01*
X138651646Y-51192500D01*
X138836803Y-51153144D01*
X139002981Y-51079155D01*
X139072230Y-51069871D01*
X139135506Y-51099499D01*
X139141097Y-51104754D01*
X143091495Y-55055151D01*
X143124980Y-55116474D01*
X143127134Y-55129868D01*
X143132325Y-55179249D01*
X143132327Y-55179260D01*
X143190818Y-55359277D01*
X143190821Y-55359284D01*
X143285467Y-55523216D01*
X143357756Y-55603501D01*
X143412129Y-55663888D01*
X143565265Y-55775148D01*
X143565270Y-55775151D01*
X143738191Y-55852142D01*
X143738193Y-55852142D01*
X143738197Y-55852144D01*
X143893130Y-55885075D01*
X143954607Y-55918266D01*
X143955026Y-55918683D01*
X147778162Y-59741819D01*
X147811647Y-59803142D01*
X147806663Y-59872834D01*
X147764791Y-59928767D01*
X147699327Y-59953184D01*
X147690481Y-59953500D01*
X146012949Y-59953500D01*
X145945910Y-59933815D01*
X145925268Y-59917181D01*
X145131202Y-59123115D01*
X145121379Y-59110853D01*
X145121158Y-59111037D01*
X145116185Y-59105025D01*
X145067175Y-59059002D01*
X145064376Y-59056289D01*
X145044876Y-59036788D01*
X145044870Y-59036783D01*
X145041685Y-59034312D01*
X145032833Y-59026751D01*
X145000981Y-58996841D01*
X145000979Y-58996839D01*
X145000976Y-58996838D01*
X144983428Y-58987191D01*
X144967162Y-58976507D01*
X144951331Y-58964227D01*
X144911248Y-58946881D01*
X144900762Y-58941744D01*
X144862493Y-58920706D01*
X144862491Y-58920705D01*
X144843092Y-58915725D01*
X144824680Y-58909421D01*
X144806297Y-58901465D01*
X144806291Y-58901463D01*
X144763159Y-58894632D01*
X144751721Y-58892264D01*
X144709419Y-58881403D01*
X144709418Y-58881403D01*
X144689383Y-58881403D01*
X144669985Y-58879876D01*
X144662561Y-58878700D01*
X144650204Y-58876743D01*
X144650203Y-58876743D01*
X144606724Y-58880853D01*
X144595055Y-58881403D01*
X143812841Y-58881403D01*
X143745802Y-58861718D01*
X143707865Y-58817936D01*
X143705428Y-58819344D01*
X143665370Y-58749961D01*
X143607533Y-58649784D01*
X143480871Y-58509112D01*
X143480870Y-58509111D01*
X143327734Y-58397851D01*
X143327729Y-58397848D01*
X143154807Y-58320857D01*
X143154802Y-58320855D01*
X143009001Y-58289865D01*
X142969646Y-58281500D01*
X142969645Y-58281500D01*
X142910453Y-58281500D01*
X142843414Y-58261815D01*
X142822772Y-58245181D01*
X142602803Y-58025212D01*
X142592980Y-58012950D01*
X142592759Y-58013134D01*
X142587786Y-58007122D01*
X142538776Y-57961099D01*
X142535977Y-57958386D01*
X142516477Y-57938885D01*
X142516471Y-57938880D01*
X142513286Y-57936409D01*
X142504434Y-57928848D01*
X142472582Y-57898938D01*
X142472580Y-57898936D01*
X142472577Y-57898935D01*
X142455029Y-57889288D01*
X142438763Y-57878604D01*
X142422932Y-57866324D01*
X142382849Y-57848978D01*
X142372363Y-57843841D01*
X142334094Y-57822803D01*
X142334092Y-57822802D01*
X142314693Y-57817822D01*
X142296281Y-57811518D01*
X142277898Y-57803562D01*
X142277892Y-57803560D01*
X142234760Y-57796729D01*
X142223322Y-57794361D01*
X142181020Y-57783500D01*
X142181019Y-57783500D01*
X142160984Y-57783500D01*
X142141586Y-57781973D01*
X142134162Y-57780797D01*
X142121805Y-57778840D01*
X142121804Y-57778840D01*
X142078325Y-57782950D01*
X142066656Y-57783500D01*
X134792453Y-57783500D01*
X134725414Y-57763815D01*
X134704772Y-57747181D01*
X133662819Y-56705228D01*
X133629334Y-56643905D01*
X133626500Y-56617547D01*
X133626500Y-50214742D01*
X133628224Y-50199122D01*
X133627939Y-50199096D01*
X133628671Y-50191340D01*
X133628673Y-50191333D01*
X133626561Y-50124126D01*
X133626500Y-50120231D01*
X133626500Y-50092654D01*
X133626500Y-50092650D01*
X133625996Y-50088665D01*
X133625080Y-50077021D01*
X133624561Y-50060495D01*
X133623709Y-50033373D01*
X133618122Y-50014144D01*
X133614174Y-49995084D01*
X133614152Y-49994908D01*
X133611664Y-49975208D01*
X133611663Y-49975206D01*
X133611663Y-49975204D01*
X133595588Y-49934604D01*
X133591804Y-49923552D01*
X133579618Y-49881609D01*
X133579616Y-49881606D01*
X133569423Y-49864371D01*
X133560861Y-49846894D01*
X133553487Y-49828269D01*
X133527816Y-49792937D01*
X133521405Y-49783177D01*
X133499170Y-49745580D01*
X133499168Y-49745578D01*
X133499165Y-49745574D01*
X133485006Y-49731415D01*
X133472368Y-49716619D01*
X133460594Y-49700413D01*
X133445734Y-49688120D01*
X133426940Y-49672572D01*
X133418299Y-49664709D01*
X133166237Y-49412647D01*
X133132752Y-49351324D01*
X133134143Y-49292872D01*
X133135503Y-49287798D01*
X133161063Y-49192408D01*
X133181659Y-48957000D01*
X133161063Y-48721592D01*
X133110275Y-48532048D01*
X133099905Y-48493344D01*
X133099904Y-48493343D01*
X133099903Y-48493337D01*
X133000035Y-48279171D01*
X132994731Y-48271595D01*
X132864494Y-48085597D01*
X132697402Y-47918506D01*
X132697395Y-47918501D01*
X132503834Y-47782967D01*
X132503830Y-47782965D01*
X132450657Y-47758170D01*
X132289663Y-47683097D01*
X132289659Y-47683096D01*
X132289655Y-47683094D01*
X132061413Y-47621938D01*
X132061403Y-47621936D01*
X131826001Y-47601341D01*
X131825999Y-47601341D01*
X131590596Y-47621936D01*
X131590586Y-47621938D01*
X131362344Y-47683094D01*
X131362335Y-47683098D01*
X131148171Y-47782964D01*
X131148169Y-47782965D01*
X130954597Y-47918505D01*
X130787505Y-48085597D01*
X130657575Y-48271158D01*
X130602998Y-48314783D01*
X130533500Y-48321977D01*
X130471145Y-48290454D01*
X130454425Y-48271158D01*
X130324494Y-48085597D01*
X130157402Y-47918506D01*
X130157395Y-47918501D01*
X129963834Y-47782967D01*
X129963830Y-47782965D01*
X129910657Y-47758170D01*
X129749663Y-47683097D01*
X129749659Y-47683096D01*
X129749655Y-47683094D01*
X129521413Y-47621938D01*
X129521403Y-47621936D01*
X129286001Y-47601341D01*
X129285999Y-47601341D01*
X129050596Y-47621936D01*
X129050586Y-47621938D01*
X128822344Y-47683094D01*
X128822335Y-47683098D01*
X128608171Y-47782964D01*
X128608169Y-47782965D01*
X128414597Y-47918505D01*
X128247505Y-48085597D01*
X128117575Y-48271158D01*
X128062998Y-48314783D01*
X127993500Y-48321977D01*
X127931145Y-48290454D01*
X127914425Y-48271158D01*
X127784494Y-48085597D01*
X127617402Y-47918506D01*
X127617395Y-47918501D01*
X127423834Y-47782967D01*
X127423830Y-47782965D01*
X127370657Y-47758170D01*
X127209663Y-47683097D01*
X127209659Y-47683096D01*
X127209655Y-47683094D01*
X126981413Y-47621938D01*
X126981403Y-47621936D01*
X126746001Y-47601341D01*
X126745999Y-47601341D01*
X126510596Y-47621936D01*
X126510586Y-47621938D01*
X126282344Y-47683094D01*
X126282335Y-47683098D01*
X126068171Y-47782964D01*
X126068169Y-47782965D01*
X125874597Y-47918505D01*
X125707505Y-48085597D01*
X125577575Y-48271158D01*
X125522998Y-48314783D01*
X125453500Y-48321977D01*
X125391145Y-48290454D01*
X125374425Y-48271158D01*
X125244494Y-48085597D01*
X125077402Y-47918506D01*
X125077395Y-47918501D01*
X124883834Y-47782967D01*
X124883830Y-47782965D01*
X124830657Y-47758170D01*
X124669663Y-47683097D01*
X124669659Y-47683096D01*
X124669655Y-47683094D01*
X124441413Y-47621938D01*
X124441403Y-47621936D01*
X124206001Y-47601341D01*
X124205999Y-47601341D01*
X123970596Y-47621936D01*
X123970586Y-47621938D01*
X123742344Y-47683094D01*
X123742335Y-47683098D01*
X123528171Y-47782964D01*
X123528169Y-47782965D01*
X123334597Y-47918505D01*
X123167508Y-48085594D01*
X123037269Y-48271595D01*
X122982692Y-48315219D01*
X122913193Y-48322412D01*
X122850839Y-48290890D01*
X122834119Y-48271594D01*
X122704113Y-48085926D01*
X122704108Y-48085920D01*
X122537082Y-47918894D01*
X122343578Y-47783399D01*
X122129492Y-47683570D01*
X122129486Y-47683567D01*
X121916000Y-47626364D01*
X121916000Y-48521498D01*
X121808315Y-48472320D01*
X121701763Y-48457000D01*
X121630237Y-48457000D01*
X121523685Y-48472320D01*
X121416000Y-48521498D01*
X121416000Y-47626364D01*
X121415999Y-47626364D01*
X121202513Y-47683567D01*
X121202507Y-47683570D01*
X120988422Y-47783399D01*
X120988420Y-47783400D01*
X120794926Y-47918886D01*
X120794920Y-47918891D01*
X120627891Y-48085920D01*
X120627886Y-48085926D01*
X120492400Y-48279420D01*
X120492399Y-48279422D01*
X120392570Y-48493507D01*
X120392567Y-48493513D01*
X120335364Y-48706999D01*
X120335364Y-48707000D01*
X121232314Y-48707000D01*
X121206507Y-48747156D01*
X121166000Y-48885111D01*
X121166000Y-49028889D01*
X121206507Y-49166844D01*
X121232314Y-49207000D01*
X120335364Y-49207000D01*
X120392567Y-49420486D01*
X120392570Y-49420492D01*
X120492399Y-49634578D01*
X120627894Y-49828082D01*
X120750334Y-49950522D01*
X120783819Y-50011845D01*
X120778835Y-50081537D01*
X120736963Y-50137470D01*
X120705987Y-50154385D01*
X120573911Y-50203646D01*
X120573906Y-50203649D01*
X120458812Y-50289809D01*
X120458809Y-50289812D01*
X120372649Y-50404906D01*
X120372645Y-50404913D01*
X120322403Y-50539620D01*
X120322401Y-50539627D01*
X120316000Y-50599155D01*
X120316000Y-51247000D01*
X121232314Y-51247000D01*
X121206507Y-51287156D01*
X121166000Y-51425111D01*
X121166000Y-51568889D01*
X121206507Y-51706844D01*
X121232314Y-51747000D01*
X120316000Y-51747000D01*
X120316000Y-52394844D01*
X120322401Y-52454372D01*
X120322403Y-52454379D01*
X120372645Y-52589086D01*
X120372649Y-52589093D01*
X120458809Y-52704187D01*
X120458812Y-52704190D01*
X120573906Y-52790350D01*
X120573913Y-52790354D01*
X120708620Y-52840596D01*
X120708627Y-52840598D01*
X120768155Y-52846999D01*
X120768172Y-52847000D01*
X121416000Y-52847000D01*
X121416000Y-51932501D01*
X121523685Y-51981680D01*
X121630237Y-51997000D01*
X121701763Y-51997000D01*
X121808315Y-51981680D01*
X121916000Y-51932501D01*
X121916000Y-52847000D01*
X122563828Y-52847000D01*
X122563844Y-52846999D01*
X122623372Y-52840598D01*
X122623379Y-52840596D01*
X122758086Y-52790354D01*
X122758093Y-52790350D01*
X122873187Y-52704190D01*
X122873190Y-52704187D01*
X122959350Y-52589093D01*
X122959354Y-52589086D01*
X123008422Y-52457529D01*
X123050293Y-52401595D01*
X123115757Y-52377178D01*
X123184030Y-52392030D01*
X123212285Y-52413181D01*
X123334599Y-52535495D01*
X123396131Y-52578580D01*
X123528165Y-52671032D01*
X123528167Y-52671033D01*
X123528170Y-52671035D01*
X123742337Y-52770903D01*
X123742343Y-52770904D01*
X123742344Y-52770905D01*
X123786954Y-52782858D01*
X123970592Y-52832063D01*
X124141319Y-52847000D01*
X124205999Y-52852659D01*
X124206000Y-52852659D01*
X124206001Y-52852659D01*
X124270681Y-52847000D01*
X124441408Y-52832063D01*
X124669663Y-52770903D01*
X124863736Y-52680404D01*
X124932812Y-52669913D01*
X124996597Y-52698433D01*
X125016459Y-52719903D01*
X125018513Y-52722730D01*
X125018514Y-52722732D01*
X125019825Y-52724536D01*
X125044181Y-52758060D01*
X125050593Y-52767821D01*
X125072828Y-52805417D01*
X125072833Y-52805424D01*
X125086990Y-52819580D01*
X125099628Y-52834376D01*
X125111405Y-52850586D01*
X125111406Y-52850587D01*
X125145057Y-52878425D01*
X125153698Y-52886288D01*
X133771938Y-61504528D01*
X133805423Y-61565851D01*
X133800439Y-61635543D01*
X133758567Y-61691476D01*
X133755665Y-61693452D01*
X133753343Y-61695288D01*
X133629289Y-61819342D01*
X133537187Y-61968663D01*
X133537186Y-61968666D01*
X133517957Y-62026697D01*
X133517689Y-62027505D01*
X133477916Y-62084949D01*
X133413400Y-62111772D01*
X133399983Y-62112500D01*
X132744017Y-62112500D01*
X132676978Y-62092815D01*
X132631223Y-62040011D01*
X132626311Y-62027505D01*
X132606814Y-61968666D01*
X132514712Y-61819344D01*
X132390656Y-61695288D01*
X132241334Y-61603186D01*
X132074797Y-61548001D01*
X132074795Y-61548000D01*
X131972010Y-61537500D01*
X131171998Y-61537500D01*
X131171980Y-61537501D01*
X131069203Y-61548000D01*
X131069200Y-61548001D01*
X130902668Y-61603185D01*
X130902663Y-61603187D01*
X130753342Y-61695289D01*
X130659681Y-61788951D01*
X130598358Y-61822436D01*
X130528666Y-61817452D01*
X130484319Y-61788951D01*
X130390657Y-61695289D01*
X130390656Y-61695288D01*
X130241334Y-61603186D01*
X130074797Y-61548001D01*
X130074795Y-61548000D01*
X129972010Y-61537500D01*
X129171998Y-61537500D01*
X129171980Y-61537501D01*
X129069203Y-61548000D01*
X129069200Y-61548001D01*
X128902668Y-61603185D01*
X128902663Y-61603187D01*
X128753342Y-61695289D01*
X128629289Y-61819342D01*
X128537187Y-61968663D01*
X128537185Y-61968668D01*
X128510851Y-62048141D01*
X128482001Y-62135203D01*
X128482001Y-62135204D01*
X128482000Y-62135204D01*
X128471500Y-62237983D01*
X128471500Y-63238001D01*
X128471501Y-63238019D01*
X128482000Y-63340796D01*
X128482001Y-63340799D01*
X128537185Y-63507331D01*
X128537187Y-63507336D01*
X128547599Y-63524216D01*
X128629288Y-63656656D01*
X128753344Y-63780712D01*
X128812596Y-63817258D01*
X128859321Y-63869204D01*
X128871500Y-63922797D01*
X128871500Y-63948769D01*
X128854887Y-64010769D01*
X128775821Y-64147715D01*
X128775818Y-64147722D01*
X128717327Y-64327740D01*
X128717326Y-64327744D01*
X128697540Y-64516000D01*
X128717326Y-64704256D01*
X128717327Y-64704259D01*
X128775818Y-64884277D01*
X128775821Y-64884284D01*
X128870467Y-65048216D01*
X128947163Y-65133395D01*
X128997129Y-65188888D01*
X129150265Y-65300148D01*
X129150270Y-65300151D01*
X129323192Y-65377142D01*
X129323197Y-65377144D01*
X129508354Y-65416500D01*
X129508355Y-65416500D01*
X129697644Y-65416500D01*
X129697646Y-65416500D01*
X129882803Y-65377144D01*
X130055730Y-65300151D01*
X130208871Y-65188888D01*
X130335533Y-65048216D01*
X130430179Y-64884284D01*
X130488674Y-64704256D01*
X130508460Y-64516000D01*
X130488674Y-64327744D01*
X130430179Y-64147716D01*
X130372256Y-64047390D01*
X130335535Y-63983787D01*
X130331714Y-63978528D01*
X130333226Y-63977429D01*
X130306896Y-63922559D01*
X130315523Y-63853224D01*
X130360265Y-63799559D01*
X130364182Y-63797041D01*
X130390654Y-63780713D01*
X130390653Y-63780713D01*
X130390656Y-63780712D01*
X130484319Y-63687049D01*
X130545642Y-63653564D01*
X130615334Y-63658548D01*
X130659681Y-63687049D01*
X130753344Y-63780712D01*
X130902666Y-63872814D01*
X131069203Y-63927999D01*
X131171991Y-63938500D01*
X131972008Y-63938499D01*
X131972016Y-63938498D01*
X131972019Y-63938498D01*
X132028302Y-63932748D01*
X132074797Y-63927999D01*
X132241334Y-63872814D01*
X132390656Y-63780712D01*
X132514712Y-63656656D01*
X132606814Y-63507334D01*
X132626311Y-63448493D01*
X132666084Y-63391051D01*
X132730600Y-63364228D01*
X132744017Y-63363500D01*
X133399983Y-63363500D01*
X133467022Y-63383185D01*
X133512777Y-63435989D01*
X133517686Y-63448489D01*
X133535149Y-63501187D01*
X133537186Y-63507333D01*
X133537187Y-63507336D01*
X133547599Y-63524216D01*
X133629288Y-63656656D01*
X133753344Y-63780712D01*
X133902666Y-63872814D01*
X134069203Y-63927999D01*
X134171991Y-63938500D01*
X134922008Y-63938499D01*
X134922016Y-63938498D01*
X134922019Y-63938498D01*
X134978302Y-63932748D01*
X135024797Y-63927999D01*
X135191334Y-63872814D01*
X135340656Y-63780712D01*
X135464712Y-63656656D01*
X135466461Y-63653819D01*
X135468169Y-63652283D01*
X135469193Y-63650989D01*
X135469414Y-63651163D01*
X135518406Y-63607096D01*
X135587368Y-63595872D01*
X135651451Y-63623713D01*
X135677537Y-63653817D01*
X135679288Y-63656656D01*
X135803344Y-63780712D01*
X135952666Y-63872814D01*
X136119203Y-63927999D01*
X136221991Y-63938500D01*
X136639500Y-63938499D01*
X136706539Y-63958183D01*
X136752294Y-64010987D01*
X136763500Y-64062499D01*
X136763500Y-65404769D01*
X136743815Y-65471808D01*
X136738767Y-65479080D01*
X136670204Y-65570668D01*
X136670202Y-65570671D01*
X136619908Y-65705517D01*
X136613501Y-65765116D01*
X136613500Y-65765135D01*
X136613500Y-67360870D01*
X136613501Y-67360876D01*
X136619908Y-67420483D01*
X136670202Y-67555328D01*
X136670203Y-67555329D01*
X136670204Y-67555331D01*
X136687628Y-67578606D01*
X136756454Y-67670547D01*
X136789309Y-67695141D01*
X136831181Y-67751074D01*
X136839000Y-67794409D01*
X136839000Y-67813000D01*
X136911828Y-67813000D01*
X136911839Y-67812999D01*
X136973395Y-67806380D01*
X136999909Y-67806380D01*
X137006514Y-67807090D01*
X137006517Y-67807091D01*
X137066127Y-67813500D01*
X137467677Y-67813499D01*
X137534716Y-67833183D01*
X137580471Y-67885987D01*
X137590998Y-67950458D01*
X137588900Y-67970425D01*
X137588209Y-67977000D01*
X137607995Y-68165256D01*
X137607996Y-68165259D01*
X137666487Y-68345277D01*
X137666490Y-68345284D01*
X137761136Y-68509216D01*
X137862854Y-68622185D01*
X137887798Y-68649888D01*
X138040934Y-68761148D01*
X138040939Y-68761151D01*
X138213861Y-68838142D01*
X138213866Y-68838144D01*
X138399023Y-68877500D01*
X138399024Y-68877500D01*
X138588313Y-68877500D01*
X138588315Y-68877500D01*
X138773472Y-68838144D01*
X138946399Y-68761151D01*
X139099540Y-68649888D01*
X139103506Y-68645483D01*
X139105269Y-68643526D01*
X139164756Y-68606879D01*
X139197417Y-68602500D01*
X140030794Y-68602500D01*
X140097833Y-68622185D01*
X140143588Y-68674989D01*
X140154114Y-68739460D01*
X140151910Y-68760439D01*
X140171696Y-68948695D01*
X140171697Y-68948698D01*
X140230188Y-69128716D01*
X140230191Y-69128723D01*
X140324837Y-69292655D01*
X140432887Y-69412656D01*
X140451499Y-69433327D01*
X140604635Y-69544587D01*
X140604640Y-69544590D01*
X140777562Y-69621581D01*
X140777567Y-69621583D01*
X140962724Y-69660939D01*
X140962725Y-69660939D01*
X141152015Y-69660939D01*
X141152016Y-69660939D01*
X141226263Y-69645157D01*
X141295927Y-69650472D01*
X141344190Y-69683474D01*
X141379892Y-69723124D01*
X141401129Y-69746710D01*
X141401135Y-69746715D01*
X141554265Y-69857970D01*
X141554270Y-69857973D01*
X141727192Y-69934964D01*
X141727197Y-69934966D01*
X141750202Y-69939855D01*
X141811681Y-69973045D01*
X141844288Y-70032085D01*
X141844318Y-70032076D01*
X141844367Y-70032229D01*
X141845460Y-70034207D01*
X141845711Y-70035363D01*
X141846325Y-70038255D01*
X141904818Y-70218277D01*
X141904821Y-70218284D01*
X141999467Y-70382216D01*
X142114907Y-70510425D01*
X142126129Y-70522888D01*
X142279265Y-70634148D01*
X142279270Y-70634151D01*
X142408132Y-70691525D01*
X142461369Y-70736775D01*
X142481017Y-70791842D01*
X142498609Y-70959219D01*
X142498610Y-70959222D01*
X142557101Y-71139240D01*
X142557104Y-71139247D01*
X142651750Y-71303179D01*
X142755437Y-71418335D01*
X142778412Y-71443851D01*
X142931548Y-71555111D01*
X142931553Y-71555114D01*
X143104475Y-71632105D01*
X143104476Y-71632105D01*
X143104480Y-71632107D01*
X143265006Y-71666227D01*
X143326487Y-71699419D01*
X143352502Y-71737077D01*
X143354818Y-71742278D01*
X143354820Y-71742282D01*
X143354821Y-71742284D01*
X143449467Y-71906216D01*
X143567145Y-72036910D01*
X143576129Y-72046888D01*
X143729265Y-72158148D01*
X143729270Y-72158151D01*
X143902192Y-72235142D01*
X143902197Y-72235144D01*
X144087354Y-72274500D01*
X144087355Y-72274500D01*
X144276644Y-72274500D01*
X144276646Y-72274500D01*
X144461803Y-72235144D01*
X144634730Y-72158151D01*
X144644729Y-72150885D01*
X144698002Y-72112182D01*
X144763808Y-72088702D01*
X144770887Y-72088500D01*
X144914500Y-72088500D01*
X144981539Y-72108185D01*
X145027294Y-72160989D01*
X145038500Y-72212500D01*
X145038500Y-72585869D01*
X145038501Y-72585879D01*
X145045367Y-72649751D01*
X145045367Y-72676257D01*
X145044909Y-72680516D01*
X145044909Y-72680517D01*
X145038500Y-72740127D01*
X145038500Y-72740129D01*
X145038500Y-72740133D01*
X145038500Y-73385870D01*
X145038501Y-73385876D01*
X145045619Y-73452092D01*
X145045619Y-73478599D01*
X145039000Y-73540169D01*
X145039000Y-73729346D01*
X145019315Y-73796385D01*
X144966511Y-73842140D01*
X144915000Y-73853346D01*
X144330890Y-73853346D01*
X144263851Y-73833661D01*
X144243209Y-73817027D01*
X144227311Y-73801129D01*
X144222176Y-73795674D01*
X144182300Y-73750662D01*
X144182295Y-73750658D01*
X144132809Y-73716501D01*
X144126774Y-73712061D01*
X144079431Y-73674970D01*
X144079426Y-73674966D01*
X144070184Y-73670807D01*
X144050637Y-73659782D01*
X144042302Y-73654029D01*
X144042303Y-73654029D01*
X144042301Y-73654028D01*
X143986065Y-73632700D01*
X143979161Y-73629840D01*
X143924303Y-73605151D01*
X143924301Y-73605150D01*
X143914317Y-73603320D01*
X143892714Y-73597297D01*
X143883245Y-73593706D01*
X143883242Y-73593705D01*
X143823542Y-73586456D01*
X143816141Y-73585329D01*
X143756980Y-73574488D01*
X143756974Y-73574488D01*
X143696938Y-73578120D01*
X143689450Y-73578346D01*
X140285922Y-73578346D01*
X140218883Y-73558661D01*
X140213037Y-73554664D01*
X140152734Y-73510851D01*
X140152729Y-73510848D01*
X139979807Y-73433857D01*
X139979802Y-73433855D01*
X139834001Y-73402865D01*
X139794646Y-73394500D01*
X139605354Y-73394500D01*
X139572897Y-73401398D01*
X139420197Y-73433855D01*
X139420192Y-73433857D01*
X139247270Y-73510848D01*
X139247265Y-73510851D01*
X139094129Y-73622111D01*
X138967466Y-73762785D01*
X138872821Y-73926715D01*
X138872818Y-73926722D01*
X138818689Y-74093315D01*
X138814326Y-74106744D01*
X138794540Y-74295000D01*
X138814326Y-74483256D01*
X138814327Y-74483259D01*
X138872818Y-74663277D01*
X138872821Y-74663284D01*
X138967467Y-74827216D01*
X139071979Y-74943288D01*
X139094129Y-74967888D01*
X139247265Y-75079148D01*
X139247270Y-75079151D01*
X139420192Y-75156142D01*
X139420197Y-75156144D01*
X139605354Y-75195500D01*
X139605355Y-75195500D01*
X139794644Y-75195500D01*
X139794646Y-75195500D01*
X139979803Y-75156144D01*
X140152730Y-75079151D01*
X140199070Y-75045483D01*
X140257505Y-75003028D01*
X140323311Y-74979548D01*
X140330390Y-74979346D01*
X141746133Y-74979346D01*
X141813172Y-74999031D01*
X141858927Y-75051835D01*
X141868871Y-75120993D01*
X141839846Y-75184549D01*
X141838354Y-75186237D01*
X141800608Y-75228160D01*
X141761464Y-75271633D01*
X141666821Y-75435561D01*
X141666818Y-75435568D01*
X141656340Y-75467818D01*
X141616902Y-75525494D01*
X141552544Y-75552692D01*
X141538409Y-75553500D01*
X141510354Y-75553500D01*
X141480202Y-75559909D01*
X141325197Y-75592855D01*
X141325192Y-75592857D01*
X141152270Y-75669848D01*
X141152265Y-75669851D01*
X140999129Y-75781111D01*
X140872466Y-75921785D01*
X140777821Y-76085715D01*
X140777818Y-76085722D01*
X140719327Y-76265740D01*
X140719326Y-76265744D01*
X140705342Y-76398796D01*
X140699540Y-76454000D01*
X140712313Y-76575540D01*
X140699743Y-76644270D01*
X140652010Y-76695293D01*
X140588992Y-76712500D01*
X140266130Y-76712500D01*
X140266125Y-76712501D01*
X140218160Y-76717657D01*
X140206517Y-76718909D01*
X140206516Y-76718909D01*
X140199904Y-76719620D01*
X140173393Y-76719619D01*
X140111842Y-76713000D01*
X140039000Y-76713000D01*
X140039000Y-76731590D01*
X140019315Y-76798629D01*
X139989313Y-76830856D01*
X139956451Y-76855456D01*
X139888266Y-76946540D01*
X139832332Y-76988411D01*
X139762641Y-76993395D01*
X139701318Y-76959909D01*
X139689734Y-76946540D01*
X139621548Y-76855456D01*
X139621546Y-76855455D01*
X139621546Y-76855454D01*
X139588686Y-76830855D01*
X139546817Y-76774921D01*
X139539000Y-76731590D01*
X139539000Y-76713000D01*
X139466166Y-76713000D01*
X139404595Y-76719619D01*
X139378088Y-76719619D01*
X139368818Y-76718622D01*
X139311873Y-76712500D01*
X139311865Y-76712500D01*
X138666129Y-76712500D01*
X138666120Y-76712501D01*
X138602248Y-76719367D01*
X138575742Y-76719367D01*
X138571483Y-76718909D01*
X138511873Y-76712500D01*
X138511867Y-76712500D01*
X138138255Y-76712500D01*
X138071216Y-76692815D01*
X138025461Y-76640011D01*
X138022312Y-76632468D01*
X138013819Y-76610072D01*
X138013818Y-76610070D01*
X138008058Y-76601726D01*
X137997035Y-76582180D01*
X137996504Y-76581000D01*
X137992878Y-76572943D01*
X137955763Y-76525569D01*
X137951345Y-76519563D01*
X137917185Y-76470073D01*
X137913396Y-76466716D01*
X137872153Y-76430178D01*
X137866715Y-76425058D01*
X137544940Y-76103283D01*
X137539805Y-76097828D01*
X137499929Y-76052816D01*
X137499924Y-76052812D01*
X137450438Y-76018655D01*
X137444403Y-76014215D01*
X137397060Y-75977124D01*
X137397055Y-75977120D01*
X137387813Y-75972961D01*
X137368266Y-75961936D01*
X137359931Y-75956183D01*
X137359932Y-75956183D01*
X137359930Y-75956182D01*
X137303694Y-75934854D01*
X137296790Y-75931994D01*
X137241932Y-75907305D01*
X137241930Y-75907304D01*
X137231946Y-75905474D01*
X137210343Y-75899451D01*
X137200874Y-75895860D01*
X137200871Y-75895859D01*
X137141171Y-75888610D01*
X137133770Y-75887483D01*
X137074609Y-75876642D01*
X137074603Y-75876642D01*
X137014567Y-75880274D01*
X137007079Y-75880500D01*
X136263000Y-75880500D01*
X136195961Y-75860815D01*
X136150206Y-75808011D01*
X136139000Y-75756500D01*
X136139000Y-75713000D01*
X136120409Y-75713000D01*
X136053370Y-75693315D01*
X136021144Y-75663313D01*
X135996546Y-75630454D01*
X135905457Y-75562265D01*
X135863588Y-75506333D01*
X135858604Y-75436641D01*
X135892089Y-75375318D01*
X135905452Y-75363738D01*
X135996546Y-75295546D01*
X136021143Y-75262687D01*
X136077076Y-75220818D01*
X136120409Y-75213000D01*
X136139000Y-75213000D01*
X136139000Y-75140172D01*
X136138999Y-75140160D01*
X136132380Y-75078604D01*
X136132380Y-75052090D01*
X136133090Y-75045485D01*
X136133091Y-75045483D01*
X136139500Y-74985873D01*
X136139499Y-74340128D01*
X136133091Y-74280517D01*
X136133089Y-74280513D01*
X136132632Y-74276255D01*
X136132632Y-74249745D01*
X136133089Y-74245486D01*
X136133091Y-74245483D01*
X136139500Y-74185873D01*
X136139499Y-73540128D01*
X136133091Y-73480517D01*
X136133089Y-73480513D01*
X136132632Y-73476255D01*
X136132632Y-73449745D01*
X136133089Y-73445486D01*
X136133091Y-73445483D01*
X136139500Y-73385873D01*
X136139499Y-72740128D01*
X136133091Y-72680517D01*
X136133089Y-72680513D01*
X136132632Y-72676255D01*
X136132632Y-72649745D01*
X136133089Y-72645486D01*
X136133091Y-72645483D01*
X136139500Y-72585873D01*
X136139499Y-71940128D01*
X136133091Y-71880517D01*
X136133089Y-71880513D01*
X136132632Y-71876255D01*
X136132632Y-71849745D01*
X136133089Y-71845486D01*
X136133091Y-71845483D01*
X136139500Y-71785873D01*
X136139499Y-71140128D01*
X136133091Y-71080517D01*
X136133089Y-71080513D01*
X136132632Y-71076255D01*
X136132632Y-71049745D01*
X136133089Y-71045486D01*
X136133091Y-71045483D01*
X136139500Y-70985873D01*
X136139499Y-70340128D01*
X136133091Y-70280517D01*
X136133089Y-70280513D01*
X136132632Y-70276255D01*
X136132632Y-70249745D01*
X136133089Y-70245486D01*
X136133091Y-70245483D01*
X136139500Y-70185873D01*
X136139499Y-69540128D01*
X136133091Y-69480517D01*
X136133090Y-69480516D01*
X136132380Y-69473904D01*
X136132381Y-69447393D01*
X136138999Y-69385842D01*
X136139000Y-69385827D01*
X136139000Y-69313000D01*
X136120409Y-69313000D01*
X136053370Y-69293315D01*
X136021144Y-69263313D01*
X135996546Y-69230454D01*
X135905457Y-69162265D01*
X135863588Y-69106333D01*
X135858604Y-69036641D01*
X135892089Y-68975318D01*
X135905452Y-68963738D01*
X135996546Y-68895546D01*
X136021143Y-68862687D01*
X136077076Y-68820818D01*
X136120409Y-68813000D01*
X136139000Y-68813000D01*
X136139000Y-68740172D01*
X136138999Y-68740160D01*
X136132380Y-68678604D01*
X136132380Y-68652090D01*
X136133090Y-68645485D01*
X136133091Y-68645483D01*
X136139500Y-68585873D01*
X136139499Y-67940128D01*
X136139499Y-67940127D01*
X136139499Y-67937000D01*
X136159183Y-67869961D01*
X136211987Y-67824206D01*
X136263499Y-67813000D01*
X136339000Y-67813000D01*
X136339000Y-66813000D01*
X135814000Y-66813000D01*
X135814000Y-67363500D01*
X135794315Y-67430539D01*
X135741511Y-67476294D01*
X135690000Y-67487500D01*
X134462809Y-67487500D01*
X134395770Y-67467815D01*
X134350015Y-67415011D01*
X134340071Y-67345853D01*
X134355422Y-67301501D01*
X134431176Y-67170289D01*
X134431175Y-67170289D01*
X134431179Y-67170284D01*
X134489674Y-66990256D01*
X134509460Y-66802000D01*
X134489674Y-66613744D01*
X134431179Y-66433716D01*
X134361484Y-66313000D01*
X135814000Y-66313000D01*
X136339000Y-66313000D01*
X136339000Y-65313000D01*
X136266155Y-65313000D01*
X136206627Y-65319401D01*
X136206620Y-65319403D01*
X136071913Y-65369645D01*
X136071906Y-65369649D01*
X135956812Y-65455809D01*
X135956809Y-65455812D01*
X135870649Y-65570906D01*
X135870645Y-65570913D01*
X135820403Y-65705620D01*
X135820401Y-65705627D01*
X135814000Y-65765155D01*
X135814000Y-66313000D01*
X134361484Y-66313000D01*
X134336533Y-66269784D01*
X134209871Y-66129112D01*
X134209870Y-66129111D01*
X134056734Y-66017851D01*
X134056729Y-66017848D01*
X133883807Y-65940857D01*
X133883802Y-65940855D01*
X133738001Y-65909865D01*
X133698646Y-65901500D01*
X133509354Y-65901500D01*
X133476897Y-65908398D01*
X133324197Y-65940855D01*
X133324192Y-65940857D01*
X133151270Y-66017848D01*
X133151265Y-66017851D01*
X132998129Y-66129111D01*
X132871466Y-66269785D01*
X132776821Y-66433715D01*
X132776818Y-66433722D01*
X132718327Y-66613739D01*
X132718325Y-66613750D01*
X132713134Y-66663129D01*
X132686549Y-66727743D01*
X132677495Y-66737846D01*
X132478160Y-66937181D01*
X132416837Y-66970666D01*
X132390479Y-66973500D01*
X132094999Y-66973500D01*
X132094980Y-66973501D01*
X131992203Y-66984000D01*
X131992200Y-66984001D01*
X131825668Y-67039185D01*
X131825663Y-67039187D01*
X131676342Y-67131289D01*
X131552288Y-67255343D01*
X131552283Y-67255349D01*
X131550241Y-67258661D01*
X131548247Y-67260453D01*
X131547807Y-67261011D01*
X131547711Y-67260935D01*
X131498291Y-67305383D01*
X131429328Y-67316602D01*
X131365247Y-67288755D01*
X131339168Y-67258656D01*
X131337319Y-67255659D01*
X131337316Y-67255655D01*
X131213345Y-67131684D01*
X131064124Y-67039643D01*
X131064119Y-67039641D01*
X130897697Y-66984494D01*
X130897690Y-66984493D01*
X130794986Y-66974000D01*
X130657500Y-66974000D01*
X130657500Y-69423999D01*
X130794972Y-69423999D01*
X130794986Y-69423998D01*
X130897697Y-69413505D01*
X131064119Y-69358358D01*
X131064124Y-69358356D01*
X131213345Y-69266315D01*
X131337318Y-69142342D01*
X131339165Y-69139348D01*
X131340969Y-69137724D01*
X131341798Y-69136677D01*
X131341976Y-69136818D01*
X131391110Y-69092621D01*
X131460073Y-69081396D01*
X131524156Y-69109236D01*
X131550243Y-69139341D01*
X131552288Y-69142656D01*
X131676344Y-69266712D01*
X131825666Y-69358814D01*
X131992203Y-69413999D01*
X132094991Y-69424500D01*
X132870008Y-69424499D01*
X132870016Y-69424498D01*
X132870019Y-69424498D01*
X132926302Y-69418748D01*
X132972797Y-69413999D01*
X133139334Y-69358814D01*
X133288656Y-69266712D01*
X133412712Y-69142656D01*
X133412715Y-69142650D01*
X133417193Y-69136989D01*
X133419557Y-69138858D01*
X133461358Y-69101225D01*
X133530315Y-69089971D01*
X133594410Y-69117785D01*
X133633293Y-69175836D01*
X133639000Y-69213022D01*
X133639000Y-69385844D01*
X133645619Y-69447398D01*
X133645620Y-69473909D01*
X133644909Y-69480514D01*
X133644909Y-69480517D01*
X133638500Y-69540127D01*
X133638500Y-69540134D01*
X133638500Y-69540135D01*
X133638500Y-70185870D01*
X133638501Y-70185879D01*
X133645367Y-70249751D01*
X133645367Y-70276257D01*
X133644909Y-70280516D01*
X133644909Y-70280517D01*
X133638500Y-70340127D01*
X133638500Y-70340129D01*
X133638500Y-70340133D01*
X133638500Y-70985870D01*
X133638501Y-70985879D01*
X133645367Y-71049751D01*
X133645367Y-71076257D01*
X133644909Y-71080516D01*
X133644909Y-71080517D01*
X133638500Y-71140127D01*
X133638500Y-71140129D01*
X133638500Y-71140133D01*
X133638500Y-71785870D01*
X133638501Y-71785879D01*
X133645367Y-71849751D01*
X133645367Y-71876257D01*
X133644909Y-71880516D01*
X133644909Y-71880517D01*
X133638500Y-71940127D01*
X133638500Y-71940129D01*
X133638500Y-71940133D01*
X133638500Y-72585870D01*
X133638501Y-72585879D01*
X133645367Y-72649751D01*
X133645367Y-72676257D01*
X133644909Y-72680516D01*
X133644909Y-72680517D01*
X133638500Y-72740127D01*
X133638500Y-72740129D01*
X133638500Y-72740133D01*
X133638500Y-73385870D01*
X133638501Y-73385879D01*
X133645367Y-73449751D01*
X133645367Y-73476257D01*
X133644909Y-73480516D01*
X133644909Y-73480517D01*
X133638500Y-73540127D01*
X133638500Y-73781796D01*
X133638501Y-73913500D01*
X133618817Y-73980539D01*
X133566013Y-74026294D01*
X133514501Y-74037500D01*
X132736952Y-74037500D01*
X132669913Y-74017815D01*
X132649271Y-74001181D01*
X129405803Y-70757712D01*
X129395980Y-70745450D01*
X129395759Y-70745634D01*
X129390786Y-70739622D01*
X129341776Y-70693599D01*
X129338977Y-70690886D01*
X129319477Y-70671385D01*
X129319471Y-70671380D01*
X129316286Y-70668909D01*
X129307434Y-70661348D01*
X129275582Y-70631438D01*
X129275580Y-70631436D01*
X129275577Y-70631435D01*
X129258029Y-70621788D01*
X129241763Y-70611104D01*
X129225932Y-70598824D01*
X129185849Y-70581478D01*
X129175363Y-70576341D01*
X129137094Y-70555303D01*
X129137092Y-70555302D01*
X129117693Y-70550322D01*
X129099281Y-70544018D01*
X129080898Y-70536062D01*
X129080892Y-70536060D01*
X129037760Y-70529229D01*
X129026320Y-70526860D01*
X128981515Y-70515356D01*
X128921477Y-70479618D01*
X128906817Y-70460352D01*
X128829712Y-70335344D01*
X128705656Y-70211288D01*
X128702342Y-70209243D01*
X128700546Y-70207248D01*
X128699989Y-70206807D01*
X128700064Y-70206711D01*
X128655618Y-70157297D01*
X128644397Y-70088334D01*
X128672240Y-70024252D01*
X128702348Y-69998165D01*
X128705342Y-69996318D01*
X128829315Y-69872345D01*
X128921356Y-69723124D01*
X128921358Y-69723119D01*
X128976505Y-69556697D01*
X128976506Y-69556690D01*
X128986999Y-69453986D01*
X128987000Y-69453973D01*
X128987000Y-69316500D01*
X126537001Y-69316500D01*
X126537001Y-69453986D01*
X126547494Y-69556697D01*
X126602641Y-69723119D01*
X126602643Y-69723124D01*
X126694684Y-69872345D01*
X126818655Y-69996316D01*
X126818659Y-69996319D01*
X126821656Y-69998168D01*
X126823279Y-69999972D01*
X126824323Y-70000798D01*
X126824181Y-70000976D01*
X126868381Y-70050116D01*
X126879602Y-70119079D01*
X126851759Y-70183161D01*
X126821661Y-70209241D01*
X126818349Y-70211283D01*
X126818343Y-70211288D01*
X126694289Y-70335342D01*
X126602187Y-70484663D01*
X126602185Y-70484668D01*
X126578779Y-70555303D01*
X126547001Y-70651203D01*
X126547001Y-70651204D01*
X126547000Y-70651204D01*
X126536500Y-70753983D01*
X126536500Y-71529001D01*
X126536501Y-71529019D01*
X126547000Y-71631796D01*
X126547001Y-71631799D01*
X126570713Y-71703356D01*
X126602186Y-71798334D01*
X126694288Y-71947656D01*
X126818344Y-72071712D01*
X126967666Y-72163814D01*
X127134203Y-72218999D01*
X127236991Y-72229500D01*
X128287008Y-72229499D01*
X128287016Y-72229498D01*
X128287019Y-72229498D01*
X128343302Y-72223748D01*
X128389797Y-72218999D01*
X128556334Y-72163814D01*
X128705656Y-72071712D01*
X128740456Y-72036911D01*
X128801777Y-72003425D01*
X128871469Y-72008408D01*
X128915819Y-72036910D01*
X130129381Y-73250472D01*
X130162866Y-73311795D01*
X130157882Y-73381487D01*
X130116010Y-73437420D01*
X130050546Y-73461837D01*
X130028445Y-73461443D01*
X130023485Y-73460909D01*
X130023483Y-73460909D01*
X129963873Y-73454500D01*
X129963864Y-73454500D01*
X126068129Y-73454500D01*
X126068123Y-73454501D01*
X126008516Y-73460908D01*
X125873671Y-73511202D01*
X125873664Y-73511206D01*
X125758455Y-73597452D01*
X125758452Y-73597455D01*
X125672206Y-73712664D01*
X125672202Y-73712671D01*
X125621908Y-73847517D01*
X125615501Y-73907116D01*
X125615500Y-73907135D01*
X125615500Y-76002870D01*
X125615501Y-76002876D01*
X125621908Y-76062483D01*
X125672202Y-76197328D01*
X125672206Y-76197335D01*
X125758452Y-76312544D01*
X125758455Y-76312547D01*
X125873664Y-76398793D01*
X125873671Y-76398797D01*
X126008517Y-76449091D01*
X126008516Y-76449091D01*
X126015444Y-76449835D01*
X126068127Y-76455500D01*
X127483480Y-76455499D01*
X127550519Y-76475184D01*
X127571161Y-76491818D01*
X127978495Y-76899152D01*
X128011980Y-76960475D01*
X128014134Y-76973869D01*
X128019325Y-77023249D01*
X128019327Y-77023260D01*
X128077818Y-77203277D01*
X128077821Y-77203284D01*
X128172467Y-77367216D01*
X128275369Y-77481500D01*
X128299129Y-77507888D01*
X128452265Y-77619148D01*
X128452270Y-77619151D01*
X128625192Y-77696142D01*
X128625197Y-77696144D01*
X128810354Y-77735500D01*
X128810355Y-77735500D01*
X128999644Y-77735500D01*
X128999646Y-77735500D01*
X129184803Y-77696144D01*
X129357730Y-77619151D01*
X129510871Y-77507888D01*
X129637533Y-77367216D01*
X129732179Y-77203284D01*
X129790674Y-77023256D01*
X129810460Y-76835000D01*
X129790674Y-76646744D01*
X129781275Y-76617817D01*
X129779280Y-76547976D01*
X129815360Y-76488143D01*
X129878061Y-76457315D01*
X129899206Y-76455499D01*
X129963871Y-76455499D01*
X129963872Y-76455499D01*
X130023483Y-76449091D01*
X130158331Y-76398796D01*
X130273546Y-76312546D01*
X130359796Y-76197331D01*
X130410091Y-76062483D01*
X130416500Y-76002873D01*
X130416499Y-73907128D01*
X130410091Y-73847517D01*
X130410090Y-73847515D01*
X130409557Y-73842554D01*
X130421963Y-73773795D01*
X130469574Y-73722658D01*
X130537274Y-73705379D01*
X130603568Y-73727444D01*
X130620528Y-73741619D01*
X131925697Y-75046788D01*
X131935522Y-75059051D01*
X131935743Y-75058869D01*
X131940711Y-75064874D01*
X131940713Y-75064876D01*
X131940714Y-75064877D01*
X131977935Y-75099830D01*
X131989722Y-75110899D01*
X131992521Y-75113612D01*
X132012022Y-75133114D01*
X132012026Y-75133117D01*
X132012029Y-75133120D01*
X132015202Y-75135581D01*
X132024074Y-75143159D01*
X132055918Y-75173062D01*
X132073476Y-75182714D01*
X132089733Y-75193393D01*
X132105564Y-75205673D01*
X132135303Y-75218542D01*
X132145652Y-75223021D01*
X132156141Y-75228160D01*
X132179957Y-75241252D01*
X132194408Y-75249197D01*
X132207023Y-75252435D01*
X132213805Y-75254177D01*
X132232219Y-75260481D01*
X132250604Y-75268438D01*
X132293761Y-75275273D01*
X132305156Y-75277632D01*
X132347481Y-75288500D01*
X132367516Y-75288500D01*
X132386913Y-75290026D01*
X132406696Y-75293160D01*
X132450175Y-75289050D01*
X132461844Y-75288500D01*
X133730769Y-75288500D01*
X133797808Y-75308185D01*
X133805080Y-75313233D01*
X133872540Y-75363733D01*
X133914411Y-75419667D01*
X133919395Y-75489358D01*
X133885910Y-75550681D01*
X133872540Y-75562266D01*
X133781456Y-75630451D01*
X133781454Y-75630454D01*
X133756856Y-75663312D01*
X133700924Y-75705182D01*
X133657591Y-75713000D01*
X133639000Y-75713000D01*
X133639000Y-75785844D01*
X133645619Y-75847398D01*
X133645620Y-75873909D01*
X133644909Y-75880514D01*
X133644909Y-75880517D01*
X133638500Y-75940127D01*
X133638500Y-75940135D01*
X133638500Y-76393479D01*
X133618815Y-76460518D01*
X133602181Y-76481160D01*
X133541025Y-76542316D01*
X133479702Y-76575801D01*
X133479125Y-76575925D01*
X133324197Y-76608855D01*
X133324192Y-76608857D01*
X133151270Y-76685848D01*
X133151265Y-76685851D01*
X132998129Y-76797111D01*
X132871466Y-76937785D01*
X132776821Y-77101715D01*
X132776818Y-77101722D01*
X132720675Y-77274514D01*
X132718326Y-77281744D01*
X132698540Y-77470000D01*
X132718326Y-77658256D01*
X132718327Y-77658259D01*
X132776818Y-77838277D01*
X132776821Y-77838284D01*
X132871467Y-78002216D01*
X132986907Y-78130425D01*
X132998129Y-78142888D01*
X133151265Y-78254148D01*
X133151270Y-78254151D01*
X133324192Y-78331142D01*
X133324197Y-78331144D01*
X133509354Y-78370500D01*
X133509355Y-78370500D01*
X133698644Y-78370500D01*
X133698646Y-78370500D01*
X133883803Y-78331144D01*
X134056730Y-78254151D01*
X134209871Y-78142888D01*
X134336533Y-78002216D01*
X134431179Y-77838284D01*
X134489674Y-77658256D01*
X134494864Y-77608869D01*
X134521447Y-77544258D01*
X134530494Y-77534161D01*
X134807515Y-77257140D01*
X134868836Y-77223657D01*
X134938528Y-77228641D01*
X134946067Y-77231740D01*
X134984768Y-77249158D01*
X134997064Y-77254693D01*
X134997065Y-77254693D01*
X134997069Y-77254695D01*
X135007034Y-77256521D01*
X135028656Y-77262548D01*
X135031777Y-77263731D01*
X135038128Y-77266140D01*
X135095689Y-77273128D01*
X135097815Y-77273387D01*
X135105222Y-77274514D01*
X135164394Y-77285358D01*
X135224433Y-77281725D01*
X135231921Y-77281500D01*
X135689500Y-77281500D01*
X135756539Y-77301185D01*
X135802294Y-77353989D01*
X135813500Y-77405500D01*
X135813500Y-78760870D01*
X135813501Y-78760876D01*
X135819908Y-78820483D01*
X135870202Y-78955328D01*
X135870206Y-78955335D01*
X135956452Y-79070544D01*
X135956455Y-79070547D01*
X136071664Y-79156793D01*
X136071671Y-79156797D01*
X136096684Y-79166126D01*
X136206517Y-79207091D01*
X136266127Y-79213500D01*
X136911872Y-79213499D01*
X136971483Y-79207091D01*
X136971486Y-79207089D01*
X136975744Y-79206632D01*
X137002254Y-79206632D01*
X137006514Y-79207089D01*
X137006517Y-79207091D01*
X137066127Y-79213500D01*
X137464500Y-79213499D01*
X137531539Y-79233183D01*
X137577294Y-79285987D01*
X137588500Y-79337499D01*
X137588500Y-79944500D01*
X137568815Y-80011539D01*
X137516011Y-80057294D01*
X137464500Y-80068500D01*
X137040998Y-80068500D01*
X137040980Y-80068501D01*
X136938203Y-80079000D01*
X136938200Y-80079001D01*
X136771668Y-80134185D01*
X136771663Y-80134187D01*
X136622342Y-80226289D01*
X136498289Y-80350342D01*
X136406187Y-80499663D01*
X136406185Y-80499668D01*
X136388083Y-80554298D01*
X136351001Y-80666203D01*
X136351001Y-80666204D01*
X136351000Y-80666204D01*
X136340500Y-80768983D01*
X136340500Y-81569001D01*
X136340501Y-81569019D01*
X136351000Y-81671796D01*
X136351001Y-81671799D01*
X136389246Y-81787214D01*
X136406186Y-81838334D01*
X136493061Y-81979182D01*
X136498289Y-81987657D01*
X136591951Y-82081319D01*
X136625436Y-82142642D01*
X136620452Y-82212334D01*
X136591951Y-82256681D01*
X136498289Y-82350342D01*
X136406187Y-82499663D01*
X136406185Y-82499668D01*
X136378349Y-82583670D01*
X136351001Y-82666203D01*
X136351001Y-82666204D01*
X136351000Y-82666204D01*
X136340500Y-82768983D01*
X136340500Y-83569001D01*
X136340501Y-83569019D01*
X136351000Y-83671796D01*
X136351001Y-83671799D01*
X136395113Y-83804917D01*
X136406186Y-83838334D01*
X136498288Y-83987656D01*
X136622344Y-84111712D01*
X136771666Y-84203814D01*
X136938203Y-84258999D01*
X137040991Y-84269500D01*
X137538500Y-84269499D01*
X137605539Y-84289183D01*
X137651294Y-84341987D01*
X137662500Y-84393499D01*
X137662500Y-85208500D01*
X137642815Y-85275539D01*
X137590011Y-85321294D01*
X137538500Y-85332500D01*
X137446354Y-85332500D01*
X137413897Y-85339398D01*
X137261197Y-85371855D01*
X137261192Y-85371857D01*
X137088270Y-85448848D01*
X137088265Y-85448851D01*
X136935129Y-85560111D01*
X136808466Y-85700785D01*
X136713821Y-85864715D01*
X136713818Y-85864722D01*
X136670228Y-85998880D01*
X136655326Y-86044744D01*
X136635540Y-86233000D01*
X136655326Y-86421256D01*
X136655327Y-86421259D01*
X136675122Y-86482182D01*
X136677117Y-86552023D01*
X136641037Y-86611856D01*
X136578336Y-86642684D01*
X136557191Y-86644500D01*
X135995129Y-86644500D01*
X135995123Y-86644501D01*
X135935516Y-86650908D01*
X135800671Y-86701202D01*
X135800664Y-86701206D01*
X135685455Y-86787452D01*
X135685452Y-86787455D01*
X135599206Y-86902664D01*
X135599202Y-86902671D01*
X135548908Y-87037517D01*
X135542501Y-87097116D01*
X135542501Y-87097123D01*
X135542500Y-87097135D01*
X135542500Y-88525404D01*
X135522815Y-88592443D01*
X135470011Y-88638198D01*
X135406347Y-88648807D01*
X135363001Y-88644538D01*
X135363000Y-88644538D01*
X135343201Y-88646488D01*
X135161968Y-88664337D01*
X134968654Y-88722978D01*
X134790511Y-88818198D01*
X134790504Y-88818203D01*
X134634352Y-88946352D01*
X134506203Y-89102504D01*
X134506198Y-89102511D01*
X134410978Y-89280654D01*
X134352337Y-89473968D01*
X134337500Y-89624623D01*
X134337500Y-90575376D01*
X134352337Y-90726031D01*
X134410978Y-90919345D01*
X134506198Y-91097488D01*
X134506201Y-91097492D01*
X134506202Y-91097494D01*
X134549242Y-91149938D01*
X134634352Y-91253646D01*
X134747673Y-91346646D01*
X134787008Y-91404392D01*
X134788879Y-91474237D01*
X134752692Y-91534005D01*
X134689936Y-91564721D01*
X134669009Y-91566500D01*
X115948500Y-91566500D01*
X115881461Y-91546815D01*
X115835706Y-91494011D01*
X115824500Y-91442500D01*
X115824500Y-87118000D01*
X124070001Y-87118000D01*
X124070001Y-87467986D01*
X124080494Y-87570697D01*
X124135641Y-87737119D01*
X124135643Y-87737124D01*
X124227684Y-87886345D01*
X124351654Y-88010315D01*
X124500875Y-88102356D01*
X124500880Y-88102358D01*
X124667302Y-88157505D01*
X124667309Y-88157506D01*
X124770019Y-88167999D01*
X125819999Y-88167999D01*
X125820000Y-88167998D01*
X125820000Y-87118000D01*
X126320000Y-87118000D01*
X126320000Y-88167999D01*
X127369972Y-88167999D01*
X127369986Y-88167998D01*
X127472697Y-88157505D01*
X127639119Y-88102358D01*
X127639124Y-88102356D01*
X127788345Y-88010315D01*
X127912315Y-87886345D01*
X128004356Y-87737124D01*
X128004358Y-87737119D01*
X128059505Y-87570697D01*
X128059506Y-87570690D01*
X128069999Y-87467986D01*
X128070000Y-87467973D01*
X128070000Y-87118000D01*
X126320000Y-87118000D01*
X125820000Y-87118000D01*
X124070001Y-87118000D01*
X115824500Y-87118000D01*
X115824500Y-86618000D01*
X124070000Y-86618000D01*
X125820000Y-86618000D01*
X125820000Y-85568000D01*
X126320000Y-85568000D01*
X126320000Y-86618000D01*
X128069999Y-86618000D01*
X128069999Y-86268028D01*
X128069998Y-86268013D01*
X128059505Y-86165302D01*
X128004358Y-85998880D01*
X128004356Y-85998875D01*
X127912315Y-85849654D01*
X127788345Y-85725684D01*
X127639124Y-85633643D01*
X127639119Y-85633641D01*
X127472697Y-85578494D01*
X127472690Y-85578493D01*
X127369986Y-85568000D01*
X126320000Y-85568000D01*
X125820000Y-85568000D01*
X124770028Y-85568000D01*
X124770012Y-85568001D01*
X124667302Y-85578494D01*
X124500880Y-85633641D01*
X124500875Y-85633643D01*
X124351654Y-85725684D01*
X124227684Y-85849654D01*
X124135643Y-85998875D01*
X124135641Y-85998880D01*
X124080494Y-86165302D01*
X124080493Y-86165309D01*
X124070000Y-86268013D01*
X124070000Y-86618000D01*
X115824500Y-86618000D01*
X115824500Y-81505000D01*
X124466000Y-81505000D01*
X124466000Y-82302844D01*
X124472401Y-82362372D01*
X124472403Y-82362379D01*
X124522645Y-82497086D01*
X124522649Y-82497093D01*
X124608809Y-82612187D01*
X124608812Y-82612190D01*
X124723906Y-82698350D01*
X124723913Y-82698354D01*
X124858620Y-82748596D01*
X124858627Y-82748598D01*
X124918155Y-82754999D01*
X124918172Y-82755000D01*
X125466000Y-82755000D01*
X125966000Y-82755000D01*
X126513828Y-82755000D01*
X126513844Y-82754999D01*
X126573372Y-82748598D01*
X126573379Y-82748596D01*
X126708086Y-82698354D01*
X126708089Y-82698352D01*
X126791271Y-82636082D01*
X126856735Y-82611664D01*
X126925008Y-82626515D01*
X126939887Y-82636077D01*
X127023076Y-82698352D01*
X127023668Y-82698795D01*
X127023671Y-82698797D01*
X127158517Y-82749091D01*
X127158516Y-82749091D01*
X127161493Y-82749411D01*
X127218127Y-82755500D01*
X128813872Y-82755499D01*
X128873483Y-82749091D01*
X129008331Y-82698796D01*
X129091689Y-82636393D01*
X129157153Y-82611977D01*
X129225426Y-82626828D01*
X129240309Y-82636393D01*
X129280132Y-82666204D01*
X129323669Y-82698796D01*
X129323671Y-82698797D01*
X129366814Y-82714888D01*
X129458517Y-82749091D01*
X129518127Y-82755500D01*
X129645500Y-82755499D01*
X129712539Y-82775183D01*
X129758294Y-82827987D01*
X129769500Y-82879499D01*
X129769500Y-85443500D01*
X129749815Y-85510539D01*
X129697011Y-85556294D01*
X129645500Y-85567500D01*
X129169998Y-85567500D01*
X129169980Y-85567501D01*
X129067203Y-85578000D01*
X129067200Y-85578001D01*
X128900668Y-85633185D01*
X128900663Y-85633187D01*
X128751342Y-85725289D01*
X128627289Y-85849342D01*
X128535187Y-85998663D01*
X128535185Y-85998668D01*
X128519917Y-86044744D01*
X128480001Y-86165203D01*
X128480001Y-86165204D01*
X128480000Y-86165204D01*
X128469500Y-86267983D01*
X128469500Y-87468001D01*
X128469501Y-87468018D01*
X128480000Y-87570796D01*
X128480001Y-87570799D01*
X128484924Y-87585655D01*
X128535186Y-87737334D01*
X128627288Y-87886656D01*
X128751344Y-88010712D01*
X128900666Y-88102814D01*
X129067203Y-88157999D01*
X129169991Y-88168500D01*
X131770008Y-88168499D01*
X131872797Y-88157999D01*
X132039334Y-88102814D01*
X132188656Y-88010712D01*
X132312712Y-87886656D01*
X132404814Y-87737334D01*
X132459999Y-87570797D01*
X132470500Y-87468009D01*
X132470499Y-86267992D01*
X132459999Y-86165203D01*
X132404814Y-85998666D01*
X132312712Y-85849344D01*
X132188656Y-85725288D01*
X132039334Y-85633186D01*
X131872797Y-85578001D01*
X131872795Y-85578000D01*
X131770016Y-85567500D01*
X131770009Y-85567500D01*
X131294500Y-85567500D01*
X131227461Y-85547815D01*
X131181706Y-85495011D01*
X131170500Y-85443500D01*
X131170500Y-82836298D01*
X131190185Y-82769259D01*
X131242989Y-82723504D01*
X131251144Y-82720125D01*
X131308331Y-82698796D01*
X131423546Y-82612546D01*
X131509796Y-82497331D01*
X131560091Y-82362483D01*
X131566500Y-82302873D01*
X131566500Y-82079500D01*
X131586185Y-82012461D01*
X131638989Y-81966706D01*
X131690500Y-81955500D01*
X131934844Y-81955500D01*
X132001883Y-81975185D01*
X132007729Y-81979182D01*
X132090265Y-82039148D01*
X132090270Y-82039151D01*
X132263192Y-82116142D01*
X132263197Y-82116144D01*
X132448354Y-82155500D01*
X132448355Y-82155500D01*
X132637644Y-82155500D01*
X132637646Y-82155500D01*
X132822803Y-82116144D01*
X132995730Y-82039151D01*
X133148871Y-81927888D01*
X133275533Y-81787216D01*
X133370179Y-81623284D01*
X133428674Y-81443256D01*
X133448460Y-81255000D01*
X133428674Y-81066744D01*
X133370179Y-80886716D01*
X133275533Y-80722784D01*
X133148871Y-80582112D01*
X133148870Y-80582111D01*
X132995734Y-80470851D01*
X132995729Y-80470848D01*
X132822807Y-80393857D01*
X132822802Y-80393855D01*
X132677001Y-80362865D01*
X132637646Y-80354500D01*
X132448354Y-80354500D01*
X132415897Y-80361398D01*
X132263197Y-80393855D01*
X132263192Y-80393857D01*
X132090270Y-80470848D01*
X132090265Y-80470851D01*
X132007729Y-80530818D01*
X131941923Y-80554298D01*
X131934844Y-80554500D01*
X131690499Y-80554500D01*
X131623460Y-80534815D01*
X131577705Y-80482011D01*
X131566499Y-80430500D01*
X131566499Y-80207129D01*
X131566498Y-80207123D01*
X131566027Y-80202744D01*
X131560091Y-80147517D01*
X131555119Y-80134187D01*
X131509797Y-80012671D01*
X131509793Y-80012664D01*
X131423547Y-79897455D01*
X131423544Y-79897452D01*
X131308335Y-79811206D01*
X131308328Y-79811202D01*
X131173482Y-79760908D01*
X131173483Y-79760908D01*
X131113883Y-79754501D01*
X131113881Y-79754500D01*
X131113873Y-79754500D01*
X131113864Y-79754500D01*
X129518129Y-79754500D01*
X129518123Y-79754501D01*
X129458516Y-79760908D01*
X129323671Y-79811202D01*
X129323669Y-79811203D01*
X129240311Y-79873606D01*
X129174847Y-79898023D01*
X129106574Y-79883172D01*
X129091689Y-79873606D01*
X129008330Y-79811203D01*
X129008328Y-79811202D01*
X128873483Y-79760908D01*
X128827243Y-79755937D01*
X128762693Y-79729199D01*
X128722845Y-79671806D01*
X128716500Y-79632648D01*
X128716500Y-79507935D01*
X128722569Y-79469617D01*
X128774674Y-79309256D01*
X128794460Y-79121000D01*
X128774674Y-78932744D01*
X128716179Y-78752716D01*
X128621533Y-78588784D01*
X128494871Y-78448112D01*
X128494870Y-78448111D01*
X128341734Y-78336851D01*
X128341729Y-78336848D01*
X128168807Y-78259857D01*
X128168802Y-78259855D01*
X128023001Y-78228865D01*
X127983646Y-78220500D01*
X127794354Y-78220500D01*
X127761897Y-78227398D01*
X127609197Y-78259855D01*
X127609192Y-78259857D01*
X127436270Y-78336848D01*
X127436265Y-78336851D01*
X127283129Y-78448111D01*
X127156466Y-78588785D01*
X127061821Y-78752715D01*
X127061818Y-78752722D01*
X127003371Y-78932604D01*
X127003326Y-78932744D01*
X126983540Y-79121000D01*
X127003326Y-79309256D01*
X127003327Y-79309259D01*
X127061818Y-79489277D01*
X127061821Y-79489284D01*
X127134693Y-79615502D01*
X127151166Y-79683402D01*
X127128313Y-79749429D01*
X127073392Y-79792620D01*
X127070641Y-79793683D01*
X127023673Y-79811201D01*
X127023669Y-79811204D01*
X126939894Y-79873918D01*
X126874430Y-79898335D01*
X126806157Y-79883484D01*
X126791272Y-79873918D01*
X126708088Y-79811646D01*
X126708086Y-79811645D01*
X126573379Y-79761403D01*
X126573372Y-79761401D01*
X126513844Y-79755000D01*
X125966000Y-79755000D01*
X125966000Y-82755000D01*
X125466000Y-82755000D01*
X125466000Y-81505000D01*
X124466000Y-81505000D01*
X115824500Y-81505000D01*
X115824500Y-81005000D01*
X124466000Y-81005000D01*
X125466000Y-81005000D01*
X125466000Y-79755000D01*
X124918155Y-79755000D01*
X124858627Y-79761401D01*
X124858620Y-79761403D01*
X124723913Y-79811645D01*
X124723906Y-79811649D01*
X124608812Y-79897809D01*
X124608809Y-79897812D01*
X124522649Y-80012906D01*
X124522645Y-80012913D01*
X124472403Y-80147620D01*
X124472401Y-80147627D01*
X124466000Y-80207155D01*
X124466000Y-81005000D01*
X115824500Y-81005000D01*
X115824500Y-72461001D01*
X121635500Y-72461001D01*
X121635501Y-72461018D01*
X121646000Y-72563796D01*
X121646001Y-72563799D01*
X121701185Y-72730331D01*
X121701187Y-72730336D01*
X121707230Y-72740133D01*
X121793288Y-72879656D01*
X121917344Y-73003712D01*
X122066666Y-73095814D01*
X122233203Y-73150999D01*
X122298830Y-73157703D01*
X122363520Y-73184099D01*
X122388277Y-73210621D01*
X122407815Y-73238927D01*
X122407816Y-73238929D01*
X122452828Y-73278805D01*
X122458283Y-73283940D01*
X122644495Y-73470152D01*
X122677980Y-73531475D01*
X122680134Y-73544869D01*
X122685325Y-73594249D01*
X122685327Y-73594260D01*
X122743818Y-73774277D01*
X122743821Y-73774284D01*
X122838467Y-73938216D01*
X122921519Y-74030454D01*
X122965129Y-74078888D01*
X123118265Y-74190148D01*
X123118270Y-74190151D01*
X123291192Y-74267142D01*
X123291197Y-74267144D01*
X123476354Y-74306500D01*
X123476355Y-74306500D01*
X123665644Y-74306500D01*
X123665646Y-74306500D01*
X123850803Y-74267144D01*
X124023730Y-74190151D01*
X124176871Y-74078888D01*
X124303533Y-73938216D01*
X124398179Y-73774284D01*
X124456674Y-73594256D01*
X124476460Y-73406000D01*
X124456674Y-73217744D01*
X124398179Y-73037716D01*
X124303533Y-72873784D01*
X124219996Y-72781007D01*
X124189766Y-72718016D01*
X124194439Y-72659036D01*
X124225999Y-72563797D01*
X124236500Y-72461009D01*
X124236499Y-69860992D01*
X124225999Y-69758203D01*
X124170814Y-69591666D01*
X124078712Y-69442344D01*
X123954656Y-69318288D01*
X123823677Y-69237500D01*
X123805336Y-69226187D01*
X123805331Y-69226185D01*
X123780072Y-69217815D01*
X123638797Y-69171001D01*
X123638795Y-69171000D01*
X123536010Y-69160500D01*
X122335998Y-69160500D01*
X122335981Y-69160501D01*
X122233203Y-69171000D01*
X122233200Y-69171001D01*
X122066668Y-69226185D01*
X122066663Y-69226187D01*
X121917342Y-69318289D01*
X121793289Y-69442342D01*
X121701187Y-69591663D01*
X121701185Y-69591668D01*
X121678655Y-69659661D01*
X121646001Y-69758203D01*
X121646001Y-69758204D01*
X121646000Y-69758204D01*
X121635500Y-69860983D01*
X121635500Y-72461001D01*
X115824500Y-72461001D01*
X115824500Y-68816500D01*
X126537000Y-68816500D01*
X127512000Y-68816500D01*
X127512000Y-67979000D01*
X128012000Y-67979000D01*
X128012000Y-68816500D01*
X128986999Y-68816500D01*
X128986999Y-68679028D01*
X128986998Y-68679013D01*
X128976505Y-68576302D01*
X128934321Y-68449000D01*
X129320001Y-68449000D01*
X129320001Y-68723986D01*
X129330494Y-68826697D01*
X129385641Y-68993119D01*
X129385643Y-68993124D01*
X129477684Y-69142345D01*
X129601654Y-69266315D01*
X129750875Y-69358356D01*
X129750880Y-69358358D01*
X129917302Y-69413505D01*
X129917309Y-69413506D01*
X130020019Y-69423999D01*
X130157499Y-69423999D01*
X130157500Y-69423998D01*
X130157500Y-68449000D01*
X129320001Y-68449000D01*
X128934321Y-68449000D01*
X128921358Y-68409880D01*
X128921356Y-68409875D01*
X128829315Y-68260654D01*
X128705345Y-68136684D01*
X128556124Y-68044643D01*
X128556119Y-68044641D01*
X128389697Y-67989494D01*
X128389690Y-67989493D01*
X128286986Y-67979000D01*
X128012000Y-67979000D01*
X127512000Y-67979000D01*
X127237029Y-67979000D01*
X127237012Y-67979001D01*
X127134302Y-67989494D01*
X126967880Y-68044641D01*
X126967875Y-68044643D01*
X126818654Y-68136684D01*
X126694684Y-68260654D01*
X126602643Y-68409875D01*
X126602641Y-68409880D01*
X126547494Y-68576302D01*
X126547493Y-68576309D01*
X126537000Y-68679013D01*
X126537000Y-68816500D01*
X115824500Y-68816500D01*
X115824500Y-67011000D01*
X121636001Y-67011000D01*
X121636001Y-68060986D01*
X121646494Y-68163697D01*
X121701641Y-68330119D01*
X121701643Y-68330124D01*
X121793684Y-68479345D01*
X121917654Y-68603315D01*
X122066875Y-68695356D01*
X122066880Y-68695358D01*
X122233302Y-68750505D01*
X122233309Y-68750506D01*
X122336019Y-68760999D01*
X122685999Y-68760999D01*
X122686000Y-68760998D01*
X122686000Y-67011000D01*
X123186000Y-67011000D01*
X123186000Y-68760999D01*
X123535972Y-68760999D01*
X123535986Y-68760998D01*
X123638697Y-68750505D01*
X123805119Y-68695358D01*
X123805124Y-68695356D01*
X123954345Y-68603315D01*
X124078315Y-68479345D01*
X124170356Y-68330124D01*
X124170358Y-68330119D01*
X124225505Y-68163697D01*
X124225506Y-68163690D01*
X124235999Y-68060986D01*
X124236000Y-68060973D01*
X124236000Y-67949000D01*
X129320000Y-67949000D01*
X130157500Y-67949000D01*
X130157500Y-66974000D01*
X130020027Y-66974000D01*
X130020012Y-66974001D01*
X129917302Y-66984494D01*
X129750880Y-67039641D01*
X129750875Y-67039643D01*
X129601654Y-67131684D01*
X129477684Y-67255654D01*
X129385643Y-67404875D01*
X129385641Y-67404880D01*
X129330494Y-67571302D01*
X129330493Y-67571309D01*
X129320000Y-67674013D01*
X129320000Y-67949000D01*
X124236000Y-67949000D01*
X124236000Y-67011000D01*
X123186000Y-67011000D01*
X122686000Y-67011000D01*
X121636001Y-67011000D01*
X115824500Y-67011000D01*
X115824500Y-66511000D01*
X121636000Y-66511000D01*
X122686000Y-66511000D01*
X122686000Y-64761000D01*
X123186000Y-64761000D01*
X123186000Y-66511000D01*
X124235999Y-66511000D01*
X124235999Y-65461028D01*
X124235998Y-65461013D01*
X124225505Y-65358302D01*
X124170358Y-65191880D01*
X124170356Y-65191875D01*
X124078315Y-65042654D01*
X123954345Y-64918684D01*
X123805124Y-64826643D01*
X123805119Y-64826641D01*
X123638697Y-64771494D01*
X123638690Y-64771493D01*
X123535986Y-64761000D01*
X123186000Y-64761000D01*
X122686000Y-64761000D01*
X122336028Y-64761000D01*
X122336012Y-64761001D01*
X122233302Y-64771494D01*
X122066880Y-64826641D01*
X122066875Y-64826643D01*
X121917654Y-64918684D01*
X121793684Y-65042654D01*
X121701643Y-65191875D01*
X121701641Y-65191880D01*
X121646494Y-65358302D01*
X121646493Y-65358309D01*
X121636000Y-65461013D01*
X121636000Y-66511000D01*
X115824500Y-66511000D01*
X115824500Y-61722000D01*
X118257975Y-61722000D01*
X118278042Y-61976989D01*
X118337752Y-62225702D01*
X118435634Y-62462012D01*
X118435636Y-62462015D01*
X118569277Y-62680098D01*
X118569284Y-62680107D01*
X118572533Y-62683912D01*
X119210803Y-62045641D01*
X119234059Y-62099553D01*
X119338756Y-62240185D01*
X119473062Y-62352882D01*
X119564665Y-62398887D01*
X118926087Y-63037465D01*
X118929897Y-63040719D01*
X119147984Y-63174363D01*
X119147987Y-63174365D01*
X119384297Y-63272247D01*
X119633011Y-63331957D01*
X119633010Y-63331957D01*
X119888000Y-63352024D01*
X120142989Y-63331957D01*
X120391702Y-63272247D01*
X120628012Y-63174365D01*
X120628015Y-63174363D01*
X120846095Y-63040724D01*
X120846110Y-63040713D01*
X120849911Y-63037466D01*
X120849911Y-63037464D01*
X120213946Y-62401498D01*
X120226891Y-62396787D01*
X120373373Y-62300445D01*
X120493688Y-62172918D01*
X120566447Y-62046894D01*
X121203464Y-62683911D01*
X121203466Y-62683911D01*
X121206713Y-62680110D01*
X121206724Y-62680095D01*
X121340363Y-62462015D01*
X121340365Y-62462012D01*
X121438247Y-62225702D01*
X121497957Y-61976989D01*
X121518024Y-61722000D01*
X123337975Y-61722000D01*
X123358042Y-61976989D01*
X123417752Y-62225702D01*
X123515634Y-62462012D01*
X123515636Y-62462015D01*
X123649277Y-62680098D01*
X123649284Y-62680107D01*
X123652533Y-62683912D01*
X124290803Y-62045641D01*
X124314059Y-62099553D01*
X124418756Y-62240185D01*
X124553062Y-62352882D01*
X124644665Y-62398887D01*
X124006087Y-63037465D01*
X124009897Y-63040719D01*
X124227984Y-63174363D01*
X124227987Y-63174365D01*
X124464297Y-63272247D01*
X124713011Y-63331957D01*
X124713010Y-63331957D01*
X124968000Y-63352024D01*
X125222989Y-63331957D01*
X125471702Y-63272247D01*
X125708012Y-63174365D01*
X125708015Y-63174363D01*
X125926095Y-63040724D01*
X125926110Y-63040713D01*
X125929911Y-63037466D01*
X125929911Y-63037464D01*
X125293946Y-62401498D01*
X125306891Y-62396787D01*
X125453373Y-62300445D01*
X125573688Y-62172918D01*
X125646447Y-62046894D01*
X126283464Y-62683911D01*
X126283466Y-62683911D01*
X126286713Y-62680110D01*
X126286724Y-62680095D01*
X126420363Y-62462015D01*
X126420365Y-62462012D01*
X126518247Y-62225702D01*
X126577957Y-61976989D01*
X126598024Y-61722000D01*
X126577957Y-61467010D01*
X126518247Y-61218297D01*
X126420365Y-60981987D01*
X126420363Y-60981984D01*
X126286719Y-60763897D01*
X126283465Y-60760087D01*
X125645195Y-61398357D01*
X125621941Y-61344447D01*
X125517244Y-61203815D01*
X125382938Y-61091118D01*
X125291333Y-61045112D01*
X125929912Y-60406533D01*
X125926107Y-60403284D01*
X125926098Y-60403277D01*
X125708015Y-60269636D01*
X125708012Y-60269634D01*
X125471702Y-60171752D01*
X125222988Y-60112042D01*
X125222989Y-60112042D01*
X124968000Y-60091975D01*
X124713010Y-60112042D01*
X124464297Y-60171752D01*
X124227987Y-60269634D01*
X124227984Y-60269636D01*
X124009893Y-60403282D01*
X124006086Y-60406532D01*
X124642055Y-61042501D01*
X124629109Y-61047213D01*
X124482627Y-61143555D01*
X124362312Y-61271082D01*
X124289552Y-61397106D01*
X123652532Y-60760086D01*
X123649282Y-60763893D01*
X123515636Y-60981984D01*
X123515634Y-60981987D01*
X123417752Y-61218297D01*
X123358042Y-61467010D01*
X123337975Y-61722000D01*
X121518024Y-61722000D01*
X121497957Y-61467010D01*
X121438247Y-61218297D01*
X121340365Y-60981987D01*
X121340363Y-60981984D01*
X121206719Y-60763897D01*
X121203465Y-60760087D01*
X120565195Y-61398357D01*
X120541941Y-61344447D01*
X120437244Y-61203815D01*
X120302938Y-61091118D01*
X120211333Y-61045112D01*
X120849912Y-60406533D01*
X120846107Y-60403284D01*
X120846098Y-60403277D01*
X120628015Y-60269636D01*
X120628012Y-60269634D01*
X120391702Y-60171752D01*
X120142988Y-60112042D01*
X120142989Y-60112042D01*
X119888000Y-60091975D01*
X119633010Y-60112042D01*
X119384297Y-60171752D01*
X119147987Y-60269634D01*
X119147984Y-60269636D01*
X118929893Y-60403282D01*
X118926086Y-60406532D01*
X119562055Y-61042501D01*
X119549109Y-61047213D01*
X119402627Y-61143555D01*
X119282312Y-61271082D01*
X119209552Y-61397106D01*
X118572532Y-60760086D01*
X118569282Y-60763893D01*
X118435636Y-60981984D01*
X118435634Y-60981987D01*
X118337752Y-61218297D01*
X118278042Y-61467010D01*
X118257975Y-61722000D01*
X115824500Y-61722000D01*
X115824500Y-59182000D01*
X120872706Y-59182000D01*
X120891853Y-59425297D01*
X120891853Y-59425300D01*
X120891854Y-59425302D01*
X120940615Y-59628405D01*
X120948830Y-59662619D01*
X121042222Y-59888089D01*
X121169737Y-60096173D01*
X121169738Y-60096176D01*
X121208063Y-60141048D01*
X121328241Y-60281759D01*
X121470521Y-60403277D01*
X121513823Y-60440261D01*
X121513826Y-60440262D01*
X121721910Y-60567777D01*
X121947381Y-60661169D01*
X121947378Y-60661169D01*
X121947384Y-60661170D01*
X121947388Y-60661172D01*
X122184698Y-60718146D01*
X122428000Y-60737294D01*
X122671302Y-60718146D01*
X122908612Y-60661172D01*
X123134089Y-60567777D01*
X123342179Y-60440259D01*
X123527759Y-60281759D01*
X123686259Y-60096179D01*
X123813777Y-59888089D01*
X123907172Y-59662612D01*
X123964146Y-59425302D01*
X123983294Y-59182000D01*
X123964146Y-58938698D01*
X123907172Y-58701388D01*
X123903698Y-58693000D01*
X123813777Y-58475910D01*
X123686262Y-58267826D01*
X123686261Y-58267823D01*
X123620805Y-58191184D01*
X123527759Y-58082241D01*
X123382743Y-57958386D01*
X123342176Y-57923738D01*
X123342173Y-57923737D01*
X123134089Y-57796222D01*
X122908618Y-57702830D01*
X122908621Y-57702830D01*
X122800628Y-57676903D01*
X122671302Y-57645854D01*
X122671300Y-57645853D01*
X122671297Y-57645853D01*
X122428000Y-57626706D01*
X122184702Y-57645853D01*
X122184698Y-57645854D01*
X122040419Y-57680493D01*
X121947380Y-57702830D01*
X121721910Y-57796222D01*
X121513826Y-57923737D01*
X121513823Y-57923738D01*
X121328241Y-58082241D01*
X121169738Y-58267823D01*
X121169737Y-58267826D01*
X121042222Y-58475910D01*
X120948830Y-58701380D01*
X120948828Y-58701387D01*
X120948828Y-58701388D01*
X120921860Y-58813716D01*
X120891853Y-58938702D01*
X120872706Y-59182000D01*
X115824500Y-59182000D01*
X115824500Y-56642000D01*
X118257975Y-56642000D01*
X118278042Y-56896989D01*
X118337752Y-57145702D01*
X118435634Y-57382012D01*
X118435636Y-57382015D01*
X118569277Y-57600098D01*
X118569284Y-57600107D01*
X118572533Y-57603912D01*
X119210803Y-56965641D01*
X119234059Y-57019553D01*
X119338756Y-57160185D01*
X119473062Y-57272882D01*
X119564665Y-57318887D01*
X118926087Y-57957465D01*
X118929897Y-57960719D01*
X119147984Y-58094363D01*
X119147987Y-58094365D01*
X119384297Y-58192247D01*
X119633011Y-58251957D01*
X119633010Y-58251957D01*
X119888000Y-58272024D01*
X120142989Y-58251957D01*
X120391702Y-58192247D01*
X120628012Y-58094365D01*
X120628015Y-58094363D01*
X120846095Y-57960724D01*
X120846110Y-57960713D01*
X120849911Y-57957466D01*
X120849911Y-57957464D01*
X120213946Y-57321498D01*
X120226891Y-57316787D01*
X120373373Y-57220445D01*
X120493688Y-57092918D01*
X120566447Y-56966894D01*
X121203464Y-57603911D01*
X121203466Y-57603911D01*
X121206713Y-57600110D01*
X121206724Y-57600095D01*
X121340363Y-57382015D01*
X121340365Y-57382012D01*
X121438247Y-57145702D01*
X121497957Y-56896989D01*
X121518024Y-56642000D01*
X123337975Y-56642000D01*
X123358042Y-56896989D01*
X123417752Y-57145702D01*
X123515634Y-57382012D01*
X123515636Y-57382015D01*
X123649277Y-57600098D01*
X123649284Y-57600107D01*
X123652533Y-57603912D01*
X124290803Y-56965641D01*
X124314059Y-57019553D01*
X124418756Y-57160185D01*
X124553062Y-57272882D01*
X124644665Y-57318887D01*
X124006087Y-57957465D01*
X124009897Y-57960719D01*
X124227984Y-58094363D01*
X124227987Y-58094365D01*
X124464297Y-58192247D01*
X124713011Y-58251957D01*
X124713010Y-58251957D01*
X124968000Y-58272024D01*
X125222989Y-58251957D01*
X125471702Y-58192247D01*
X125708012Y-58094365D01*
X125708015Y-58094363D01*
X125926095Y-57960724D01*
X125926110Y-57960713D01*
X125929911Y-57957466D01*
X125929911Y-57957464D01*
X125293946Y-57321498D01*
X125306891Y-57316787D01*
X125453373Y-57220445D01*
X125573688Y-57092918D01*
X125646447Y-56966894D01*
X126283464Y-57603911D01*
X126283466Y-57603911D01*
X126286713Y-57600110D01*
X126286724Y-57600095D01*
X126420363Y-57382015D01*
X126420365Y-57382012D01*
X126518247Y-57145702D01*
X126577957Y-56896989D01*
X126598024Y-56642000D01*
X126577957Y-56387010D01*
X126518247Y-56138297D01*
X126420365Y-55901987D01*
X126420363Y-55901984D01*
X126286719Y-55683897D01*
X126283465Y-55680087D01*
X125645195Y-56318357D01*
X125621941Y-56264447D01*
X125517244Y-56123815D01*
X125382938Y-56011118D01*
X125291333Y-55965112D01*
X125929912Y-55326533D01*
X125926107Y-55323284D01*
X125926098Y-55323277D01*
X125708015Y-55189636D01*
X125708012Y-55189634D01*
X125471702Y-55091752D01*
X125222988Y-55032042D01*
X125222989Y-55032042D01*
X124968000Y-55011975D01*
X124713010Y-55032042D01*
X124464297Y-55091752D01*
X124227987Y-55189634D01*
X124227984Y-55189636D01*
X124009893Y-55323282D01*
X124006086Y-55326532D01*
X124642055Y-55962501D01*
X124629109Y-55967213D01*
X124482627Y-56063555D01*
X124362312Y-56191082D01*
X124289552Y-56317106D01*
X123652532Y-55680086D01*
X123649282Y-55683893D01*
X123515636Y-55901984D01*
X123515634Y-55901987D01*
X123417752Y-56138297D01*
X123358042Y-56387010D01*
X123337975Y-56642000D01*
X121518024Y-56642000D01*
X121497957Y-56387010D01*
X121438247Y-56138297D01*
X121340365Y-55901987D01*
X121340363Y-55901984D01*
X121206719Y-55683897D01*
X121203465Y-55680087D01*
X120565195Y-56318357D01*
X120541941Y-56264447D01*
X120437244Y-56123815D01*
X120302938Y-56011118D01*
X120211333Y-55965112D01*
X120849912Y-55326533D01*
X120846107Y-55323284D01*
X120846098Y-55323277D01*
X120628015Y-55189636D01*
X120628012Y-55189634D01*
X120391702Y-55091752D01*
X120142988Y-55032042D01*
X120142989Y-55032042D01*
X119888000Y-55011975D01*
X119633010Y-55032042D01*
X119384297Y-55091752D01*
X119147987Y-55189634D01*
X119147984Y-55189636D01*
X118929893Y-55323282D01*
X118926086Y-55326532D01*
X119562055Y-55962501D01*
X119549109Y-55967213D01*
X119402627Y-56063555D01*
X119282312Y-56191082D01*
X119209552Y-56317106D01*
X118572532Y-55680086D01*
X118569282Y-55683893D01*
X118435636Y-55901984D01*
X118435634Y-55901987D01*
X118337752Y-56138297D01*
X118278042Y-56387010D01*
X118257975Y-56642000D01*
X115824500Y-56642000D01*
X115824500Y-44574500D01*
X115844185Y-44507461D01*
X115896989Y-44461706D01*
X115948500Y-44450500D01*
X173992500Y-44450500D01*
X174059539Y-44470185D01*
G37*
%TD.AperFunction*%
%TA.AperFunction,Conductor*%
G36*
X169034120Y-53382185D02*
G01*
X169079875Y-53434989D01*
X169089819Y-53504147D01*
X169079463Y-53538905D01*
X169033098Y-53638335D01*
X169033094Y-53638344D01*
X168971938Y-53866586D01*
X168971936Y-53866596D01*
X168951341Y-54101999D01*
X168951341Y-54102000D01*
X168971936Y-54337403D01*
X168971938Y-54337413D01*
X169033094Y-54565655D01*
X169033096Y-54565659D01*
X169033097Y-54565663D01*
X169111778Y-54734395D01*
X169132965Y-54779830D01*
X169132967Y-54779834D01*
X169268501Y-54973395D01*
X169268506Y-54973402D01*
X169435597Y-55140493D01*
X169435603Y-55140498D01*
X169621158Y-55270425D01*
X169664783Y-55325002D01*
X169671977Y-55394500D01*
X169640454Y-55456855D01*
X169621158Y-55473575D01*
X169435597Y-55603505D01*
X169268505Y-55770597D01*
X169132965Y-55964169D01*
X169132964Y-55964171D01*
X169033098Y-56178335D01*
X169033094Y-56178344D01*
X168971938Y-56406586D01*
X168971936Y-56406596D01*
X168951341Y-56641999D01*
X168951341Y-56642000D01*
X168971936Y-56877403D01*
X168971938Y-56877413D01*
X169033094Y-57105655D01*
X169033096Y-57105659D01*
X169033097Y-57105663D01*
X169111073Y-57272882D01*
X169132965Y-57319830D01*
X169132967Y-57319834D01*
X169268501Y-57513395D01*
X169268506Y-57513402D01*
X169435597Y-57680493D01*
X169435603Y-57680498D01*
X169621158Y-57810425D01*
X169664783Y-57865002D01*
X169671977Y-57934500D01*
X169640454Y-57996855D01*
X169621158Y-58013575D01*
X169435597Y-58143505D01*
X169268505Y-58310597D01*
X169132965Y-58504169D01*
X169132964Y-58504171D01*
X169033098Y-58718335D01*
X169033094Y-58718344D01*
X168971938Y-58946586D01*
X168971936Y-58946596D01*
X168951341Y-59181999D01*
X168951341Y-59182000D01*
X168971936Y-59417403D01*
X168971938Y-59417413D01*
X169033094Y-59645655D01*
X169033096Y-59645659D01*
X169033097Y-59645663D01*
X169111632Y-59814082D01*
X169132965Y-59859830D01*
X169132967Y-59859834D01*
X169268501Y-60053395D01*
X169268506Y-60053402D01*
X169435597Y-60220493D01*
X169435603Y-60220498D01*
X169621158Y-60350425D01*
X169664783Y-60405002D01*
X169671977Y-60474500D01*
X169640454Y-60536855D01*
X169621158Y-60553575D01*
X169435597Y-60683505D01*
X169268505Y-60850597D01*
X169132965Y-61044169D01*
X169132964Y-61044171D01*
X169033098Y-61258335D01*
X169033094Y-61258344D01*
X168971938Y-61486586D01*
X168971936Y-61486596D01*
X168951341Y-61721999D01*
X168951341Y-61722000D01*
X168971936Y-61957403D01*
X168971938Y-61957413D01*
X169033094Y-62185655D01*
X169033096Y-62185659D01*
X169033097Y-62185663D01*
X169105426Y-62340773D01*
X169132965Y-62399830D01*
X169132967Y-62399834D01*
X169268501Y-62593395D01*
X169268506Y-62593402D01*
X169435597Y-62760493D01*
X169435603Y-62760498D01*
X169621158Y-62890425D01*
X169664783Y-62945002D01*
X169671977Y-63014500D01*
X169640454Y-63076855D01*
X169621158Y-63093575D01*
X169435597Y-63223505D01*
X169268505Y-63390597D01*
X169132965Y-63584169D01*
X169132964Y-63584171D01*
X169033098Y-63798335D01*
X169033094Y-63798344D01*
X168971938Y-64026586D01*
X168971936Y-64026596D01*
X168951341Y-64261999D01*
X168951341Y-64262000D01*
X168971936Y-64497403D01*
X168971938Y-64497413D01*
X169033094Y-64725655D01*
X169033096Y-64725659D01*
X169033097Y-64725663D01*
X169123104Y-64918684D01*
X169132965Y-64939830D01*
X169132967Y-64939834D01*
X169268501Y-65133395D01*
X169268506Y-65133402D01*
X169435597Y-65300493D01*
X169435603Y-65300498D01*
X169621158Y-65430425D01*
X169664783Y-65485002D01*
X169671977Y-65554500D01*
X169640454Y-65616855D01*
X169621158Y-65633575D01*
X169435597Y-65763505D01*
X169268505Y-65930597D01*
X169132965Y-66124169D01*
X169132964Y-66124171D01*
X169033098Y-66338335D01*
X169033094Y-66338344D01*
X168971938Y-66566586D01*
X168971936Y-66566596D01*
X168951341Y-66801999D01*
X168951341Y-66802000D01*
X168971936Y-67037403D01*
X168971938Y-67037413D01*
X169033094Y-67265655D01*
X169033096Y-67265659D01*
X169033097Y-67265663D01*
X169105291Y-67420483D01*
X169132965Y-67479830D01*
X169132967Y-67479834D01*
X169268501Y-67673395D01*
X169268506Y-67673402D01*
X169435597Y-67840493D01*
X169435603Y-67840498D01*
X169621158Y-67970425D01*
X169664783Y-68025002D01*
X169671977Y-68094500D01*
X169640454Y-68156855D01*
X169621158Y-68173575D01*
X169435597Y-68303505D01*
X169268505Y-68470597D01*
X169132965Y-68664169D01*
X169132964Y-68664171D01*
X169033098Y-68878335D01*
X169033094Y-68878344D01*
X168971938Y-69106586D01*
X168971936Y-69106596D01*
X168951341Y-69341999D01*
X168951341Y-69342000D01*
X168971936Y-69577403D01*
X168971938Y-69577413D01*
X169033094Y-69805655D01*
X169033096Y-69805659D01*
X169033097Y-69805663D01*
X169104369Y-69958505D01*
X169132965Y-70019830D01*
X169132967Y-70019834D01*
X169241281Y-70174521D01*
X169267025Y-70211288D01*
X169268501Y-70213395D01*
X169268506Y-70213402D01*
X169435597Y-70380493D01*
X169435603Y-70380498D01*
X169621158Y-70510425D01*
X169664783Y-70565002D01*
X169671977Y-70634500D01*
X169640454Y-70696855D01*
X169621158Y-70713575D01*
X169435597Y-70843505D01*
X169268505Y-71010597D01*
X169132965Y-71204169D01*
X169132964Y-71204171D01*
X169041545Y-71400219D01*
X168995372Y-71452658D01*
X168928179Y-71471810D01*
X168861298Y-71451594D01*
X168841482Y-71435495D01*
X168185819Y-70779832D01*
X168152334Y-70718509D01*
X168149500Y-70692151D01*
X168149500Y-67911742D01*
X168151224Y-67896122D01*
X168150939Y-67896096D01*
X168151671Y-67888340D01*
X168151673Y-67888333D01*
X168149561Y-67821126D01*
X168149500Y-67817231D01*
X168149500Y-67789654D01*
X168149500Y-67789650D01*
X168148996Y-67785665D01*
X168148080Y-67774021D01*
X168147359Y-67751074D01*
X168146709Y-67730373D01*
X168141122Y-67711144D01*
X168137174Y-67692084D01*
X168135179Y-67676288D01*
X168134664Y-67672208D01*
X168134663Y-67672206D01*
X168134663Y-67672204D01*
X168118588Y-67631604D01*
X168114804Y-67620552D01*
X168102618Y-67578609D01*
X168102616Y-67578606D01*
X168092423Y-67561371D01*
X168083861Y-67543894D01*
X168076487Y-67525269D01*
X168050816Y-67489937D01*
X168044405Y-67480177D01*
X168022170Y-67442580D01*
X168022168Y-67442578D01*
X168022165Y-67442574D01*
X168008006Y-67428415D01*
X167995368Y-67413619D01*
X167989015Y-67404875D01*
X167983594Y-67397413D01*
X167949940Y-67369572D01*
X167941299Y-67361709D01*
X163625960Y-63046369D01*
X163592475Y-62985046D01*
X163590323Y-62971668D01*
X163572674Y-62803744D01*
X163514179Y-62623716D01*
X163419533Y-62459784D01*
X163292871Y-62319112D01*
X163290537Y-62317416D01*
X163139734Y-62207851D01*
X163139729Y-62207848D01*
X162966807Y-62130857D01*
X162966802Y-62130855D01*
X162790848Y-62093456D01*
X162781646Y-62091500D01*
X162592354Y-62091500D01*
X162583152Y-62093456D01*
X162407197Y-62130855D01*
X162407192Y-62130857D01*
X162234270Y-62207848D01*
X162234265Y-62207851D01*
X162081129Y-62319111D01*
X161954466Y-62459785D01*
X161859821Y-62623715D01*
X161859818Y-62623722D01*
X161801327Y-62803740D01*
X161801326Y-62803744D01*
X161781540Y-62992000D01*
X161801326Y-63180256D01*
X161801327Y-63180259D01*
X161860463Y-63362261D01*
X161862458Y-63432102D01*
X161826378Y-63491935D01*
X161763677Y-63522763D01*
X161694262Y-63514798D01*
X161654851Y-63488260D01*
X160572803Y-62406212D01*
X160562980Y-62393950D01*
X160562759Y-62394134D01*
X160557786Y-62388122D01*
X160508776Y-62342099D01*
X160505977Y-62339386D01*
X160486477Y-62319885D01*
X160486471Y-62319880D01*
X160483286Y-62317409D01*
X160474434Y-62309848D01*
X160442582Y-62279938D01*
X160442580Y-62279936D01*
X160442577Y-62279935D01*
X160425029Y-62270288D01*
X160408763Y-62259604D01*
X160392932Y-62247324D01*
X160352849Y-62229978D01*
X160342363Y-62224841D01*
X160304094Y-62203803D01*
X160304092Y-62203802D01*
X160284693Y-62198822D01*
X160266281Y-62192518D01*
X160247898Y-62184562D01*
X160247892Y-62184560D01*
X160204760Y-62177729D01*
X160193322Y-62175361D01*
X160151020Y-62164500D01*
X160151019Y-62164500D01*
X160130984Y-62164500D01*
X160111586Y-62162973D01*
X160104162Y-62161797D01*
X160091805Y-62159840D01*
X160091804Y-62159840D01*
X160048325Y-62163950D01*
X160036656Y-62164500D01*
X157334454Y-62164500D01*
X157267415Y-62144815D01*
X157246773Y-62128182D01*
X157178804Y-62060214D01*
X157168986Y-62047957D01*
X157168764Y-62048141D01*
X157163785Y-62042122D01*
X157137948Y-62017860D01*
X157114772Y-61996096D01*
X157111975Y-61993385D01*
X157092475Y-61973883D01*
X157089292Y-61971414D01*
X157080434Y-61963848D01*
X157048582Y-61933938D01*
X157048580Y-61933936D01*
X157048577Y-61933935D01*
X157031029Y-61924288D01*
X157014763Y-61913604D01*
X156998932Y-61901324D01*
X156958849Y-61883978D01*
X156948363Y-61878841D01*
X156910094Y-61857803D01*
X156910092Y-61857802D01*
X156890693Y-61852822D01*
X156872281Y-61846518D01*
X156853898Y-61838562D01*
X156853892Y-61838560D01*
X156810760Y-61831729D01*
X156799322Y-61829361D01*
X156757020Y-61818500D01*
X156757019Y-61818500D01*
X156736984Y-61818500D01*
X156717586Y-61816973D01*
X156710162Y-61815797D01*
X156697805Y-61813840D01*
X156697804Y-61813840D01*
X156654325Y-61817950D01*
X156642656Y-61818500D01*
X154173743Y-61818500D01*
X154158122Y-61816775D01*
X154158095Y-61817061D01*
X154150333Y-61816326D01*
X154083113Y-61818439D01*
X154079219Y-61818500D01*
X154051650Y-61818500D01*
X154047673Y-61819002D01*
X154036042Y-61819917D01*
X153992374Y-61821289D01*
X153992368Y-61821290D01*
X153973126Y-61826880D01*
X153954087Y-61830823D01*
X153934217Y-61833334D01*
X153934203Y-61833337D01*
X153893598Y-61849413D01*
X153882554Y-61853194D01*
X153840614Y-61865379D01*
X153840610Y-61865381D01*
X153823366Y-61875579D01*
X153805905Y-61884133D01*
X153787274Y-61891510D01*
X153787262Y-61891517D01*
X153751933Y-61917185D01*
X153742173Y-61923596D01*
X153704580Y-61945829D01*
X153690414Y-61959995D01*
X153675624Y-61972627D01*
X153659414Y-61984404D01*
X153659411Y-61984407D01*
X153631573Y-62018058D01*
X153623711Y-62026697D01*
X151205181Y-64445228D01*
X151143858Y-64478713D01*
X151074166Y-64473729D01*
X151018233Y-64431857D01*
X150993816Y-64366393D01*
X150993500Y-64357547D01*
X150993500Y-62303437D01*
X150995224Y-62287817D01*
X150994939Y-62287790D01*
X150995673Y-62280028D01*
X150993561Y-62212807D01*
X150993500Y-62208913D01*
X150993500Y-62181351D01*
X150993500Y-62181345D01*
X150992996Y-62177363D01*
X150992081Y-62165724D01*
X150992043Y-62164500D01*
X150990710Y-62122068D01*
X150985119Y-62102825D01*
X150981173Y-62083773D01*
X150978664Y-62063903D01*
X150962579Y-62023278D01*
X150958806Y-62012257D01*
X150946618Y-61970305D01*
X150946617Y-61970304D01*
X150946617Y-61970302D01*
X150946616Y-61970301D01*
X150936423Y-61953066D01*
X150927861Y-61935589D01*
X150920487Y-61916964D01*
X150901993Y-61891510D01*
X150894811Y-61881625D01*
X150888405Y-61871872D01*
X150866170Y-61834275D01*
X150866168Y-61834273D01*
X150866165Y-61834269D01*
X150852006Y-61820110D01*
X150839368Y-61805314D01*
X150833540Y-61797292D01*
X150827594Y-61789108D01*
X150827404Y-61788951D01*
X150793940Y-61761267D01*
X150785299Y-61753404D01*
X150448077Y-61416181D01*
X150414592Y-61354858D01*
X150419576Y-61285166D01*
X150461448Y-61229233D01*
X150526912Y-61204816D01*
X150535758Y-61204500D01*
X155746257Y-61204500D01*
X155761877Y-61206224D01*
X155761904Y-61205939D01*
X155769660Y-61206671D01*
X155769667Y-61206673D01*
X155836873Y-61204561D01*
X155840768Y-61204500D01*
X155868346Y-61204500D01*
X155868350Y-61204500D01*
X155872324Y-61203997D01*
X155883963Y-61203080D01*
X155927627Y-61201709D01*
X155946869Y-61196117D01*
X155965912Y-61192174D01*
X155985792Y-61189664D01*
X156026401Y-61173585D01*
X156037444Y-61169803D01*
X156079390Y-61157618D01*
X156096629Y-61147422D01*
X156114103Y-61138862D01*
X156132727Y-61131488D01*
X156132727Y-61131487D01*
X156132732Y-61131486D01*
X156168083Y-61105800D01*
X156177814Y-61099408D01*
X156215420Y-61077170D01*
X156229589Y-61062999D01*
X156244379Y-61050368D01*
X156260587Y-61038594D01*
X156278895Y-61016463D01*
X156336793Y-60977353D01*
X156374441Y-60971500D01*
X156431644Y-60971500D01*
X156431646Y-60971500D01*
X156616803Y-60932144D01*
X156789730Y-60855151D01*
X156942871Y-60743888D01*
X157069533Y-60603216D01*
X157164179Y-60439284D01*
X157222674Y-60259256D01*
X157242460Y-60071000D01*
X157242460Y-60070997D01*
X157242460Y-60064502D01*
X157243782Y-60064502D01*
X157255076Y-60002735D01*
X157302807Y-59951710D01*
X157365829Y-59934500D01*
X158537242Y-59934500D01*
X158604281Y-59954185D01*
X158624923Y-59970819D01*
X158635599Y-59981495D01*
X158683686Y-60015166D01*
X158829165Y-60117032D01*
X158829167Y-60117033D01*
X158829170Y-60117035D01*
X159043337Y-60216903D01*
X159043343Y-60216904D01*
X159043344Y-60216905D01*
X159056754Y-60220498D01*
X159271592Y-60278063D01*
X159459918Y-60294539D01*
X159506999Y-60298659D01*
X159507000Y-60298659D01*
X159507001Y-60298659D01*
X159546234Y-60295226D01*
X159742408Y-60278063D01*
X159970663Y-60216903D01*
X160184830Y-60117035D01*
X160378401Y-59981495D01*
X160545495Y-59814401D01*
X160675730Y-59628405D01*
X160730307Y-59584781D01*
X160799805Y-59577587D01*
X160862160Y-59609110D01*
X160878879Y-59628405D01*
X161008890Y-59814078D01*
X161175917Y-59981105D01*
X161369421Y-60116600D01*
X161583507Y-60216429D01*
X161583516Y-60216433D01*
X161797000Y-60273634D01*
X161797000Y-59378501D01*
X161904685Y-59427680D01*
X162011237Y-59443000D01*
X162082763Y-59443000D01*
X162189315Y-59427680D01*
X162297000Y-59378501D01*
X162297000Y-60273633D01*
X162510483Y-60216433D01*
X162510492Y-60216429D01*
X162724578Y-60116600D01*
X162918082Y-59981105D01*
X163085105Y-59814082D01*
X163220600Y-59620578D01*
X163320429Y-59406492D01*
X163320432Y-59406486D01*
X163377636Y-59193000D01*
X162480686Y-59193000D01*
X162506493Y-59152844D01*
X162547000Y-59014889D01*
X162547000Y-58871111D01*
X162506493Y-58733156D01*
X162480686Y-58693000D01*
X163377636Y-58693000D01*
X163377635Y-58692999D01*
X163320432Y-58479513D01*
X163320429Y-58479507D01*
X163220600Y-58265422D01*
X163220599Y-58265420D01*
X163085113Y-58071926D01*
X163085108Y-58071920D01*
X162918078Y-57904890D01*
X162732405Y-57774879D01*
X162688780Y-57720302D01*
X162681588Y-57650804D01*
X162713110Y-57588449D01*
X162732406Y-57571730D01*
X162918401Y-57441495D01*
X163085495Y-57274401D01*
X163221035Y-57080830D01*
X163320903Y-56866663D01*
X163382063Y-56638408D01*
X163402659Y-56403000D01*
X163382063Y-56167592D01*
X163320903Y-55939337D01*
X163221035Y-55725171D01*
X163215425Y-55717158D01*
X163085494Y-55531597D01*
X162918402Y-55364506D01*
X162918396Y-55364501D01*
X162732842Y-55234575D01*
X162689217Y-55179998D01*
X162682023Y-55110500D01*
X162713546Y-55048145D01*
X162732842Y-55031425D01*
X162815707Y-54973402D01*
X162918401Y-54901495D01*
X163085495Y-54734401D01*
X163221035Y-54540830D01*
X163320903Y-54326663D01*
X163382063Y-54098408D01*
X163402659Y-53863000D01*
X163382063Y-53627592D01*
X163352857Y-53518592D01*
X163354520Y-53448743D01*
X163393683Y-53390881D01*
X163457911Y-53363377D01*
X163472632Y-53362500D01*
X168967081Y-53362500D01*
X169034120Y-53382185D01*
G37*
%TD.AperFunction*%
%TA.AperFunction,Conductor*%
G36*
X149700213Y-63428946D02*
G01*
X149737666Y-63487930D01*
X149742500Y-63522215D01*
X149742500Y-64586547D01*
X149722815Y-64653586D01*
X149706181Y-64674228D01*
X148896228Y-65484181D01*
X148834905Y-65517666D01*
X148808547Y-65520500D01*
X148749354Y-65520500D01*
X148716897Y-65527398D01*
X148564197Y-65559855D01*
X148564192Y-65559857D01*
X148391270Y-65636848D01*
X148391265Y-65636851D01*
X148238135Y-65748106D01*
X148238125Y-65748115D01*
X148233005Y-65753801D01*
X148173515Y-65790444D01*
X148144762Y-65794759D01*
X148126458Y-65795334D01*
X148123139Y-65795439D01*
X148119250Y-65795500D01*
X148091650Y-65795500D01*
X148087962Y-65795965D01*
X148087649Y-65796005D01*
X148076031Y-65796918D01*
X148032372Y-65798290D01*
X148032369Y-65798291D01*
X148013126Y-65803881D01*
X147994083Y-65807825D01*
X147974204Y-65810336D01*
X147974203Y-65810337D01*
X147933593Y-65826415D01*
X147922548Y-65830197D01*
X147880608Y-65842383D01*
X147880604Y-65842385D01*
X147863365Y-65852580D01*
X147845898Y-65861137D01*
X147827269Y-65868512D01*
X147827267Y-65868514D01*
X147791926Y-65894189D01*
X147782168Y-65900599D01*
X147744580Y-65922828D01*
X147730408Y-65937000D01*
X147715623Y-65949628D01*
X147699412Y-65961407D01*
X147671571Y-65995059D01*
X147663711Y-66003696D01*
X146216226Y-67451181D01*
X146154903Y-67484666D01*
X146128545Y-67487500D01*
X145488000Y-67487500D01*
X145420961Y-67467815D01*
X145375206Y-67415011D01*
X145364000Y-67363500D01*
X145364000Y-66813000D01*
X144839000Y-66813000D01*
X144839000Y-67813000D01*
X144914500Y-67813000D01*
X144981539Y-67832685D01*
X145027294Y-67885489D01*
X145038500Y-67937000D01*
X145038500Y-67940126D01*
X145038500Y-67940127D01*
X145038500Y-68187453D01*
X145038501Y-68313500D01*
X145018817Y-68380539D01*
X144966013Y-68426294D01*
X144914501Y-68437500D01*
X142796826Y-68437500D01*
X142729787Y-68417815D01*
X142684032Y-68365011D01*
X142674088Y-68295853D01*
X142696506Y-68240618D01*
X142699058Y-68237104D01*
X142699058Y-68237102D01*
X142699062Y-68237099D01*
X142708714Y-68219540D01*
X142719389Y-68203289D01*
X142731674Y-68187453D01*
X142749030Y-68147342D01*
X142754161Y-68136871D01*
X142775194Y-68098615D01*
X142775194Y-68098614D01*
X142775197Y-68098609D01*
X142780180Y-68079197D01*
X142786477Y-68060808D01*
X142794438Y-68042412D01*
X142801270Y-67999265D01*
X142803639Y-67987833D01*
X142813439Y-67949666D01*
X142814500Y-67945536D01*
X142814500Y-67937499D01*
X142834185Y-67870460D01*
X142886989Y-67824705D01*
X142938500Y-67813499D01*
X143311871Y-67813499D01*
X143311872Y-67813499D01*
X143371483Y-67807091D01*
X143371486Y-67807089D01*
X143375744Y-67806632D01*
X143402254Y-67806632D01*
X143406514Y-67807089D01*
X143406517Y-67807091D01*
X143466127Y-67813500D01*
X144111872Y-67813499D01*
X144171483Y-67807091D01*
X144171483Y-67807090D01*
X144178096Y-67806380D01*
X144204607Y-67806381D01*
X144266157Y-67812999D01*
X144266172Y-67813000D01*
X144339000Y-67813000D01*
X144339000Y-67794409D01*
X144358685Y-67727370D01*
X144388691Y-67695141D01*
X144421545Y-67670547D01*
X144421546Y-67670546D01*
X144507796Y-67555331D01*
X144558091Y-67420483D01*
X144564500Y-67360873D01*
X144564499Y-66436998D01*
X144584183Y-66369961D01*
X144636987Y-66324206D01*
X144688499Y-66313000D01*
X145364000Y-66313000D01*
X145364000Y-65765172D01*
X145363999Y-65765155D01*
X145357598Y-65705627D01*
X145357596Y-65705620D01*
X145307354Y-65570913D01*
X145307350Y-65570906D01*
X145221190Y-65455812D01*
X145221187Y-65455809D01*
X145106093Y-65369649D01*
X145106086Y-65369645D01*
X144971379Y-65319403D01*
X144971372Y-65319401D01*
X144911844Y-65313000D01*
X144842500Y-65313000D01*
X144775461Y-65293315D01*
X144729706Y-65240511D01*
X144718500Y-65189000D01*
X144718500Y-64877391D01*
X144738185Y-64810352D01*
X144750352Y-64794417D01*
X144750533Y-64794216D01*
X144845179Y-64630284D01*
X144903674Y-64450256D01*
X144923460Y-64262000D01*
X144903674Y-64073744D01*
X144902398Y-64069819D01*
X144902330Y-64067421D01*
X144902322Y-64067383D01*
X144902329Y-64067381D01*
X144900400Y-63999983D01*
X144936476Y-63940147D01*
X144999175Y-63909315D01*
X145059328Y-63913791D01*
X145102203Y-63927999D01*
X145204991Y-63938500D01*
X146005008Y-63938499D01*
X146005016Y-63938498D01*
X146005019Y-63938498D01*
X146061302Y-63932748D01*
X146107797Y-63927999D01*
X146274334Y-63872814D01*
X146423656Y-63780712D01*
X146517319Y-63687049D01*
X146578642Y-63653564D01*
X146648334Y-63658548D01*
X146692681Y-63687049D01*
X146786344Y-63780712D01*
X146935666Y-63872814D01*
X147102203Y-63927999D01*
X147204991Y-63938500D01*
X148005008Y-63938499D01*
X148005016Y-63938498D01*
X148005019Y-63938498D01*
X148061302Y-63932748D01*
X148107797Y-63927999D01*
X148274334Y-63872814D01*
X148423656Y-63780712D01*
X148547712Y-63656656D01*
X148639814Y-63507334D01*
X148639815Y-63507331D01*
X148643605Y-63501187D01*
X148645399Y-63502293D01*
X148684687Y-63457663D01*
X148750908Y-63438500D01*
X149327079Y-63438500D01*
X149334566Y-63438725D01*
X149394606Y-63442358D01*
X149453782Y-63431513D01*
X149461185Y-63430387D01*
X149464921Y-63429933D01*
X149520872Y-63423140D01*
X149530335Y-63419550D01*
X149551961Y-63413522D01*
X149552893Y-63413351D01*
X149561932Y-63411695D01*
X149567607Y-63409140D01*
X149636816Y-63399575D01*
X149700213Y-63428946D01*
G37*
%TD.AperFunction*%
%TA.AperFunction,Conductor*%
G36*
X121916000Y-51061498D02*
G01*
X121808315Y-51012320D01*
X121701763Y-50997000D01*
X121630237Y-50997000D01*
X121523685Y-51012320D01*
X121416000Y-51061498D01*
X121416000Y-49392501D01*
X121523685Y-49441680D01*
X121630237Y-49457000D01*
X121701763Y-49457000D01*
X121808315Y-49441680D01*
X121916000Y-49392501D01*
X121916000Y-51061498D01*
G37*
%TD.AperFunction*%
%TA.AperFunction,Conductor*%
G36*
X144776000Y-51061498D02*
G01*
X144668315Y-51012320D01*
X144561763Y-50997000D01*
X144490237Y-50997000D01*
X144383685Y-51012320D01*
X144276000Y-51061498D01*
X144276000Y-49392501D01*
X144383685Y-49441680D01*
X144490237Y-49457000D01*
X144561763Y-49457000D01*
X144668315Y-49441680D01*
X144776000Y-49392501D01*
X144776000Y-51061498D01*
G37*
%TD.AperFunction*%
%TD*%
M02*
