M48
; DRILL file {KiCad 7.0.10} date Wed Nov 13 12:28:56 2024
; FORMAT={-:-/ absolute / inch / decimal}
; #@! TF.CreationDate,2024-11-13T12:28:56-05:00
; #@! TF.GenerationSoftware,Kicad,Pcbnew,7.0.10
; #@! TF.FileFunction,Plated,1,2,PTH
FMAT,2
INCH
; #@! TA.AperFunction,Plated,PTH,ViaDrill
T1C0.0157
; #@! TA.AperFunction,Plated,PTH,ComponentDrill
T2C0.0177
; #@! TA.AperFunction,Plated,PTH,ComponentDrill
T3C0.0394
; #@! TA.AperFunction,Plated,PTH,ComponentDrill
T4C0.0551
; #@! TA.AperFunction,Plated,PTH,ComponentDrill
T5C0.0591
%
G90
G05
T1
X4.865Y-2.89
X5.035Y-3.115
X5.075Y-3.025
X5.1025Y-2.54
X5.2182Y-3.199
X5.26Y-2.63
X5.26Y-3.05
X5.415Y-3.395
X5.4525Y-2.6763
X5.455Y-1.98
X5.47Y-2.565
X5.5Y-2.535
X5.5Y-2.925
X5.532Y-2.5596
X5.535Y-3.15
X5.5534Y-2.7071
X5.565Y-3.23
X5.575Y-3.01
X5.585Y-2.39
X5.5908Y-2.7194
X5.5986Y-2.545
X5.5988Y-3.1245
X5.61Y-2.9844
X5.6148Y-3.2119
X5.6194Y-2.75
X5.625Y-2.33
X5.63Y-2.57
X5.635Y-3.14
X5.645Y-2.9559
X5.6451Y-2.7863
X5.67Y-2.165
X5.67Y-2.53
X5.6765Y-2.81
X5.68Y-3.125
X5.735Y-3.065
X5.8302Y-3.1198
X5.835Y-3.165
X5.8585Y-3.015
X5.86Y-2.52
X5.86Y-2.615
X5.865Y-2.815
X5.87Y-2.29
X5.88Y-1.8349
X5.89Y-2.46
X5.8935Y-2.78
X5.9Y-2.335
X5.93Y-2.765
X5.95Y-2.245
X5.955Y-2.51
X6.155Y-2.365
X6.165Y-2.235
X6.2Y-2.565
X6.405Y-2.48
T3
X4.79Y-1.9274
X4.79Y-2.0274
X4.89Y-1.9274
X4.89Y-2.0274
X4.99Y-1.9274
X4.99Y-2.0274
X5.09Y-1.9274
X5.09Y-2.0274
X5.19Y-1.9274
X5.19Y-2.0274
X5.69Y-1.9274
X5.69Y-2.0274
X5.79Y-1.9274
X5.79Y-2.0274
X5.89Y-1.9274
X5.89Y-2.0274
X5.99Y-1.9274
X5.99Y-2.0274
X6.09Y-1.9274
X6.09Y-2.0274
X6.2798Y-2.1206
X6.2798Y-2.2206
X6.2798Y-2.3206
X6.3798Y-2.1206
X6.3798Y-2.2206
X6.3798Y-2.3206
X6.705Y-1.83
X6.705Y-1.93
X6.705Y-2.03
X6.705Y-2.13
X6.705Y-2.23
X6.705Y-2.33
X6.705Y-2.43
X6.705Y-2.53
X6.705Y-2.63
X6.705Y-2.73
X6.705Y-2.83
X6.705Y-2.93
X6.705Y-3.03
X6.705Y-3.13
X6.705Y-3.23
X6.705Y-3.33
X6.705Y-3.43
X6.705Y-3.53
T4
X4.82Y-2.33
T5
X4.72Y-2.23
X4.72Y-2.43
X4.92Y-2.23
X4.92Y-2.43
T2
G00X5.3293Y-3.563
M15
G01X5.3293Y-3.5315
M16
G05
G00X5.6107Y-3.5315
M15
G01X5.6107Y-3.563
M16
G05
M30
