%TF.GenerationSoftware,KiCad,Pcbnew,7.0.10*%
%TF.CreationDate,2024-11-13T12:28:53-05:00*%
%TF.ProjectId,pmodThingy,706d6f64-5468-4696-9e67-792e6b696361,rev?*%
%TF.SameCoordinates,Original*%
%TF.FileFunction,Soldermask,Top*%
%TF.FilePolarity,Negative*%
%FSLAX46Y46*%
G04 Gerber Fmt 4.6, Leading zero omitted, Abs format (unit mm)*
G04 Created by KiCad (PCBNEW 7.0.10) date 2024-11-13 12:28:53*
%MOMM*%
%LPD*%
G01*
G04 APERTURE LIST*
G04 Aperture macros list*
%AMRoundRect*
0 Rectangle with rounded corners*
0 $1 Rounding radius*
0 $2 $3 $4 $5 $6 $7 $8 $9 X,Y pos of 4 corners*
0 Add a 4 corners polygon primitive as box body*
4,1,4,$2,$3,$4,$5,$6,$7,$8,$9,$2,$3,0*
0 Add four circle primitives for the rounded corners*
1,1,$1+$1,$2,$3*
1,1,$1+$1,$4,$5*
1,1,$1+$1,$6,$7*
1,1,$1+$1,$8,$9*
0 Add four rect primitives between the rounded corners*
20,1,$1+$1,$2,$3,$4,$5,0*
20,1,$1+$1,$4,$5,$6,$7,0*
20,1,$1+$1,$6,$7,$8,$9,0*
20,1,$1+$1,$8,$9,$2,$3,0*%
G04 Aperture macros list end*
%ADD10RoundRect,0.250000X0.325000X0.450000X-0.325000X0.450000X-0.325000X-0.450000X0.325000X-0.450000X0*%
%ADD11C,2.304000*%
%ADD12C,2.454000*%
%ADD13RoundRect,0.250000X-0.475000X0.337500X-0.475000X-0.337500X0.475000X-0.337500X0.475000X0.337500X0*%
%ADD14R,1.700000X1.700000*%
%ADD15O,1.700000X1.700000*%
%ADD16RoundRect,0.250000X1.250000X0.550000X-1.250000X0.550000X-1.250000X-0.550000X1.250000X-0.550000X0*%
%ADD17RoundRect,0.250000X0.350000X0.450000X-0.350000X0.450000X-0.350000X-0.450000X0.350000X-0.450000X0*%
%ADD18R,0.550000X1.500000*%
%ADD19R,1.500000X0.550000*%
%ADD20R,1.500000X2.000000*%
%ADD21R,3.800000X2.000000*%
%ADD22RoundRect,0.250000X0.337500X0.475000X-0.337500X0.475000X-0.337500X-0.475000X0.337500X-0.475000X0*%
%ADD23RoundRect,0.250000X0.550000X-1.250000X0.550000X1.250000X-0.550000X1.250000X-0.550000X-1.250000X0*%
%ADD24RoundRect,0.250000X0.450000X-0.350000X0.450000X0.350000X-0.450000X0.350000X-0.450000X-0.350000X0*%
%ADD25RoundRect,0.250000X0.475000X-0.337500X0.475000X0.337500X-0.475000X0.337500X-0.475000X-0.337500X0*%
%ADD26RoundRect,0.250000X-0.325000X-0.450000X0.325000X-0.450000X0.325000X0.450000X-0.325000X0.450000X0*%
%ADD27R,2.000000X7.875000*%
%ADD28RoundRect,0.250000X-0.350000X-0.450000X0.350000X-0.450000X0.350000X0.450000X-0.350000X0.450000X0*%
%ADD29R,0.400000X1.400000*%
%ADD30O,1.050000X1.900000*%
%ADD31R,1.150000X1.450000*%
%ADD32R,1.750000X1.900000*%
G04 APERTURE END LIST*
D10*
%TO.C,D1*%
X136597000Y-62738000D03*
X134547000Y-62738000D03*
%TD*%
D11*
%TO.C,J6*%
X122428000Y-59182000D03*
D12*
X119888000Y-56642000D03*
X119888000Y-61722000D03*
X124968000Y-61722000D03*
X124968000Y-56642000D03*
%TD*%
D13*
%TO.C,C3*%
X144907000Y-82782500D03*
X144907000Y-84857500D03*
%TD*%
D14*
%TO.C,J2*%
X121666000Y-51497000D03*
D15*
X121666000Y-48957000D03*
X124206000Y-51497000D03*
X124206000Y-48957000D03*
X126746000Y-51497000D03*
X126746000Y-48957000D03*
X129286000Y-51497000D03*
X129286000Y-48957000D03*
X131826000Y-51497000D03*
X131826000Y-48957000D03*
%TD*%
D16*
%TO.C,C5*%
X130470000Y-86868000D03*
X126070000Y-86868000D03*
%TD*%
D17*
%TO.C,R4*%
X147605000Y-62738000D03*
X145605000Y-62738000D03*
%TD*%
D18*
%TO.C,U1*%
X136589000Y-77963000D03*
X137389000Y-77963000D03*
X138189000Y-77963000D03*
X138989000Y-77963000D03*
X139789000Y-77963000D03*
X140589000Y-77963000D03*
X141389000Y-77963000D03*
X142189000Y-77963000D03*
X142989000Y-77963000D03*
X143789000Y-77963000D03*
X144589000Y-77963000D03*
D19*
X146289000Y-76263000D03*
X146289000Y-75463000D03*
X146289000Y-74663000D03*
X146289000Y-73863000D03*
X146289000Y-73063000D03*
X146289000Y-72263000D03*
X146289000Y-71463000D03*
X146289000Y-70663000D03*
X146289000Y-69863000D03*
X146289000Y-69063000D03*
X146289000Y-68263000D03*
D18*
X144589000Y-66563000D03*
X143789000Y-66563000D03*
X142989000Y-66563000D03*
X142189000Y-66563000D03*
X141389000Y-66563000D03*
X140589000Y-66563000D03*
X139789000Y-66563000D03*
X138989000Y-66563000D03*
X138189000Y-66563000D03*
X137389000Y-66563000D03*
X136589000Y-66563000D03*
D19*
X134889000Y-68263000D03*
X134889000Y-69063000D03*
X134889000Y-69863000D03*
X134889000Y-70663000D03*
X134889000Y-71463000D03*
X134889000Y-72263000D03*
X134889000Y-73063000D03*
X134889000Y-73863000D03*
X134889000Y-74663000D03*
X134889000Y-75463000D03*
X134889000Y-76263000D03*
%TD*%
D20*
%TO.C,U2*%
X125716000Y-81255000D03*
X128016000Y-81255000D03*
D21*
X128016000Y-74955000D03*
D20*
X130316000Y-81255000D03*
%TD*%
D22*
%TO.C,C7*%
X132482500Y-68199000D03*
X130407500Y-68199000D03*
%TD*%
D23*
%TO.C,C6*%
X122936000Y-71161000D03*
X122936000Y-66761000D03*
%TD*%
D24*
%TO.C,R2*%
X137541000Y-83169000D03*
X137541000Y-81169000D03*
%TD*%
%TO.C,R1*%
X139700000Y-83169000D03*
X139700000Y-81169000D03*
%TD*%
D14*
%TO.C,J5*%
X159507000Y-53863000D03*
D15*
X162047000Y-53863000D03*
X159507000Y-56403000D03*
X162047000Y-56403000D03*
X159507000Y-58943000D03*
X162047000Y-58943000D03*
%TD*%
D14*
%TO.C,J4*%
X170307000Y-46482000D03*
D15*
X170307000Y-49022000D03*
X170307000Y-51562000D03*
X170307000Y-54102000D03*
X170307000Y-56642000D03*
X170307000Y-59182000D03*
X170307000Y-61722000D03*
X170307000Y-64262000D03*
X170307000Y-66802000D03*
X170307000Y-69342000D03*
X170307000Y-71882000D03*
X170307000Y-74422000D03*
X170307000Y-76962000D03*
X170307000Y-79502000D03*
X170307000Y-82042000D03*
X170307000Y-84582000D03*
X170307000Y-87122000D03*
X170307000Y-89662000D03*
%TD*%
D13*
%TO.C,C2*%
X162448000Y-74606500D03*
X162448000Y-76681500D03*
%TD*%
D25*
%TO.C,C4*%
X127762000Y-71141500D03*
X127762000Y-69066500D03*
%TD*%
D26*
%TO.C,D2*%
X140580000Y-62738000D03*
X142630000Y-62738000D03*
%TD*%
D25*
%TO.C,C1*%
X162448000Y-70681500D03*
X162448000Y-68606500D03*
%TD*%
D27*
%TO.C,Y1*%
X155448000Y-78581500D03*
X155448000Y-66706500D03*
%TD*%
D28*
%TO.C,R5*%
X152289000Y-59309000D03*
X154289000Y-59309000D03*
%TD*%
D14*
%TO.C,J1*%
X144526000Y-51497000D03*
D15*
X144526000Y-48957000D03*
X147066000Y-51497000D03*
X147066000Y-48957000D03*
X149606000Y-51497000D03*
X149606000Y-48957000D03*
X152146000Y-51497000D03*
X152146000Y-48957000D03*
X154686000Y-51497000D03*
X154686000Y-48957000D03*
%TD*%
D28*
%TO.C,R3*%
X129572000Y-62738000D03*
X131572000Y-62738000D03*
%TD*%
D29*
%TO.C,J3*%
X137638000Y-87450000D03*
X138288000Y-87450000D03*
X138938000Y-87450000D03*
X139588000Y-87450000D03*
X140238000Y-87450000D03*
D30*
X135363000Y-90100000D03*
D31*
X136618000Y-87870000D03*
D32*
X137813000Y-90100000D03*
X140063000Y-90100000D03*
D31*
X141258000Y-87870000D03*
D30*
X142513000Y-90100000D03*
%TD*%
M02*
