%TF.GenerationSoftware,KiCad,Pcbnew,7.0.10*%
%TF.CreationDate,2024-11-13T12:28:53-05:00*%
%TF.ProjectId,pmodThingy,706d6f64-5468-4696-9e67-792e6b696361,rev?*%
%TF.SameCoordinates,Original*%
%TF.FileFunction,Paste,Top*%
%TF.FilePolarity,Positive*%
%FSLAX46Y46*%
G04 Gerber Fmt 4.6, Leading zero omitted, Abs format (unit mm)*
G04 Created by KiCad (PCBNEW 7.0.10) date 2024-11-13 12:28:53*
%MOMM*%
%LPD*%
G01*
G04 APERTURE LIST*
G04 Aperture macros list*
%AMRoundRect*
0 Rectangle with rounded corners*
0 $1 Rounding radius*
0 $2 $3 $4 $5 $6 $7 $8 $9 X,Y pos of 4 corners*
0 Add a 4 corners polygon primitive as box body*
4,1,4,$2,$3,$4,$5,$6,$7,$8,$9,$2,$3,0*
0 Add four circle primitives for the rounded corners*
1,1,$1+$1,$2,$3*
1,1,$1+$1,$4,$5*
1,1,$1+$1,$6,$7*
1,1,$1+$1,$8,$9*
0 Add four rect primitives between the rounded corners*
20,1,$1+$1,$2,$3,$4,$5,0*
20,1,$1+$1,$4,$5,$6,$7,0*
20,1,$1+$1,$6,$7,$8,$9,0*
20,1,$1+$1,$8,$9,$2,$3,0*%
G04 Aperture macros list end*
%ADD10RoundRect,0.250000X0.325000X0.450000X-0.325000X0.450000X-0.325000X-0.450000X0.325000X-0.450000X0*%
%ADD11RoundRect,0.250000X-0.475000X0.337500X-0.475000X-0.337500X0.475000X-0.337500X0.475000X0.337500X0*%
%ADD12RoundRect,0.250000X1.250000X0.550000X-1.250000X0.550000X-1.250000X-0.550000X1.250000X-0.550000X0*%
%ADD13RoundRect,0.250000X0.350000X0.450000X-0.350000X0.450000X-0.350000X-0.450000X0.350000X-0.450000X0*%
%ADD14R,0.550000X1.500000*%
%ADD15R,1.500000X0.550000*%
%ADD16R,1.500000X2.000000*%
%ADD17R,3.800000X2.000000*%
%ADD18RoundRect,0.250000X0.337500X0.475000X-0.337500X0.475000X-0.337500X-0.475000X0.337500X-0.475000X0*%
%ADD19RoundRect,0.250000X0.550000X-1.250000X0.550000X1.250000X-0.550000X1.250000X-0.550000X-1.250000X0*%
%ADD20RoundRect,0.250000X0.450000X-0.350000X0.450000X0.350000X-0.450000X0.350000X-0.450000X-0.350000X0*%
%ADD21RoundRect,0.250000X0.475000X-0.337500X0.475000X0.337500X-0.475000X0.337500X-0.475000X-0.337500X0*%
%ADD22RoundRect,0.250000X-0.325000X-0.450000X0.325000X-0.450000X0.325000X0.450000X-0.325000X0.450000X0*%
%ADD23R,2.000000X7.875000*%
%ADD24RoundRect,0.250000X-0.350000X-0.450000X0.350000X-0.450000X0.350000X0.450000X-0.350000X0.450000X0*%
%ADD25R,0.400000X1.400000*%
%ADD26R,1.150000X1.450000*%
%ADD27R,1.750000X1.900000*%
G04 APERTURE END LIST*
D10*
%TO.C,D1*%
X136597000Y-62738000D03*
X134547000Y-62738000D03*
%TD*%
D11*
%TO.C,C3*%
X144907000Y-82782500D03*
X144907000Y-84857500D03*
%TD*%
D12*
%TO.C,C5*%
X130470000Y-86868000D03*
X126070000Y-86868000D03*
%TD*%
D13*
%TO.C,R4*%
X147605000Y-62738000D03*
X145605000Y-62738000D03*
%TD*%
D14*
%TO.C,U1*%
X136589000Y-77963000D03*
X137389000Y-77963000D03*
X138189000Y-77963000D03*
X138989000Y-77963000D03*
X139789000Y-77963000D03*
X140589000Y-77963000D03*
X141389000Y-77963000D03*
X142189000Y-77963000D03*
X142989000Y-77963000D03*
X143789000Y-77963000D03*
X144589000Y-77963000D03*
D15*
X146289000Y-76263000D03*
X146289000Y-75463000D03*
X146289000Y-74663000D03*
X146289000Y-73863000D03*
X146289000Y-73063000D03*
X146289000Y-72263000D03*
X146289000Y-71463000D03*
X146289000Y-70663000D03*
X146289000Y-69863000D03*
X146289000Y-69063000D03*
X146289000Y-68263000D03*
D14*
X144589000Y-66563000D03*
X143789000Y-66563000D03*
X142989000Y-66563000D03*
X142189000Y-66563000D03*
X141389000Y-66563000D03*
X140589000Y-66563000D03*
X139789000Y-66563000D03*
X138989000Y-66563000D03*
X138189000Y-66563000D03*
X137389000Y-66563000D03*
X136589000Y-66563000D03*
D15*
X134889000Y-68263000D03*
X134889000Y-69063000D03*
X134889000Y-69863000D03*
X134889000Y-70663000D03*
X134889000Y-71463000D03*
X134889000Y-72263000D03*
X134889000Y-73063000D03*
X134889000Y-73863000D03*
X134889000Y-74663000D03*
X134889000Y-75463000D03*
X134889000Y-76263000D03*
%TD*%
D16*
%TO.C,U2*%
X125716000Y-81255000D03*
X128016000Y-81255000D03*
D17*
X128016000Y-74955000D03*
D16*
X130316000Y-81255000D03*
%TD*%
D18*
%TO.C,C7*%
X132482500Y-68199000D03*
X130407500Y-68199000D03*
%TD*%
D19*
%TO.C,C6*%
X122936000Y-71161000D03*
X122936000Y-66761000D03*
%TD*%
D20*
%TO.C,R2*%
X137541000Y-83169000D03*
X137541000Y-81169000D03*
%TD*%
%TO.C,R1*%
X139700000Y-83169000D03*
X139700000Y-81169000D03*
%TD*%
D11*
%TO.C,C2*%
X162448000Y-74606500D03*
X162448000Y-76681500D03*
%TD*%
D21*
%TO.C,C4*%
X127762000Y-71141500D03*
X127762000Y-69066500D03*
%TD*%
D22*
%TO.C,D2*%
X140580000Y-62738000D03*
X142630000Y-62738000D03*
%TD*%
D21*
%TO.C,C1*%
X162448000Y-70681500D03*
X162448000Y-68606500D03*
%TD*%
D23*
%TO.C,Y1*%
X155448000Y-78581500D03*
X155448000Y-66706500D03*
%TD*%
D24*
%TO.C,R5*%
X152289000Y-59309000D03*
X154289000Y-59309000D03*
%TD*%
%TO.C,R3*%
X129572000Y-62738000D03*
X131572000Y-62738000D03*
%TD*%
D25*
%TO.C,J3*%
X137638000Y-87450000D03*
X138288000Y-87450000D03*
X138938000Y-87450000D03*
X139588000Y-87450000D03*
X140238000Y-87450000D03*
D26*
X136618000Y-87870000D03*
D27*
X137813000Y-90100000D03*
X140063000Y-90100000D03*
D26*
X141258000Y-87870000D03*
%TD*%
M02*
